<?xml version="1.0" standalone="no"?>
<!DOCTYPE svg PUBLIC "-//W3C//DTD SVG 1.1//EN" "http://www.w3.org/Graphics/SVG/1.1/DTD/svg11.dtd" >
<svg xmlns="http://www.w3.org/2000/svg" xmlns:xlink="http://www.w3.org/1999/xlink" version="1.1">
<metadata>
Created by FontForge 20170731 at Thu Sep 11 21:32:51 2008
 By Aleksey,,,
Copyright (C) 2005, 2008 Hoefler &#38; Frere-Jones. http://www.typography.com
</metadata>
<defs>
<font id="GothamNarrow-BoldItalic" horiz-adv-x="353" >
  <font-face 
    font-family="Gotham Narrow Bold"
    font-weight="400"
    font-style="italic"
    font-stretch="condensed"
    units-per-em="1000"
    panose-1="0 0 0 0 0 0 0 0 0 0"
    ascent="800"
    descent="-200"
    x-height="541"
    cap-height="700"
    bbox="-292 -283 1090 995"
    underline-thickness="50"
    underline-position="-300"
    slope="-14"
    unicode-range="U+0020-FB04"
  />
<missing-glyph horiz-adv-x="500" 
d="M0 -200v1000h500v-1000h-500zM50 -76l172 376l-172 376v-752zM71 -150h358l-179 390zM250 360l179 390h-358zM450 -76v752l-172 -376z" />
    <glyph glyph-name="f_f" unicode="ff" horiz-adv-x="724" 
d="M12 0l100 413h-57l34 128h55l4 18q20 84 60 123q49 48 141 48q48 0 85 -11l-32 -123q-23 7 -48 7q-45 0 -58 -47l-4 -15h97l-34 -128h-93l-100 -413h-150zM374 0l100 413h-57l34 128h55l4 18q20 84 60 123q49 48 141 48q48 0 85 -11l-32 -123q-23 7 -48 7q-45 0 -58 -47
l-4 -15h97l-34 -128h-93l-100 -413h-150z" />
    <glyph glyph-name="fi" unicode="fi" horiz-adv-x="634" 
d="M12 0l100 413h-57l34 128h55l4 18q20 84 60 123q49 48 141 48q48 0 85 -11l-32 -123q-23 7 -48 7q-45 0 -58 -47l-4 -15h97l-34 -128h-93l-100 -413h-150zM356 0l133 541h149l-132 -541h-150zM497 593l36 136h155l-36 -136h-155z" />
    <glyph glyph-name="fl" unicode="fl" horiz-adv-x="634" 
d="M12 0l100 413h-57l34 128h55l4 18q20 84 60 123q49 48 141 48q48 0 85 -11l-32 -123q-23 7 -48 7q-45 0 -58 -47l-4 -15h97l-34 -128h-93l-100 -413h-150zM356 0l177 722h149l-176 -722h-150z" />
    <glyph glyph-name="f_f_i" unicode="ffi" horiz-adv-x="996" 
d="M12 0l100 413h-57l34 128h55l4 18q20 84 60 123q49 48 141 48q48 0 85 -11l-32 -123q-23 7 -48 7q-45 0 -58 -47l-4 -15h97l-34 -128h-93l-100 -413h-150zM374 0l100 413h-57l34 128h55l4 18q20 84 60 123q49 48 141 48q48 0 85 -11l-32 -123q-23 7 -48 7q-45 0 -58 -47
l-4 -15h97l-34 -128h-93l-100 -413h-150zM719 0l133 541h149l-132 -541h-150zM860 593l36 136h155l-36 -136h-155z" />
    <glyph glyph-name="f_f_l" unicode="ffl" horiz-adv-x="996" 
d="M12 0l100 413h-57l34 128h55l4 18q20 84 60 123q49 48 141 48q48 0 85 -11l-32 -123q-23 7 -48 7q-45 0 -58 -47l-4 -15h97l-34 -128h-93l-100 -413h-150zM374 0l100 413h-57l34 128h55l4 18q20 84 60 123q49 48 141 48q48 0 85 -11l-32 -123q-23 7 -48 7q-45 0 -58 -47
l-4 -15h97l-34 -128h-93l-100 -413h-150zM719 0l177 722h149l-176 -722h-150z" />
    <glyph glyph-name=".notdef" horiz-adv-x="500" 
d="M0 -200v1000h500v-1000h-500zM50 -76l172 376l-172 376v-752zM71 -150h358l-179 390zM250 360l179 390h-358zM450 -76v752l-172 -376z" />
    <glyph glyph-name=".null" horiz-adv-x="0" 
 />
    <glyph glyph-name="nonmarkingreturn" horiz-adv-x="333" 
 />
    <glyph glyph-name="space" unicode=" " horiz-adv-x="224" 
 />
    <glyph glyph-name="exclam" unicode="!" horiz-adv-x="307" 
d="M105 238l61 442l4 20h176l-4 -20l-155 -442h-82zM7 0l40 159h160l-40 -159h-160z" />
    <glyph glyph-name="quotedbl" unicode="&#x22;" horiz-adv-x="473" 
d="M93 385l69 315h166l-3 -6l-156 -309h-76zM312 385l69 315h166l-2 -6l-157 -309h-76z" />
    <glyph glyph-name="numbersign" unicode="#" horiz-adv-x="602" 
d="M27 0l45 149h-68l32 126h74l45 152h-76l33 126h81l45 147h128l-44 -147h115l45 147h128l-45 -147h69l-32 -126h-75l-46 -152h78l-32 -126h-83l-46 -149h-128l45 149h-115l-45 -149h-128zM238 275h116l45 152h-115z" />
    <glyph glyph-name="dollar" unicode="$" horiz-adv-x="551" 
d="M366 761h99l-20 -75q81 -25 136 -83l-102 -101q-34 33 -73 52l-41 -148q137 -73 137 -184q0 -100 -70.5 -161.5t-177.5 -62.5l-28 -96h-100l32 107q-106 28 -170 108l109 94q47 -55 99 -73l44 159q-68 37 -103 79t-35 109q0 95 68 155t178 61zM257 507q0 -32 28 -55
l33 119q-29 -4 -45 -22.5t-16 -41.5zM348 204q0 27 -27 49l-34 -123q28 7 44.5 27t16.5 47z" />
    <glyph glyph-name="percent" unicode="%" horiz-adv-x="773" 
d="M50 0l325 373l277 327h109l-324 -373l-277 -327h-110zM216 354q-63 0 -100.5 40t-37.5 111q0 96 60 154q48 48 114 48q63 0 101 -40.5t38 -110.5q0 -92 -60 -154q-48 -48 -115 -48zM222 440q21 0 39 16q34 36 34 99q0 32 -13 49.5t-35 17.5t-39 -17q-35 -33 -35 -98
q0 -32 13.5 -49.5t35.5 -17.5zM559 -7q-63 0 -100.5 40t-37.5 111q0 93 59 154q50 48 115 48q63 0 100.5 -40t37.5 -111q0 -95 -59 -154q-50 -48 -115 -48zM565 78q20 0 39 17q34 34 34 98q0 32 -13.5 49.5t-35.5 17.5q-21 0 -39 -16q-34 -36 -34 -99q0 -32 13.5 -49.5
t35.5 -17.5z" />
    <glyph glyph-name="ampersand" unicode="&#x26;" horiz-adv-x="610" 
d="M490 347l96 -63q-47 -81 -95 -139l57 -88l-113 -69l-42 66q-84 -63 -175 -63t-146 49.5t-55 131.5q0 148 170 221q-34 73 -34 131q0 78 55 132.5t147 54.5q78 0 127 -47t49 -114q0 -65 -39.5 -113.5t-130.5 -84.5l66 -105q34 46 63 100zM234 115q46 0 100 37l-91 148
q-84 -49 -84 -115q0 -29 19 -49.5t56 -20.5zM283 522q0 -36 24 -83q50 21 71.5 43.5t21.5 54.5q0 25 -13.5 41.5t-41.5 16.5q-27 0 -44.5 -21t-17.5 -52z" />
    <glyph glyph-name="quotesingle" unicode="'" horiz-adv-x="251" 
d="M93 385l69 315h166l-3 -6l-156 -309h-76z" />
    <glyph glyph-name="parenleft" unicode="(" horiz-adv-x="385" 
d="M197 -140q-161 147 -161 345q0 218 156 374q83 83 201 132l54 -109q-80 -41 -135 -96q-127 -127 -127 -301q0 -134 108 -256z" />
    <glyph glyph-name="parenright" unicode=")" horiz-adv-x="385" 
d="M195 714q161 -147 161 -345q0 -218 -156 -374q-83 -83 -201 -132l-54 109q80 41 135 96q127 127 127 301q0 134 -108 256z" />
    <glyph glyph-name="asterisk" unicode="*" horiz-adv-x="383" 
d="M253 375l-77 20l42 109l-104 -47l-22 78l112 18l-91 70l57 58l70 -91l13 117l77 -20l-42 -109l104 47l22 -78l-112 -18l91 -70l-58 -58l-69 91z" />
    <glyph glyph-name="plus" unicode="+" horiz-adv-x="554" 
d="M173 132l37 152h-152l35 136h152l37 152h139l-38 -152h152l-35 -136h-152l-36 -152h-139z" />
    <glyph glyph-name="comma" unicode="," horiz-adv-x="294" 
d="M-52 -161l-11 64q60 6 89.5 29.5t36.5 67.5h-62l40 159h161l-34 -134q-23 -96 -76.5 -139.5t-143.5 -46.5z" />
    <glyph glyph-name="hyphen" unicode="-" horiz-adv-x="369" 
d="M34 239l37 141h283l-36 -141h-284z" />
    <glyph glyph-name="period" unicode="." horiz-adv-x="294" 
d="M1 0l40 159h161l-40 -159h-161z" />
    <glyph glyph-name="slash" unicode="/" horiz-adv-x="456" 
d="M-120 -119l578 908h139l-579 -908h-138z" />
    <glyph glyph-name="zero" unicode="0" horiz-adv-x="627" 
d="M380 711q106 0 171 -72.5t65 -199.5q0 -97 -34.5 -200t-97.5 -166q-84 -84 -201 -84q-106 0 -170.5 72t-64.5 199q0 98 34.5 201t97.5 166q82 84 200 84zM294 126q41 0 74 33q42 42 67.5 125.5t25.5 155.5q0 134 -91 134q-41 0 -74 -33q-42 -42 -68 -126t-26 -155
q0 -134 92 -134z" />
    <glyph glyph-name="one" unicode="1" horiz-adv-x="394" 
d="M80 0l130 541l-106 -26l1 132l192 57h105l-172 -704h-150z" />
    <glyph glyph-name="two" unicode="2" horiz-adv-x="535" 
d="M-31 0l33 123l287 240q53 44 76 77t23 67q0 32 -18.5 49t-50.5 17t-62.5 -17.5t-71.5 -56.5l-91 98q97 113 233 113q99 0 158 -52t59 -132q0 -73 -34.5 -126.5t-118.5 -119.5l-178 -149h248l-35 -131h-457z" />
    <glyph glyph-name="three" unicode="3" horiz-adv-x="514" 
d="M197 -11q-142 0 -224 106l110 99q56 -69 124 -69q43 0 72 30t29 71q0 86 -113 86h-38v97l171 161h-215l35 130h413l-30 -114l-197 -174q59 -21 92.5 -65t33.5 -108q0 -105 -72 -176q-74 -74 -191 -74z" />
    <glyph glyph-name="four" unicode="4" horiz-adv-x="567" 
d="M257 0l35 148h-272l-10 115l413 442h147l-104 -434h76l-32 -123h-74l-35 -148h-144zM169 271h154l58 236z" />
    <glyph glyph-name="five" unicode="5" horiz-adv-x="527" 
d="M206 -10q-69 0 -127.5 28.5t-95.5 76.5l102 104q64 -71 130 -71q51 0 84.5 34.5t33.5 83.5q0 36 -26 59t-74 23q-34 0 -70 -13l-76 61l97 324h373l-35 -133h-237l-32 -118q27 3 45 3q84 0 137 -50.5t53 -139.5q0 -114 -77 -191q-83 -81 -205 -81z" />
    <glyph glyph-name="six" unicode="6" horiz-adv-x="555" 
d="M263 -11q-99 0 -153 54q-66 66 -66 186q0 97 35.5 210.5t105.5 183.5q88 88 208 88q106 0 187 -70l-85 -115q-56 48 -112 48q-57 0 -98 -41q-46 -46 -69 -123q20 19 56 31.5t72 12.5q77 0 128.5 -46.5t51.5 -134.5q0 -58 -23 -114t-62 -95q-75 -75 -176 -75zM264 117
q40 0 69 29q39 39 39 105q0 40 -21 61t-57 21q-41 0 -70 -29q-39 -41 -39 -102q0 -40 22 -64q23 -21 57 -21z" />
    <glyph glyph-name="seven" unicode="7" horiz-adv-x="526" 
d="M-10 0l385 569h-267l34 131h437l-31 -116l-385 -584h-173z" />
    <glyph glyph-name="eight" unicode="8" horiz-adv-x="566" 
d="M252 -10q-94 0 -161 53t-68 139q-1 148 152 196q-68 50 -68 128q0 80 62 142t170 62q94 0 152.5 -50t58.5 -130q0 -135 -132 -183q89 -50 89 -142q0 -87 -69 -151t-186 -64zM259 112q42 0 71 28.5t30 69.5q1 39 -24 62t-67 23q-41 0 -70 -28.5t-30 -68.5q-1 -38 25 -62
t65 -24zM321 418q35 0 61.5 27t27.5 65q1 33 -18.5 54.5t-59.5 21.5q-35 0 -60.5 -27t-26.5 -64q-1 -33 19 -55t57 -22z" />
    <glyph glyph-name="nine" unicode="9" horiz-adv-x="555" 
d="M205 -11q-112 0 -201 76l87 115q62 -54 123 -54q56 0 97 41q46 48 65 113q-51 -42 -125 -42q-77 0 -128 46t-52 139q0 132 84 214q74 74 177 74q99 0 155 -56q65 -65 65 -198q0 -90 -37 -200.5t-107 -180.5q-87 -87 -203 -87zM301 360q42 0 71 29q38 38 38 105
q0 45 -23 68q-21 21 -55 21q-40 0 -69 -29q-20 -19 -30.5 -49.5t-9.5 -60.5q3 -84 78 -84z" />
    <glyph glyph-name="colon" unicode=":" horiz-adv-x="294" 
d="M1 0l41 159h160l-40 -159h-161zM93 382l41 159h160l-40 -159h-161z" />
    <glyph glyph-name="semicolon" unicode=";" horiz-adv-x="294" 
d="M-52 -161l-11 64q60 6 89.5 29.5t36.5 67.5h-62l41 159h160l-34 -134q-23 -96 -76.5 -139.5t-143.5 -46.5zM93 382l41 159h160l-40 -159h-161z" />
    <glyph glyph-name="less" unicode="&#x3c;" horiz-adv-x="554" 
d="M436 99l-372 184l36 138l462 185l-39 -147l-304 -113l250 -112z" />
    <glyph glyph-name="equal" unicode="=" horiz-adv-x="554" 
d="M43 168l35 135h419l-35 -135h-419zM102 401l35 135h419l-36 -135h-418z" />
    <glyph glyph-name="greater" unicode="&#x3e;" horiz-adv-x="554" 
d="M28 98l40 147l303 113l-250 112l34 135l372 -184l-36 -138z" />
    <glyph glyph-name="question" unicode="?" horiz-adv-x="473" 
d="M146 238l19 168l6 6q85 10 129 37t44 66q0 26 -15.5 40.5t-44.5 14.5q-52 0 -115 -49l-76 109q91 78 207 78q93 0 147.5 -49.5t54.5 -123.5q0 -84 -57 -140t-171 -77l-27 -80h-101zM61 0l40 159h160l-40 -159h-160z" />
    <glyph glyph-name="at" unicode="@" horiz-adv-x="874" 
d="M404 -147q-157 0 -258.5 97t-101.5 259q0 130 57.5 245.5t161.5 187.5t228 72q160 0 256.5 -93.5t96.5 -227.5q0 -147 -66.5 -237.5t-161.5 -90.5q-46 0 -78 22t-44 57q-69 -80 -145 -80q-59 0 -96.5 40.5t-37.5 111.5q0 117 71.5 206t162.5 89q73 0 106 -67l17 57
l108 -30l-73 -240q-14 -46 -14 -69q0 -52 54 -52q58 0 107.5 84.5t49.5 198.5q0 119 -85 200.5t-229 81.5q-114 0 -209 -67.5t-147 -174t-52 -224.5q0 -145 91 -231.5t231 -86.5q95 0 189 46l16 -34q-105 -50 -205 -50zM400 162q44 0 84 52.5t40 120.5q0 34 -16 55t-46 21
q-45 0 -84.5 -54t-39.5 -117q0 -78 62 -78z" />
    <glyph glyph-name="A" unicode="A" horiz-adv-x="658" 
d="M-53 0l419 705h147l75 -705h-155l-12 157h-225l-87 -157h-162zM281 291h125l-11 229z" />
    <glyph glyph-name="B" unicode="B" horiz-adv-x="611" 
d="M3 0l171 700h217q112 0 167.5 -47.5t55.5 -121.5q0 -71 -39 -115.5t-104 -60.5q90 -44 90 -140q0 -101 -78 -158t-210 -57h-270zM185 133h111q54 0 84.5 24.5t30.5 67.5q0 65 -82 65h-109zM253 416h94q116 0 116 89q0 28 -21 45t-64 17h-92z" />
    <glyph glyph-name="C" unicode="C" horiz-adv-x="600" 
d="M338 -10q-130 0 -208 78.5t-78 211.5q0 90 33.5 179t92.5 149q104 102 237 102q147 0 234 -119l-118 -100q-30 40 -59 59.5t-67 19.5q-59 0 -111 -52q-38 -38 -62 -101.5t-24 -131.5q0 -70 35 -112.5t94 -42.5q57 0 120 51l85 -107q-91 -84 -204 -84z" />
    <glyph glyph-name="D" unicode="D" horiz-adv-x="663" 
d="M3 0l171 700h176q152 0 228 -76q72 -71 72 -207q0 -81 -31.5 -163.5t-92.5 -143.5q-110 -110 -311 -110h-212zM456 525q-38 38 -118 38h-48l-101 -426h45q115 0 180 66q39 39 59 96.5t20 112.5q0 76 -37 113z" />
    <glyph glyph-name="E" unicode="E" horiz-adv-x="566" 
d="M3 0l171 700h445l-35 -135h-294l-33 -146h258l-35 -133h-258l-34 -151h300l-36 -135h-449z" />
    <glyph glyph-name="F" unicode="F" horiz-adv-x="556" 
d="M3 0l171 700h452l-36 -138h-300l-34 -152h264l-36 -137h-263l-66 -273h-152z" />
    <glyph glyph-name="G" unicode="G" horiz-adv-x="660" 
d="M337 -10q-54 0 -104 17.5t-91.5 51.5t-66.5 91t-25 128q0 91 33.5 177t94.5 146q109 109 262 109q142 0 236 -92l-108 -108q-66 61 -140 61q-77 0 -137 -60q-38 -39 -61 -101.5t-23 -127.5q0 -71 40 -112.5t100 -41.5q38 0 78 14l29 129h-116l35 131h261l-92 -361
q-95 -51 -205 -51z" />
    <glyph glyph-name="H" unicode="H" horiz-adv-x="652" 
d="M3 0l171 700h152l-67 -278h211l66 278h152l-171 -700h-152l69 282h-211l-68 -282h-152z" />
    <glyph glyph-name="I" unicode="I" horiz-adv-x="304" 
d="M10 0l171 700h152l-171 -700h-152z" />
    <glyph glyph-name="J" unicode="J" horiz-adv-x="479" 
d="M164 -9q-129 0 -202 103l107 100q48 -62 90 -62q31 0 54 23q28 28 49 117l101 428h156l-111 -464q-17 -73 -35.5 -113t-48.5 -70q-62 -62 -160 -62z" />
    <glyph glyph-name="K" unicode="K" horiz-adv-x="621" 
d="M3 0l171 700h152l-71 -298l264 298h195l-290 -296l133 -404h-165l-84 294l-109 -110l-44 -184h-152z" />
    <glyph glyph-name="L" unicode="L" horiz-adv-x="529" 
d="M3 0l171 700h152l-135 -562h277l-36 -138h-429z" />
    <glyph glyph-name="M" unicode="M" horiz-adv-x="748" 
d="M3 0l171 700h161l68 -292l204 292h177l-171 -700h-153l107 456l-222 -301h-4l-79 298l-108 -453h-151z" />
    <glyph glyph-name="N" unicode="N" horiz-adv-x="674" 
d="M3 0l171 700h141l142 -439l104 439h149l-171 -700h-131l-149 454l-106 -454h-150z" />
    <glyph glyph-name="O" unicode="O" horiz-adv-x="697" 
d="M421 711q121 0 192.5 -78.5t71.5 -205.5q0 -91 -34 -184t-96 -155q-99 -99 -241 -99q-121 0 -192.5 78.5t-71.5 205.5q0 91 34.5 184.5t95.5 154.5q99 99 241 99zM333 129q59 0 107 48q40 40 64.5 109.5t24.5 129.5q0 74 -32.5 114.5t-94.5 40.5q-61 0 -107 -48
q-40 -40 -64.5 -109.5t-24.5 -129.5q0 -74 32.5 -114.5t94.5 -40.5z" />
    <glyph glyph-name="P" unicode="P" horiz-adv-x="588" 
d="M3 0l171 700h173q139 0 204 -65q54 -54 54 -146q0 -115 -75 -190q-90 -88 -241 -88h-84l-50 -211h-152zM424 538q-26 25 -84 25h-50l-51 -220h58q72 0 113 41q36 36 36 94q0 36 -22 60z" />
    <glyph glyph-name="Q" unicode="Q" horiz-adv-x="697" 
d="M497 -43l-36 64q-67 -32 -147 -32q-121 0 -192.5 78.5t-71.5 205.5q0 91 34.5 184.5t95.5 154.5q99 99 241 99q121 0 192.5 -78.5t71.5 -205.5q0 -83 -29 -169t-81 -149l48 -70zM333 129q29 0 56 11l-74 109l126 83l48 -85q40 83 40 169q0 74 -32 114.5t-95 40.5
q-62 0 -107 -47q-40 -40 -64.5 -110t-24.5 -130q0 -74 32 -114.5t95 -40.5z" />
    <glyph glyph-name="R" unicode="R" horiz-adv-x="626" 
d="M366 0l-85 222h-74l-52 -222h-152l171 700h201q139 0 204 -65q54 -56 54 -144q0 -109 -65 -176q-17 -17 -26.5 -25.5t-38 -24.5t-63.5 -26l96 -239h-170zM243 355h81q79 0 119 39q32 34 32 85q0 37 -23 59q-24 25 -87 25h-74z" />
    <glyph glyph-name="S" unicode="S" horiz-adv-x="540" 
d="M244 -10q-163 0 -258 128l113 98q81 -92 152 -92q32 0 52 18t20 45q0 22 -19 44.5t-71 60.5q-67 50 -100 95.5t-33 100.5q0 89 60 151q71 71 176 71q133 0 230 -104l-104 -105q-70 75 -131 75q-33 0 -51.5 -18t-18.5 -43q0 -23 18 -44.5t71 -59.5q66 -48 100 -94t34 -105
q0 -91 -63 -154q-68 -68 -177 -68z" />
    <glyph glyph-name="T" unicode="T" horiz-adv-x="522" 
d="M119 0l134 560h-173l37 140h498l-37 -140h-173l-135 -560h-151z" />
    <glyph glyph-name="U" unicode="U" horiz-adv-x="657" 
d="M287 -11q-104 0 -165 55t-61 156q0 45 17 108l94 392h151l-97 -403q-11 -44 -11 -76q0 -43 24 -67.5t64 -24.5q51 0 84 31q37 37 55 112l103 428h151l-108 -449q-32 -127 -94 -189q-73 -73 -207 -73z" />
    <glyph glyph-name="V" unicode="V" horiz-adv-x="625" 
d="M174 -5l-59 705h162l19 -482l248 482h169l-404 -705h-135z" />
    <glyph glyph-name="W" unicode="W" horiz-adv-x="966" 
d="M145 -5l-26 705h156l-3 -470l238 472h132l20 -472l218 470h171l-371 -705h-142l-20 450l-232 -450h-141z" />
    <glyph glyph-name="X" unicode="X" horiz-adv-x="597" 
d="M-52 0l287 366l-111 334h169l51 -219l148 219h191l-278 -351l117 -349h-169l-59 236l-157 -236h-189z" />
    <glyph glyph-name="Y" unicode="Y" horiz-adv-x="553" 
d="M130 0l68 282l-111 418h167l51 -281l185 281h180l-322 -429l-67 -271h-151z" />
    <glyph glyph-name="Z" unicode="Z" horiz-adv-x="586" 
d="M-19 0l30 116l403 452h-290l35 132h486l-30 -116l-404 -452h303l-34 -132h-499z" />
    <glyph glyph-name="bracketleft" unicode="[" horiz-adv-x="411" 
d="M-13 -130l202 830h282l-30 -117h-138l-146 -596h142l-31 -117h-281z" />
    <glyph glyph-name="backslash" unicode="\" horiz-adv-x="456" 
d="M262 -119l-156 908h123l156 -908h-123z" />
    <glyph glyph-name="bracketright" unicode="]" horiz-adv-x="411" 
d="M430 700l-202 -830h-282l30 117h138l146 596h-142l31 117h281z" />
    <glyph glyph-name="asciicircum" unicode="^" horiz-adv-x="439" 
d="M80 505l168 190h101l74 -190h-96l-44 98l-89 -98h-114z" />
    <glyph glyph-name="underscore" unicode="_" horiz-adv-x="555" 
d="M-105 -160l29 114h558l-29 -114h-558z" />
    <glyph glyph-name="grave" unicode="`" horiz-adv-x="500" 
d="M337 589l-95 118l127 56l70 -174h-102z" />
    <glyph glyph-name="a" unicode="a" horiz-adv-x="513" 
d="M135 -9q-63 0 -99 40t-36 102q0 86 55 141q57 57 155 57q56 0 117 -23l2 9q7 30 7 49q0 53 -77 53q-52 0 -117 -29l-33 119q82 37 176 37q96 0 146.5 -38.5t50.5 -108.5q0 -41 -16 -105l-70 -294h-145l13 56q-57 -65 -129 -65zM201 92q36 0 62 29.5t36 70.5l8 35
q-34 15 -68 15q-42 0 -65 -25q-26 -26 -26 -69q0 -25 14.5 -40.5t38.5 -15.5z" />
    <glyph glyph-name="b" unicode="b" horiz-adv-x="581" 
d="M288 -8q-88 0 -134 79l-16 -71h-148l174 722h150l-56 -235q65 63 128 63q70 0 117 -57.5t47 -160.5q0 -78 -26.5 -149.5t-74.5 -119.5q-73 -71 -161 -71zM265 117q38 0 69 31q63 63 63 172q0 49 -20.5 77t-59.5 28t-70 -31q-29 -29 -45.5 -76.5t-16.5 -96.5t22 -76.5
t58 -27.5z" />
    <glyph glyph-name="c" unicode="c" horiz-adv-x="466" 
d="M245 -10q-98 0 -155.5 61.5t-57.5 165.5q0 73 26 140t72 113q81 79 183 79q67 0 109.5 -24.5t73.5 -71.5l-109 -87q-36 56 -77 56q-36 0 -67 -31q-29 -29 -46.5 -77.5t-17.5 -94.5q0 -49 20 -76t53 -27q34 0 85 41l74 -95q-76 -72 -166 -72z" />
    <glyph glyph-name="d" unicode="d" horiz-adv-x="581" 
d="M310 0l13 54q-65 -62 -128 -62q-70 0 -117 57.5t-47 160.5q0 77 26.5 149t74.5 120q71 71 161 71q88 0 134 -79l59 251h150l-177 -722h-149zM264 117q39 0 70 31q29 29 45.5 76.5t16.5 96.5t-22 76.5t-58 27.5q-38 0 -69 -31q-63 -63 -63 -172q0 -49 20.5 -77t59.5 -28z
" />
    <glyph glyph-name="e" unicode="e" horiz-adv-x="528" 
d="M480 217h-310q2 -51 24.5 -79.5t64.5 -28.5q48 0 102 39l63 -100q-75 -58 -172 -58q-104 0 -162 63t-58 172q0 70 26.5 135.5t73.5 112.5q77 77 182 77q87 0 139.5 -55.5t52.5 -145.5q0 -62 -26 -132zM231 398q-30 -30 -48 -88h180q6 23 6 47q0 33 -17 53t-49 20
q-40 0 -72 -32z" />
    <glyph glyph-name="f" unicode="f" horiz-adv-x="361" 
d="M12 0l100 413h-57l34 128h55l4 18q20 84 60 123q49 48 141 48q48 0 85 -11l-32 -123q-23 7 -48 7q-45 0 -58 -47l-4 -15h97l-34 -128h-93l-100 -413h-150z" />
    <glyph glyph-name="g" unicode="g" horiz-adv-x="578" 
d="M210 -152q-136 0 -242 72l72 103q81 -58 160 -58q52 0 86 34q26 26 40 81l8 30q-68 -69 -140 -69q-69 0 -115 47t-46 132q0 71 27.5 141t75.5 118q71 71 155 71q91 0 129 -87l19 78h149l-108 -449q-30 -126 -85 -181q-63 -63 -185 -63zM255 159q41 0 74 33q22 22 38 61
t16 84q0 42 -20 65.5t-53 23.5q-37 0 -68 -31q-26 -26 -41 -69.5t-15 -82.5q0 -84 69 -84z" />
    <glyph glyph-name="h" unicode="h" horiz-adv-x="543" 
d="M-10 0l174 722h150l-55 -231q61 59 126 59q59 0 94.5 -36.5t35.5 -101.5q0 -35 -18 -109l-73 -303h-150l74 304q9 36 9 58q0 52 -52 52q-33 0 -55.5 -25t-31.5 -66l-79 -323h-149z" />
    <glyph glyph-name="i" unicode="i" horiz-adv-x="272" 
d="M-5 0l133 541h149l-132 -541h-150zM136 593l36 136h155l-36 -136h-155z" />
    <glyph glyph-name="j" unicode="j" horiz-adv-x="274" 
d="M-39 -153q-48 0 -84 12l31 113q15 -5 30 -5q55 0 69 65l123 509h149l-128 -530q-22 -90 -68.5 -127t-121.5 -37zM138 593l35 136h155l-35 -136h-155z" />
    <glyph glyph-name="k" unicode="k" horiz-adv-x="511" 
d="M-10 0l176 722h150l-84 -354l154 173h189l-217 -203l89 -338h-165l-49 234l-50 -54l-44 -180h-149z" />
    <glyph glyph-name="l" unicode="l" horiz-adv-x="272" 
d="M-5 0l177 722h149l-176 -722h-150z" />
    <glyph glyph-name="m" unicode="m" horiz-adv-x="827" 
d="M-10 0l132 541h149l-12 -50q63 59 125 59q88 0 118 -86q73 86 163 86q63 0 98.5 -35t35.5 -95q0 -47 -17 -117l-74 -303h-149l74 306q9 36 9 58q0 50 -52 50q-32 0 -55 -24t-32 -63l-80 -327h-149l74 305q9 36 9 58q0 51 -52 51q-66 0 -87 -91l-79 -323h-149z" />
    <glyph glyph-name="n" unicode="n" horiz-adv-x="539" 
d="M-10 0l132 541h149l-12 -50q61 59 126 59q59 0 94.5 -36.5t35.5 -101.5q0 -35 -18 -109l-73 -303h-150l74 304q9 36 9 58q0 52 -52 52q-33 0 -55.5 -25t-31.5 -66l-79 -323h-149z" />
    <glyph glyph-name="o" unicode="o" horiz-adv-x="561" 
d="M309 550q102 0 161 -64.5t59 -169.5q0 -71 -26 -137.5t-72 -113.5q-76 -76 -178 -76q-101 0 -160.5 64.5t-59.5 169.5q0 72 26 138.5t72 112.5q76 76 178 76zM259 117q36 0 64 28t44.5 76t16.5 91q0 54 -21.5 82t-59.5 28q-36 0 -64 -28t-44.5 -76t-16.5 -91
q0 -54 21.5 -82t59.5 -28z" />
    <glyph glyph-name="p" unicode="p" horiz-adv-x="581" 
d="M288 -8q-88 0 -134 79l-52 -221h-149l169 691h149l-13 -54q65 63 128 63q70 0 117 -57.5t47 -160.5q0 -78 -26.5 -149.5t-74.5 -119.5q-73 -71 -161 -71zM265 117q38 0 69 31q63 63 63 172q0 49 -20.5 77t-59.5 28t-70 -31q-29 -29 -45.5 -76.5t-16.5 -96.5t22 -76.5
t58 -27.5z" />
    <glyph glyph-name="q" unicode="q" horiz-adv-x="581" 
d="M195 -8q-70 0 -117 57.5t-47 160.5q0 77 26.5 148.5t74.5 119.5q72 72 162 72q87 0 133 -79l15 70h150l-168 -691h-150l49 204q-65 -62 -128 -62zM264 117q39 0 70 31q29 29 45.5 76.5t16.5 96.5t-22 76.5t-58 27.5q-38 0 -69 -31q-63 -63 -63 -172q0 -49 20.5 -77
t59.5 -28z" />
    <glyph glyph-name="r" unicode="r" horiz-adv-x="365" 
d="M-10 0l132 541h149l-21 -85q33 51 71.5 75t91.5 19l-42 -155h-8q-66 0 -106.5 -36t-60.5 -121l-57 -238h-149z" />
    <glyph glyph-name="s" unicode="s" horiz-adv-x="427" 
d="M183 -10q-122 0 -213 99l86 90q70 -76 130 -76q23 0 36.5 12t13.5 30q0 19 -14.5 33t-60.5 47q-54 39 -79 73.5t-25 80.5q0 70 52.5 120t138.5 50q105 0 188 -83l-79 -95q-68 65 -116 65q-18 0 -30.5 -11t-12.5 -28q0 -18 14 -32t60 -46q58 -39 82 -76.5t24 -82.5
q0 -72 -55 -121t-140 -49z" />
    <glyph glyph-name="t" unicode="t" horiz-adv-x="358" 
d="M158 -7q-57 0 -87.5 28t-30.5 76q0 22 11 70l60 246h-58l33 128h56l32 132h150l-32 -132h95l-33 -128h-93l-60 -243q-3 -14 -3 -22q0 -23 30 -23q33 0 63 15l-32 -126q-40 -21 -101 -21z" />
    <glyph glyph-name="u" unicode="u" horiz-adv-x="543" 
d="M554 541l-132 -541h-149l12 50q-61 -59 -126 -59q-59 0 -94.5 36.5t-35.5 101.5q0 35 18 109l73 303h150l-74 -304q-9 -36 -9 -58q0 -52 52 -52q33 0 55.5 25t31.5 66l79 323h149z" />
    <glyph glyph-name="v" unicode="v" horiz-adv-x="521" 
d="M124 -4l-44 545h152l6 -357l173 357h158l-309 -545h-136z" />
    <glyph glyph-name="w" unicode="w" horiz-adv-x="751" 
d="M88 -4l-5 545h151l-15 -329l156 330h131l2 -331l142 330h147l-274 -545h-135l-4 331l-161 -331h-135z" />
    <glyph glyph-name="x" unicode="x" horiz-adv-x="504" 
d="M242 541l38 -150l95 150h174l-215 -272l92 -269h-157l-40 161l-103 -161h-173l223 283l-90 258h156z" />
    <glyph glyph-name="y" unicode="y" horiz-adv-x="517" 
d="M129 -5l-40 546h152l1 -364l162 364h159l-286 -549q-41 -78 -81.5 -111.5t-98.5 -33.5q-70 0 -119 47l71 99q26 -22 47 -22t33 24z" />
    <glyph glyph-name="z" unicode="z" horiz-adv-x="467" 
d="M-28 0l27 107l282 314h-205l31 120h387l-27 -107l-284 -313h214l-31 -121h-394z" />
    <glyph glyph-name="braceleft" unicode="{" horiz-adv-x="424" 
d="M265 -140q-95 19 -134.5 50t-39.5 87q0 32 26 93t26 87q0 54 -87 54h-26l30 113h27q70 0 98 28q32 34 31 116q0 115 54 168q62 60 194 59l12 -100q-77 -9 -104 -34q-19 -18 -24.5 -46t-4.5 -88q0 -87 -37 -124q-39 -39 -113 -48q42 -7 64 -31.5t22 -59.5q0 -34 -26 -93
q-24 -50 -24 -70q0 -23 16.5 -36t66.5 -31z" />
    <glyph glyph-name="bar" unicode="|" horiz-adv-x="329" 
d="M10 -119l223 908h117l-224 -908h-116z" />
    <glyph glyph-name="braceright" unicode="}" horiz-adv-x="424" 
d="M167 715q95 -19 134.5 -50t39.5 -87q0 -32 -26 -93t-26 -87q0 -54 87 -54h26l-30 -113h-27q-70 0 -98 -28q-32 -34 -31 -116q0 -115 -54 -168q-62 -60 -194 -59l-12 100q77 9 104 34q19 18 24.5 46t4.5 88q0 87 37 124q39 39 113 48q-42 7 -64 31.5t-22 59.5q0 34 26 93
q24 50 24 70q0 23 -16.5 36t-66.5 31z" />
    <glyph glyph-name="asciitilde" unicode="~" horiz-adv-x="459" 
d="M120 222l-77 38q24 58 60.5 92.5t79.5 34.5q39 0 72 -26q32 -24 48 -24q36 0 63 55l77 -38q-24 -58 -60.5 -92.5t-79.5 -34.5q-38 0 -72 26q-32 24 -48 24q-35 0 -63 -55z" />
    <glyph glyph-name="uni00A0" unicode="&#xa0;" horiz-adv-x="224" 
 />
    <glyph glyph-name="exclamdown" unicode="&#xa1;" horiz-adv-x="307" 
d="M239 462l-61 -442l-4 -20h-176l4 20l155 442h82zM337 700l-40 -159h-160l40 159h160z" />
    <glyph glyph-name="cent" unicode="&#xa2;" horiz-adv-x="504" 
d="M375 705h99l-32 -94q52 -25 89 -82l-105 -78q-17 21 -31 32l-90 -282q40 5 82 35l69 -97q-81 -66 -174 -66h-16l-27 -79h-99l35 101q-119 56 -119 217q0 71 24 136t67 108q75 77 191 77h12zM202 316q0 -55 24 -85l84 272q-28 -7 -52 -31q-26 -26 -41 -70.5t-15 -85.5z
" />
    <glyph glyph-name="sterling" unicode="&#xa3;" horiz-adv-x="552" 
d="M-17 0l26 99l71 25l36 150h-69l32 123h66l25 106q23 95 74 146q61 61 163 61q62 0 111 -29t78 -78l-118 -86q-33 53 -80 53q-29 0 -50 -21q-23 -24 -34 -71l-18 -81h179l-32 -123h-177l-33 -143h248l-34 -131h-464z" />
    <glyph glyph-name="yen" unicode="&#xa5;" horiz-adv-x="601" 
d="M162 0l23 97h-149l27 105h148l15 62h-149l28 105h112l-92 331h161l50 -256l172 256h177l-255 -331h117l-27 -105h-149l-16 -62h151l-28 -105h-148l-24 -97h-144z" />
    <glyph glyph-name="section" unicode="&#xa7;" horiz-adv-x="549" 
d="M535 363q0 -55 -36.5 -87.5t-86.5 -43.5q30 -36 30 -87q0 -64 -54 -108.5t-147 -44.5q-131 0 -206 83l87 88q61 -59 122 -59q27 0 41.5 10.5t14.5 25.5q0 17 -15 26.5t-67 29.5q-41 15 -64.5 26t-49.5 28t-37.5 39t-11.5 51q0 55 36 87t86 43q-29 35 -29 88
q0 64 54 108.5t147 44.5q131 0 206 -83l-87 -88q-61 59 -122 59q-27 0 -41.5 -10.5t-14.5 -25.5q0 -17 15 -26.5t67 -29.5q41 -15 64.5 -26t49.5 -28t37.5 -39t11.5 -51zM195 366q0 -13 8 -23t17 -15.5t29 -14.5q66 -25 93 -25q21 0 37 13t16 36q0 18 -12.5 29t-42.5 24
q-65 25 -93 25q-20 0 -36 -13.5t-16 -35.5z" />
    <glyph glyph-name="dieresis" unicode="&#xa8;" horiz-adv-x="500" 
d="M167 592l33 130h139l-34 -130h-138zM359 592l34 130h138l-33 -130h-139z" />
    <glyph glyph-name="copyright" unicode="&#xa9;" horiz-adv-x="736" 
d="M361 152q-67 0 -108 44t-41 118q0 51 19.5 101t53.5 83q57 57 133 57q81 0 130 -72l-67 -52q-18 23 -33 34t-37 11q-36 0 -64 -28q-20 -20 -33.5 -56.5t-13.5 -73.5q0 -41 18.5 -64.5t49.5 -23.5q35 0 77 34l45 -60q-57 -52 -129 -52zM712 409q0 -89 -32 -174t-91 -145
q-102 -102 -242 -102q-130 0 -208.5 86.5t-78.5 216.5q0 89 32 174.5t91 144.5q102 102 242 102q130 0 208.5 -86.5t78.5 -216.5zM100 294q0 -114 66 -190t181 -76q125 0 211 86q56 56 84.5 134.5t28.5 159.5q1 113 -65 188.5t-182 75.5q-126 0 -210 -86q-56 -55 -84.5 -133
t-29.5 -159z" />
    <glyph glyph-name="ordfeminine" unicode="&#xaa;" horiz-adv-x="347" 
d="M172 398q-34 0 -55.5 21.5t-21.5 56.5q0 48 32 79t81 31q32 0 69 -14l3 11q3 11 3 20q0 31 -40 31q-33 0 -70 -15l-20 65q52 20 103 20t78.5 -23.5t27.5 -63.5q0 -19 -7 -50l-40 -163h-79l7 28q-32 -34 -71 -34zM208 454q19 0 34 16t21 41l4 16q-20 8 -42 8
q-23 0 -36 -14.5t-13 -34.5q-1 -15 8 -23.5t24 -8.5zM50 286l16 62h242l-16 -62h-242z" />
    <glyph glyph-name="guillemotleft" unicode="&#xab;" horiz-adv-x="589" 
d="M153 33l-112 222l2 8l230 230l74 -73l-151 -174l66 -166zM397 33l-111 222l2 8l230 230l74 -73l-151 -174l66 -166z" />
    <glyph glyph-name="registered" unicode="&#xae;" horiz-adv-x="336" 
d="M253 712q64 0 102 -41.5t38 -104.5q0 -96 -61 -157q-50 -50 -120 -50q-64 0 -102.5 41.5t-38.5 104.5q0 95 61 156q51 51 121 51zM214 377q59 0 103 44q57 57 57 143q0 55 -32.5 92t-90.5 37q-60 0 -103 -43q-57 -57 -57 -144q0 -55 32.5 -92t90.5 -37zM205 501l-13 -57
h-50l46 189h58q75 0 75 -59q0 -45 -48 -65l23 -65h-51l-20 57h-20zM216 542h18q22 0 31 9q7 7 7 18q0 21 -28 21h-17z" />
    <glyph glyph-name="macron" unicode="&#xaf;" horiz-adv-x="500" 
d="M168 589l27 102h318l-26 -102h-319z" />
    <glyph glyph-name="degree" unicode="&#xb0;" horiz-adv-x="409" 
d="M265 707q65 0 103 -41t38 -107q0 -86 -60 -146q-48 -48 -116 -48q-66 0 -104 41t-38 107q0 86 60 146q48 48 117 48zM233 438q34 0 59 25q36 36 36 92q0 36 -17.5 57.5t-49.5 21.5q-34 0 -58 -24q-37 -37 -37 -93q0 -36 18 -57.5t49 -21.5z" />
    <glyph glyph-name="plusminus" unicode="&#xb1;" horiz-adv-x="554" 
d="M200 224l37 148l-154 -1l33 129l153 -1l36 148h132l-37 -148l154 1l-33 -129l-154 1l-34 -148h-133zM-2 30l32 124h438l-32 -124h-438z" />
    <glyph glyph-name="two.sup" unicode="&#xb2;" 
d="M81 432l19 72l174 134q46 38 46 65q0 15 -11.5 24.5t-30.5 9.5q-38 0 -85 -42l-51 60q62 62 139 62q59 0 94 -30t35 -77q0 -36 -17.5 -64.5t-75.5 -68.5l-98 -70h147l-19 -75h-266z" />
    <glyph glyph-name="three.sup" unicode="&#xb3;" 
d="M227 424q-86 0 -140 56l54 61q2 -2 10 -8t11 -8t10 -7t12 -7t12.5 -4.5t15.5 -3.5t17 -1q26 0 43 16t17 35q0 42 -76 44h-22v53l109 83h-132l19 77h247l-16 -64l-126 -93q86 -17 86 -94q0 -59 -42 -97t-109 -38z" />
    <glyph glyph-name="acute" unicode="&#xb4;" horiz-adv-x="500" 
d="M209 589l149 174l122 -56l-150 -118h-121z" />
    <glyph glyph-name="paragraph" unicode="&#xb6;" horiz-adv-x="549" 
d="M264 0l49 211q-127 3 -186 62q-55 55 -55 151q0 114 77 191q85 85 253 85h183l-171 -700h-150z" />
    <glyph glyph-name="periodcentered" unicode="&#xb7;" horiz-adv-x="295" 
d="M52 230l40 160h162l-41 -160h-161z" />
    <glyph glyph-name="cedilla" unicode="&#xb8;" horiz-adv-x="500" 
d="M172 -160l-112 51l109 119h108z" />
    <glyph glyph-name="one.sup" unicode="&#xb9;" horiz-adv-x="287" 
d="M161 432l69 284l-73 -28l-7 75l125 49h64l-93 -380h-85z" />
    <glyph glyph-name="ordmasculine" unicode="&#xba;" horiz-adv-x="359" 
d="M51 286l16 62h245l-17 -62h-244zM176 526q0 -26 12 -42.5t34 -16.5q21 0 38 17q33 32 33 92q0 26 -12 42.5t-34 16.5q-21 0 -38 -17q-33 -33 -33 -92zM373 577q0 -84 -56 -138q-39 -41 -98 -41q-57 0 -90 34.5t-33 92.5q0 84 56 138q42 42 98 42q57 0 90 -35t33 -93z" />
    <glyph glyph-name="guillemotright" unicode="&#xbb;" horiz-adv-x="589" 
d="M433 493l112 -222l-2 -8l-230 -230l-74 73l151 174l-66 166zM189 493l111 -222l-2 -8l-230 -230l-74 73l151 174l-66 166z" />
    <glyph glyph-name="onequarter" unicode="&#xbc;" horiz-adv-x="728" 
d="M119 322l68 285l-73 -29l-6 75l124 50h64l-92 -381h-85zM16 0l312 367l273 333h86l-312 -367l-273 -333h-86zM490 0l19 77h-172l18 79l218 226h90l-58 -238h46l-18 -67h-46l-19 -77h-78zM429 143h98l31 138h-2z" />
    <glyph glyph-name="onehalf" unicode="&#xbd;" horiz-adv-x="728" 
d="M334 0l19 72l174 134q46 38 46 65q0 15 -11.5 24.5t-30.5 9.5q-38 0 -85 -42l-51 60q62 62 139 62q59 0 94 -30t35 -77q0 -36 -17.5 -64.5t-75.5 -68.5l-98 -70h147l-19 -75h-266zM1 0l312 367l273 333h86l-312 -367l-273 -333h-86zM119 322l68 285l-73 -29l-6 75l124 50
h64l-92 -381h-85z" />
    <glyph glyph-name="threequarters" unicode="&#xbe;" horiz-adv-x="794" 
d="M557 0l19 77h-172l18 79l218 226h90l-58 -238h46l-18 -67h-46l-19 -77h-78zM496 143h98l31 138h-2zM80 0l312 367l273 333h86l-312 -367l-273 -333h-86zM180 314q-84 0 -140 56l54 61q2 -1 9 -7t9.5 -7.5t9 -6t10 -6l10.5 -4.5t12.5 -4t13 -2t15.5 -1q26 0 43 15.5
t17 34.5q0 44 -77 44h-22v53l109 83h-132l20 77h247l-17 -64l-126 -92q86 -19 86 -95q0 -59 -42 -97t-109 -38z" />
    <glyph glyph-name="questiondown" unicode="&#xbf;" horiz-adv-x="473" 
d="M365 462l-19 -168l-6 -6q-85 -10 -129 -37t-44 -66q0 -26 15.5 -40.5t44.5 -14.5q52 0 115 49l76 -109q-91 -78 -207 -78q-93 0 -147.5 49.5t-54.5 123.5q0 84 57 140t171 77l27 80h101zM450 700l-40 -159h-160l40 159h160z" />
    <glyph glyph-name="Agrave" unicode="&#xc0;" horiz-adv-x="658" 
d="M-53 0l419 705h147l75 -705h-155l-12 157h-225l-87 -157h-162zM281 291h125l-11 229zM398 755l-109 98l131 55l81 -153h-103z" />
    <glyph glyph-name="Aacute" unicode="&#xc1;" horiz-adv-x="658" 
d="M-53 0l419 705h147l75 -705h-155l-12 157h-225l-87 -157h-162zM281 291h125l-11 229zM388 755l151 153l123 -55l-151 -98h-123z" />
    <glyph glyph-name="Acircumflex" unicode="&#xc2;" horiz-adv-x="658" 
d="M-53 0l419 705h147l75 -705h-155l-12 157h-225l-87 -157h-162zM281 291h125l-11 229zM255 752l154 144h142l83 -144h-109l-59 55l-86 -55h-125z" />
    <glyph glyph-name="Atilde" unicode="&#xc3;" horiz-adv-x="658" 
d="M-53 0l419 705h147l75 -705h-155l-12 157h-225l-87 -157h-162zM281 291h125l-11 229zM341 750l-79 28q28 64 57.5 95.5t76.5 31.5q36 0 87 -22q31 -17 50 -17q33 0 60 45l80 -28q-29 -64 -58.5 -95.5t-76.5 -31.5q-36 0 -87 22q-32 17 -50 17q-33 0 -60 -45z" />
    <glyph glyph-name="Adieresis" unicode="&#xc4;" horiz-adv-x="658" 
d="M-53 0l419 705h147l75 -705h-155l-12 157h-225l-87 -157h-162zM281 291h125l-11 229zM287 758l31 123h139l-32 -123h-138zM482 758l32 123h139l-32 -123h-139z" />
    <glyph glyph-name="Aring" unicode="&#xc5;" horiz-adv-x="658" 
d="M-53 0l401 675q-16 24 -16 50q0 48 33 81.5t93 33.5q45 0 76 -27.5t31 -65.5q0 -59 -46 -92l69 -655h-155l-12 157h-225l-87 -157h-162zM281 291h125l-11 229zM442 684q30 0 47 18t17 39t-14.5 34.5t-36.5 13.5q-30 0 -47 -18.5t-17 -40.5q0 -20 14 -33t37 -13z" />
    <glyph glyph-name="AE" unicode="&#xc6;" horiz-adv-x="887" 
d="M-66 0l479 700h532l-36 -135h-277l-32 -146h241l-35 -133h-241l-35 -151h283l-35 -135h-432l37 157h-186l-101 -157h-162zM298 291h120l65 278h-14z" />
    <glyph glyph-name="Ccedilla" unicode="&#xc7;" horiz-adv-x="600" 
d="M230 -160l-112 51l107 117q-81 30 -127 100.5t-46 171.5q0 90 33.5 179t92.5 149q104 102 237 102q147 0 234 -119l-118 -100q-30 40 -59 59.5t-67 19.5q-59 0 -111 -52q-38 -38 -62 -101.5t-24 -131.5q0 -70 35 -112.5t94 -42.5q57 0 120 51l85 -107q-91 -84 -204 -84
h-15z" />
    <glyph glyph-name="Egrave" unicode="&#xc8;" horiz-adv-x="566" 
d="M352 747l-109 98l131 55l81 -153h-103zM3 0l171 700h445l-35 -135h-294l-33 -146h258l-35 -133h-258l-34 -151h300l-36 -135h-449z" />
    <glyph glyph-name="Eacute" unicode="&#xc9;" horiz-adv-x="566" 
d="M341 747l151 153l123 -55l-151 -98h-123zM3 0l171 700h445l-35 -135h-294l-33 -146h258l-35 -133h-258l-34 -151h300l-36 -135h-449z" />
    <glyph glyph-name="Ecircumflex" unicode="&#xca;" horiz-adv-x="566" 
d="M3 0l171 700h445l-35 -135h-294l-33 -146h258l-35 -133h-258l-34 -151h300l-36 -135h-449zM211 749l154 144h142l83 -144h-109l-59 55l-86 -55h-125z" />
    <glyph glyph-name="Edieresis" unicode="&#xcb;" horiz-adv-x="566" 
d="M240 750l31 123h139l-32 -123h-138zM435 750l32 123h139l-32 -123h-139zM3 0l171 700h445l-35 -135h-294l-33 -146h258l-35 -133h-258l-34 -151h300l-36 -135h-449z" />
    <glyph glyph-name="Igrave" unicode="&#xcc;" horiz-adv-x="304" 
d="M10 0l171 700h152l-171 -700h-152zM214 747l-109 98l131 55l81 -153h-103z" />
    <glyph glyph-name="Iacute" unicode="&#xcd;" horiz-adv-x="304" 
d="M10 0l171 700h152l-171 -700h-152zM204 747l151 153l123 -55l-151 -98h-123z" />
    <glyph glyph-name="Icircumflex" unicode="&#xce;" horiz-adv-x="304" 
d="M10 0l171 700h152l-171 -700h-152zM73 749l154 144h142l83 -144h-109l-59 55l-86 -55h-125z" />
    <glyph glyph-name="Idieresis" unicode="&#xcf;" horiz-adv-x="304" 
d="M10 0l171 700h152l-171 -700h-152zM103 750l31 123h139l-32 -123h-138zM298 750l32 123h139l-32 -123h-139z" />
    <glyph glyph-name="Eth" unicode="&#xd0;" horiz-adv-x="676" 
d="M7 285l35 134h76l69 281h175q151 0 229 -76q71 -71 71 -207q0 -81 -31 -163.5t-92 -143.5q-110 -110 -312 -110h-211l69 285h-78zM468 525q-36 38 -118 38h-47l-34 -144h100l-36 -134h-96l-35 -148h44q115 0 180 66q39 39 59.5 97t20.5 112q0 77 -38 113z" />
    <glyph glyph-name="Ntilde" unicode="&#xd1;" horiz-adv-x="674" 
d="M341 742l-79 28q28 64 57.5 95.5t76.5 31.5q36 0 87 -22q31 -17 50 -17q33 0 60 45l80 -28q-29 -64 -58.5 -95.5t-76.5 -31.5q-36 0 -87 22q-32 17 -50 17q-33 0 -60 -45zM3 0l171 700h141l142 -439l104 439h149l-171 -700h-131l-149 454l-106 -454h-150z" />
    <glyph glyph-name="Ograve" unicode="&#xd2;" horiz-adv-x="697" 
d="M406 755l-109 98l131 55l81 -153h-103zM421 711q121 0 192.5 -78.5t71.5 -205.5q0 -91 -34 -184t-96 -155q-99 -99 -241 -99q-121 0 -192.5 78.5t-71.5 205.5q0 91 34.5 184.5t95.5 154.5q99 99 241 99zM333 129q59 0 107 48q40 40 64.5 109.5t24.5 129.5
q0 74 -32.5 114.5t-94.5 40.5q-61 0 -107 -48q-40 -40 -64.5 -109.5t-24.5 -129.5q0 -74 32.5 -114.5t94.5 -40.5z" />
    <glyph glyph-name="Oacute" unicode="&#xd3;" horiz-adv-x="697" 
d="M388 755l151 153l123 -55l-151 -98h-123zM421 711q121 0 192.5 -78.5t71.5 -205.5q0 -91 -34 -184t-96 -155q-99 -99 -241 -99q-121 0 -192.5 78.5t-71.5 205.5q0 91 34.5 184.5t95.5 154.5q99 99 241 99zM333 129q59 0 107 48q40 40 64.5 109.5t24.5 129.5
q0 74 -32.5 114.5t-94.5 40.5q-61 0 -107 -48q-40 -40 -64.5 -109.5t-24.5 -129.5q0 -74 32.5 -114.5t94.5 -40.5z" />
    <glyph glyph-name="Ocircumflex" unicode="&#xd4;" horiz-adv-x="697" 
d="M421 711q121 0 192.5 -78.5t71.5 -205.5q0 -91 -34 -184t-96 -155q-99 -99 -241 -99q-121 0 -192.5 78.5t-71.5 205.5q0 91 34.5 184.5t95.5 154.5q99 99 241 99zM333 129q59 0 107 48q40 40 64.5 109.5t24.5 129.5q0 74 -32.5 114.5t-94.5 40.5q-61 0 -107 -48
q-40 -40 -64.5 -109.5t-24.5 -129.5q0 -74 32.5 -114.5t94.5 -40.5zM265 757l154 144h142l83 -144h-109l-59 55l-86 -55h-125z" />
    <glyph glyph-name="Otilde" unicode="&#xd5;" horiz-adv-x="697" 
d="M350 750l-79 28q28 64 57.5 95.5t76.5 31.5q36 0 87 -22q31 -17 50 -17q33 0 60 45l80 -28q-29 -64 -58.5 -95.5t-76.5 -31.5q-36 0 -87 22q-32 17 -50 17q-33 0 -60 -45zM421 711q121 0 192.5 -78.5t71.5 -205.5q0 -91 -34 -184t-96 -155q-99 -99 -241 -99
q-121 0 -192.5 78.5t-71.5 205.5q0 91 34.5 184.5t95.5 154.5q99 99 241 99zM333 129q59 0 107 48q40 40 64.5 109.5t24.5 129.5q0 74 -32.5 114.5t-94.5 40.5q-61 0 -107 -48q-40 -40 -64.5 -109.5t-24.5 -129.5q0 -74 32.5 -114.5t94.5 -40.5z" />
    <glyph glyph-name="Odieresis" unicode="&#xd6;" horiz-adv-x="697" 
d="M295 758l31 123h139l-32 -123h-138zM490 758l32 123h139l-32 -123h-139zM421 711q121 0 192.5 -78.5t71.5 -205.5q0 -91 -34 -184t-96 -155q-99 -99 -241 -99q-121 0 -192.5 78.5t-71.5 205.5q0 91 34.5 184.5t95.5 154.5q99 99 241 99zM333 129q59 0 107 48
q40 40 64.5 109.5t24.5 129.5q0 74 -32.5 114.5t-94.5 40.5q-61 0 -107 -48q-40 -40 -64.5 -109.5t-24.5 -129.5q0 -74 32.5 -114.5t94.5 -40.5z" />
    <glyph glyph-name="multiply" unicode="&#xd7;" horiz-adv-x="554" 
d="M124 127l-78 102l162 130l-95 128l113 89l90 -132l161 133l77 -102l-162 -129l95 -127l-112 -90l-91 130z" />
    <glyph glyph-name="Oslash" unicode="&#xd8;" horiz-adv-x="697" 
d="M421 711q98 0 165 -53l44 48h139l-119 -126q35 -68 35 -153q0 -91 -34 -184t-96 -155q-99 -99 -241 -99q-99 0 -166 53l-43 -47h-139l118 125q-34 66 -34 153q0 91 34.5 184.5t95.5 154.5q99 99 241 99zM332 122q62 0 111 51q40 40 66 111t26 136q0 22 -3 41l-281 -315
q30 -24 81 -24zM200 281q0 -23 3 -41l281 314q-34 24 -81 24q-63 0 -111 -50q-40 -40 -66 -111.5t-26 -135.5z" />
    <glyph glyph-name="Ugrave" unicode="&#xd9;" horiz-adv-x="657" 
d="M384 747l-109 98l131 55l81 -153h-103zM287 -11q-104 0 -165 55t-61 156q0 45 17 108l94 392h151l-97 -403q-11 -44 -11 -76q0 -43 24 -67.5t64 -24.5q51 0 84 31q37 37 55 112l103 428h151l-108 -449q-32 -127 -94 -189q-73 -73 -207 -73z" />
    <glyph glyph-name="Uacute" unicode="&#xda;" horiz-adv-x="657" 
d="M375 747l151 153l123 -55l-151 -98h-123zM287 -11q-104 0 -165 55t-61 156q0 45 17 108l94 392h151l-97 -403q-11 -44 -11 -76q0 -43 24 -67.5t64 -24.5q51 0 84 31q37 37 55 112l103 428h151l-108 -449q-32 -127 -94 -189q-73 -73 -207 -73z" />
    <glyph glyph-name="Ucircumflex" unicode="&#xdb;" horiz-adv-x="657" 
d="M287 -11q-104 0 -165 55t-61 156q0 45 17 108l94 392h151l-97 -403q-11 -44 -11 -76q0 -43 24 -67.5t64 -24.5q51 0 84 31q37 37 55 112l103 428h151l-108 -449q-32 -127 -94 -189q-73 -73 -207 -73zM244 749l154 144h142l83 -144h-109l-59 55l-86 -55h-125z" />
    <glyph glyph-name="Udieresis" unicode="&#xdc;" horiz-adv-x="657" 
d="M273 750l31 123h139l-32 -123h-138zM468 750l32 123h139l-32 -123h-139zM287 -11q-104 0 -165 55t-61 156q0 45 17 108l94 392h151l-97 -403q-11 -44 -11 -76q0 -43 24 -67.5t64 -24.5q51 0 84 31q37 37 55 112l103 428h151l-108 -449q-32 -127 -94 -189
q-73 -73 -207 -73z" />
    <glyph glyph-name="Yacute" unicode="&#xdd;" horiz-adv-x="553" 
d="M130 0l68 282l-111 418h167l51 -281l185 281h180l-322 -429l-67 -271h-151zM315 747l151 153l123 -55l-151 -98h-123z" />
    <glyph glyph-name="Thorn" unicode="&#xde;" horiz-adv-x="596" 
d="M3 0l171 700h152l-25 -101h22q139 0 204 -65q54 -53 54 -146q0 -115 -75 -190q-88 -88 -240 -88h-85l-26 -110h-152zM215 243h58q71 0 113 40q36 36 36 94q0 36 -22 60q-26 26 -84 26h-50z" />
    <glyph glyph-name="germandbls" unicode="&#xdf;" horiz-adv-x="546" 
d="M187 -2l31 115q64 -4 99.5 27.5t35.5 80.5q0 73 -91 86l25 96q56 12 86 48t30 82q0 33 -17.5 51t-41.5 18q-60 0 -82 -91l-124 -511h-148l126 518q24 99 77 152q58 58 155 58q91 0 143 -50t52 -130q0 -69 -35.5 -123t-99.5 -76q85 -46 85 -135q0 -101 -80.5 -166.5
t-225.5 -49.5z" />
    <glyph glyph-name="agrave" unicode="&#xe0;" horiz-adv-x="513" 
d="M135 -9q-63 0 -99 40t-36 102q0 86 55 141q57 57 155 57q56 0 117 -23l2 9q7 30 7 49q0 53 -77 53q-52 0 -117 -29l-33 119q82 37 176 37q96 0 146.5 -38.5t50.5 -108.5q0 -41 -16 -105l-70 -294h-145l13 56q-57 -65 -129 -65zM201 92q36 0 62 29.5t36 70.5l8 35
q-34 15 -68 15q-42 0 -65 -25q-26 -26 -26 -69q0 -25 14.5 -40.5t38.5 -15.5zM274 590l-95 118l127 56l70 -174h-102z" />
    <glyph glyph-name="aacute" unicode="&#xe1;" horiz-adv-x="513" 
d="M135 -9q-63 0 -99 40t-36 102q0 86 55 141q57 57 155 57q56 0 117 -23l2 9q7 30 7 49q0 53 -77 53q-52 0 -117 -29l-33 119q82 37 176 37q96 0 146.5 -38.5t50.5 -108.5q0 -41 -16 -105l-70 -294h-145l13 56q-57 -65 -129 -65zM201 92q36 0 62 29.5t36 70.5l8 35
q-34 15 -68 15q-42 0 -65 -25q-26 -26 -26 -69q0 -25 14.5 -40.5t38.5 -15.5zM270 590l149 174l122 -56l-150 -118h-121z" />
    <glyph glyph-name="acircumflex" unicode="&#xe2;" horiz-adv-x="513" 
d="M135 -9q-63 0 -99 40t-36 102q0 86 55 141q57 57 155 57q56 0 117 -23l2 9q7 30 7 49q0 53 -77 53q-52 0 -117 -29l-33 119q82 37 176 37q96 0 146.5 -38.5t50.5 -108.5q0 -41 -16 -105l-70 -294h-145l13 56q-57 -65 -129 -65zM201 92q36 0 62 29.5t36 70.5l8 35
q-34 15 -68 15q-42 0 -65 -25q-26 -26 -26 -69q0 -25 14.5 -40.5t38.5 -15.5zM142 591l151 157h142l73 -157h-107l-54 69l-86 -69h-119z" />
    <glyph glyph-name="atilde" unicode="&#xe3;" horiz-adv-x="513" 
d="M135 -9q-63 0 -99 40t-36 102q0 86 55 141q57 57 155 57q56 0 117 -23l2 9q7 30 7 49q0 53 -77 53q-52 0 -117 -29l-33 119q82 37 176 37q96 0 146.5 -38.5t50.5 -108.5q0 -41 -16 -105l-70 -294h-145l13 56q-57 -65 -129 -65zM201 92q36 0 62 29.5t36 70.5l8 35
q-34 15 -68 15q-42 0 -65 -25q-26 -26 -26 -69q0 -25 14.5 -40.5t38.5 -15.5zM465 747l79 -27q-28 -65 -57 -97.5t-75 -32.5q-39 0 -81 24q-33 18 -47 18q-32 0 -58 -48l-79 27q27 65 56.5 97.5t75.5 32.5q35 0 81 -23q30 -18 47 -18q19 0 31.5 11t26.5 36z" />
    <glyph glyph-name="adieresis" unicode="&#xe4;" horiz-adv-x="513" 
d="M135 -9q-63 0 -99 40t-36 102q0 86 55 141q57 57 155 57q56 0 117 -23l2 9q7 30 7 49q0 53 -77 53q-52 0 -117 -29l-33 119q82 37 176 37q96 0 146.5 -38.5t50.5 -108.5q0 -41 -16 -105l-70 -294h-145l13 56q-57 -65 -129 -65zM201 92q36 0 62 29.5t36 70.5l8 35
q-34 15 -68 15q-42 0 -65 -25q-26 -26 -26 -69q0 -25 14.5 -40.5t38.5 -15.5zM167 593l33 130h139l-34 -130h-138zM359 593l34 130h138l-33 -130h-139z" />
    <glyph glyph-name="aring" unicode="&#xe5;" horiz-adv-x="513" 
d="M135 -9q-63 0 -99 40t-36 102q0 86 55 141q57 57 155 57q56 0 117 -23l2 9q7 30 7 49q0 53 -77 53q-52 0 -117 -29l-33 119q82 37 176 37q96 0 146.5 -38.5t50.5 -108.5q0 -41 -16 -105l-70 -294h-145l13 56q-57 -65 -129 -65zM201 92q36 0 62 29.5t36 70.5l8 35
q-34 15 -68 15q-42 0 -65 -25q-26 -26 -26 -69q0 -25 14.5 -40.5t38.5 -15.5zM466 713q0 -50 -33 -87t-85 -37q-45 0 -72.5 27t-27.5 68q0 49 33.5 87t84.5 38q45 0 72.5 -27.5t27.5 -68.5zM303 689q0 -24 13.5 -38t34.5 -14q27 0 43.5 22t16.5 49q0 24 -13 38t-34 14
q-27 0 -44 -22t-17 -49z" />
    <glyph glyph-name="ae" unicode="&#xe6;" horiz-adv-x="805" 
d="M529 -10q-128 0 -178 102q-79 -101 -200 -101q-76 0 -113.5 38.5t-37.5 103.5q0 86 55 141q57 57 155 57q56 0 117 -23l2 9q7 32 7 49q0 53 -77 53q-52 0 -117 -29l-33 119q82 37 177 37q111 0 150 -70q72 74 164 74q80 0 131.5 -56t51.5 -145q0 -62 -26 -132h-310
q2 -51 24.5 -79.5t64.5 -28.5q48 0 102 39l63 -100q-75 -58 -172 -58zM210 92q28 0 61 20.5t56 51.5q-3 26 -3 55q-40 23 -82 23q-45 0 -68 -25q-26 -26 -26 -69q0 -56 62 -56zM508 398q-30 -30 -48 -88h180q6 23 6 47q0 33 -17 53t-49 20q-40 0 -72 -32z" />
    <glyph glyph-name="ccedilla" unicode="&#xe7;" horiz-adv-x="466" 
d="M159 -160l-112 51l106 116q-57 24 -89 78.5t-32 131.5q0 73 26 140t72 113q81 79 183 79q67 0 109.5 -24.5t73.5 -71.5l-109 -87q-36 56 -77 56q-36 0 -67 -31q-29 -29 -46.5 -77.5t-17.5 -94.5q0 -49 20 -76t53 -27q34 0 85 41l74 -95q-73 -70 -160 -72z" />
    <glyph glyph-name="egrave" unicode="&#xe8;" horiz-adv-x="528" 
d="M480 217h-310q2 -51 24.5 -79.5t64.5 -28.5q48 0 102 39l63 -100q-75 -58 -172 -58q-104 0 -162 63t-58 172q0 70 26.5 135.5t73.5 112.5q77 77 182 77q87 0 139.5 -55.5t52.5 -145.5q0 -62 -26 -132zM290 590l-95 118l127 56l70 -174h-102zM231 398q-30 -30 -48 -88h180
q6 23 6 47q0 33 -17 53t-49 20q-40 0 -72 -32z" />
    <glyph glyph-name="eacute" unicode="&#xe9;" horiz-adv-x="528" 
d="M480 217h-310q2 -51 24.5 -79.5t64.5 -28.5q48 0 102 39l63 -100q-75 -58 -172 -58q-104 0 -162 63t-58 172q0 70 26.5 135.5t73.5 112.5q77 77 182 77q87 0 139.5 -55.5t52.5 -145.5q0 -62 -26 -132zM285 590l149 174l122 -56l-150 -118h-121zM231 398q-30 -30 -48 -88
h180q6 23 6 47q0 33 -17 53t-49 20q-40 0 -72 -32z" />
    <glyph glyph-name="ecircumflex" unicode="&#xea;" horiz-adv-x="528" 
d="M480 217h-310q2 -51 24.5 -79.5t64.5 -28.5q48 0 102 39l63 -100q-75 -58 -172 -58q-104 0 -162 63t-58 172q0 70 26.5 135.5t73.5 112.5q77 77 182 77q87 0 139.5 -55.5t52.5 -145.5q0 -62 -26 -132zM158 591l151 157h142l73 -157h-107l-54 69l-86 -69h-119zM231 398
q-30 -30 -48 -88h180q6 23 6 47q0 33 -17 53t-49 20q-40 0 -72 -32z" />
    <glyph glyph-name="edieresis" unicode="&#xeb;" horiz-adv-x="528" 
d="M480 217h-310q2 -51 24.5 -79.5t64.5 -28.5q48 0 102 39l63 -100q-75 -58 -172 -58q-104 0 -162 63t-58 172q0 70 26.5 135.5t73.5 112.5q77 77 182 77q87 0 139.5 -55.5t52.5 -145.5q0 -62 -26 -132zM374 593l34 130h138l-33 -130h-139zM182 593l33 130h139l-34 -130
h-138zM231 398q-30 -30 -48 -88h180q6 23 6 47q0 33 -17 53t-49 20q-40 0 -72 -32z" />
    <glyph glyph-name="igrave" unicode="&#xec;" horiz-adv-x="272" 
d="M-5 0l132 541h150l-132 -541h-150zM158 589l-95 118l127 56l70 -174h-102z" />
    <glyph glyph-name="iacute" unicode="&#xed;" horiz-adv-x="272" 
d="M155 589l149 174l122 -56l-150 -118h-121zM-5 0l132 541h150l-132 -541h-150z" />
    <glyph glyph-name="icircumflex" unicode="&#xee;" horiz-adv-x="272" 
d="M27 590l151 157h142l73 -157h-107l-54 69l-86 -69h-119zM-5 0l132 541h150l-132 -541h-150z" />
    <glyph glyph-name="idieresis" unicode="&#xef;" horiz-adv-x="272" 
d="M51 592l33 130h139l-34 -130h-138zM243 592l34 130h138l-33 -130h-139zM-5 0l132 541h150l-132 -541h-150z" />
    <glyph glyph-name="eth" unicode="&#xf0;" horiz-adv-x="567" 
d="M223 566l-22 75l78 19q-19 22 -59 62h180l22 -27l109 27l22 -74l-84 -21q65 -109 65 -241q0 -97 -31.5 -183t-84.5 -139q-73 -75 -177 -75q-94 0 -150.5 59t-56.5 166q0 77 26 147t70 114q67 67 152 67q59 0 101 -45q-15 46 -51 96zM252 115q37 0 66 29q28 29 46 79.5
t18 99.5q0 50 -19.5 76.5t-53.5 26.5q-40 0 -71 -33q-27 -27 -44 -76t-17 -99q0 -49 19.5 -76t55.5 -27z" />
    <glyph glyph-name="ntilde" unicode="&#xf1;" horiz-adv-x="539" 
d="M-10 0l132 541h149l-12 -50q61 59 126 59q59 0 94.5 -36.5t35.5 -101.5q0 -35 -18 -109l-73 -303h-150l74 304q9 36 9 58q0 52 -52 52q-33 0 -55.5 -25t-31.5 -66l-79 -323h-149zM473 747l79 -27q-28 -65 -57 -97.5t-75 -32.5q-39 0 -81 24q-33 18 -47 18q-32 0 -58 -48
l-79 27q27 65 56.5 97.5t75.5 32.5q35 0 81 -23q30 -18 47 -18q19 0 31.5 11t26.5 36z" />
    <glyph glyph-name="ograve" unicode="&#xf2;" horiz-adv-x="561" 
d="M309 550q102 0 161 -64.5t59 -169.5q0 -71 -26 -137.5t-72 -113.5q-76 -76 -178 -76q-101 0 -160.5 64.5t-59.5 169.5q0 72 26 138.5t72 112.5q76 76 178 76zM259 117q36 0 64 28t44.5 76t16.5 91q0 54 -21.5 82t-59.5 28q-36 0 -64 -28t-44.5 -76t-16.5 -91
q0 -54 21.5 -82t59.5 -28zM300 590l-95 118l127 56l70 -174h-102z" />
    <glyph glyph-name="oacute" unicode="&#xf3;" horiz-adv-x="561" 
d="M287 590l149 174l122 -56l-150 -118h-121zM309 550q102 0 161 -64.5t59 -169.5q0 -71 -26 -137.5t-72 -113.5q-76 -76 -178 -76q-101 0 -160.5 64.5t-59.5 169.5q0 72 26 138.5t72 112.5q76 76 178 76zM259 117q36 0 64 28t44.5 76t16.5 91q0 54 -21.5 82t-59.5 28
q-36 0 -64 -28t-44.5 -76t-16.5 -91q0 -54 21.5 -82t59.5 -28z" />
    <glyph glyph-name="ocircumflex" unicode="&#xf4;" horiz-adv-x="561" 
d="M168 591l151 157h142l73 -157h-107l-54 69l-86 -69h-119zM309 550q102 0 161 -64.5t59 -169.5q0 -71 -26 -137.5t-72 -113.5q-76 -76 -178 -76q-101 0 -160.5 64.5t-59.5 169.5q0 72 26 138.5t72 112.5q76 76 178 76zM259 117q36 0 64 28t44.5 76t16.5 91q0 54 -21.5 82
t-59.5 28q-36 0 -64 -28t-44.5 -76t-16.5 -91q0 -54 21.5 -82t59.5 -28z" />
    <glyph glyph-name="otilde" unicode="&#xf5;" horiz-adv-x="561" 
d="M309 550q102 0 161 -64.5t59 -169.5q0 -71 -26 -137.5t-72 -113.5q-76 -76 -178 -76q-101 0 -160.5 64.5t-59.5 169.5q0 72 26 138.5t72 112.5q76 76 178 76zM259 117q36 0 64 28t44.5 76t16.5 91q0 54 -21.5 82t-59.5 28q-36 0 -64 -28t-44.5 -76t-16.5 -91
q0 -54 21.5 -82t59.5 -28zM491 747l79 -27q-28 -65 -57 -97.5t-75 -32.5q-39 0 -81 24q-33 18 -47 18q-32 0 -58 -48l-79 27q27 65 56.5 97.5t75.5 32.5q35 0 81 -23q30 -18 47 -18q19 0 31.5 11t26.5 36z" />
    <glyph glyph-name="odieresis" unicode="&#xf6;" horiz-adv-x="561" 
d="M191 593l33 130h139l-34 -130h-138zM383 593l34 130h138l-33 -130h-139zM309 550q102 0 161 -64.5t59 -169.5q0 -71 -26 -137.5t-72 -113.5q-76 -76 -178 -76q-101 0 -160.5 64.5t-59.5 169.5q0 72 26 138.5t72 112.5q76 76 178 76zM259 117q36 0 64 28t44.5 76t16.5 91
q0 54 -21.5 82t-59.5 28q-36 0 -64 -28t-44.5 -76t-16.5 -91q0 -54 21.5 -82t59.5 -28z" />
    <glyph glyph-name="divide" unicode="&#xf7;" horiz-adv-x="554" 
d="M157 88l35 138h148l-35 -138h-148zM59 289l33 126h443l-34 -126h-442zM254 478l35 138h148l-35 -138h-148z" />
    <glyph glyph-name="oslash" unicode="&#xf8;" horiz-adv-x="561" 
d="M309 550q80 0 136 -43l35 37h125l-104 -105q28 -54 28 -123q0 -71 -26 -137.5t-72 -113.5q-76 -76 -178 -76q-82 0 -136 42l-35 -37h-125l103 106q-27 56 -27 123q0 72 26 138.5t72 112.5q76 76 178 76zM307 428q-40 0 -72 -32q-29 -29 -45.5 -76.5t-16.5 -92.5v-17
l179 204q-19 14 -45 14zM389 312q0 11 -1 16l-179 -203q20 -14 46 -14q40 0 72 32q29 29 45.5 76.5t16.5 92.5z" />
    <glyph glyph-name="ugrave" unicode="&#xf9;" horiz-adv-x="543" 
d="M554 541l-132 -541h-149l12 50q-61 -59 -126 -59q-59 0 -94.5 36.5t-35.5 101.5q0 35 18 109l73 303h150l-74 -304q-9 -36 -9 -58q0 -52 52 -52q33 0 55.5 25t31.5 66l79 323h149zM293 588l-95 118l127 56l70 -174h-102z" />
    <glyph glyph-name="uacute" unicode="&#xfa;" horiz-adv-x="543" 
d="M288 588l149 174l122 -56l-150 -118h-121zM554 541l-132 -541h-149l12 50q-61 -59 -126 -59q-59 0 -94.5 36.5t-35.5 101.5q0 35 18 109l73 303h150l-74 -304q-9 -36 -9 -58q0 -52 52 -52q33 0 55.5 25t31.5 66l79 323h149z" />
    <glyph glyph-name="ucircumflex" unicode="&#xfb;" horiz-adv-x="543" 
d="M160 589l151 157h142l73 -157h-107l-54 69l-86 -69h-119zM554 541l-132 -541h-149l12 50q-61 -59 -126 -59q-59 0 -94.5 36.5t-35.5 101.5q0 35 18 109l73 303h150l-74 -304q-9 -36 -9 -58q0 -52 52 -52q33 0 55.5 25t31.5 66l79 323h149z" />
    <glyph glyph-name="udieresis" unicode="&#xfc;" horiz-adv-x="543" 
d="M183 591l33 130h139l-34 -130h-138zM375 591l34 130h138l-33 -130h-139zM554 541l-132 -541h-149l12 50q-61 -59 -126 -59q-59 0 -94.5 36.5t-35.5 101.5q0 35 18 109l73 303h150l-74 -304q-9 -36 -9 -58q0 -52 52 -52q33 0 55.5 25t31.5 66l79 323h149z" />
    <glyph glyph-name="yacute" unicode="&#xfd;" horiz-adv-x="517" 
d="M129 -5l-40 546h152l1 -364l162 364h159l-286 -549q-41 -78 -81.5 -111.5t-98.5 -33.5q-70 0 -119 47l71 99q26 -22 47 -22t33 24zM272 588l149 174l122 -56l-150 -118h-121z" />
    <glyph glyph-name="thorn" unicode="&#xfe;" horiz-adv-x="581" 
d="M315 722l-57 -235q65 63 128 63q70 0 117 -57.5t47 -160.5q0 -78 -26.5 -149.5t-74.5 -119.5q-73 -71 -161 -71t-134 79l-52 -221h-149l212 872h150zM265 117q38 0 69 31q63 63 63 172q0 49 -20.5 77t-59.5 28t-70 -31q-29 -29 -45.5 -76.5t-16.5 -96.5t22 -76.5
t58 -27.5z" />
    <glyph glyph-name="ydieresis" unicode="&#xff;" horiz-adv-x="517" 
d="M129 -5l-40 546h152l1 -364l162 364h159l-286 -549q-41 -78 -81.5 -111.5t-98.5 -33.5q-70 0 -119 47l71 99q26 -22 47 -22t33 24zM169 591l33 130h139l-34 -130h-138zM361 591l34 130h138l-33 -130h-139z" />
    <glyph glyph-name="Amacron" unicode="&#x100;" horiz-adv-x="658" 
d="M-53 0l419 705h147l75 -705h-155l-12 157h-225l-87 -157h-162zM281 291h125l-11 229zM280 756l28 104h343l-27 -104h-344z" />
    <glyph glyph-name="amacron" unicode="&#x101;" horiz-adv-x="513" 
d="M135 -9q-63 0 -99 40t-36 102q0 86 55 141q57 57 155 57q56 0 117 -23l2 9q7 30 7 49q0 53 -77 53q-52 0 -117 -29l-33 119q82 37 176 37q96 0 146.5 -38.5t50.5 -108.5q0 -41 -16 -105l-70 -294h-145l13 56q-57 -65 -129 -65zM201 92q36 0 62 29.5t36 70.5l8 35
q-34 15 -68 15q-42 0 -65 -25q-26 -26 -26 -69q0 -25 14.5 -40.5t38.5 -15.5zM169 590l27 102h318l-26 -102h-319z" />
    <glyph glyph-name="Abreve" unicode="&#x102;" horiz-adv-x="658" 
d="M-53 0l419 705h147l75 -705h-155l-12 157h-225l-87 -157h-162zM281 291h125l-11 229zM450 755q-75 0 -115 37t-30 105h95q9 -45 69 -45q56 0 84 45h108q-24 -68 -80 -105t-131 -37z" />
    <glyph glyph-name="abreve" unicode="&#x103;" horiz-adv-x="513" 
d="M135 -9q-63 0 -99 40t-36 102q0 86 55 141q57 57 155 57q56 0 117 -23l2 9q7 30 7 49q0 53 -77 53q-52 0 -117 -29l-33 119q82 37 176 37q96 0 146.5 -38.5t50.5 -108.5q0 -41 -16 -105l-70 -294h-145l13 56q-57 -65 -129 -65zM201 92q36 0 62 29.5t36 70.5l8 35
q-34 15 -68 15q-42 0 -65 -25q-26 -26 -26 -69q0 -25 14.5 -40.5t38.5 -15.5zM343 589q-79 0 -118 43t-39 110h103q2 -24 18 -40.5t41 -16.5q32 0 51.5 14.5t36.5 42.5h102q-23 -69 -73 -111t-122 -42z" />
    <glyph glyph-name="Aogonek" unicode="&#x104;" horiz-adv-x="658" 
d="M584 -83l-17 -66q-25 -4 -53 -4q-43 -1 -68.5 15t-25.5 45q0 43 55 93h-42l-12 157h-225l-87 -157h-162l419 705h147l75 -705h-20q-34 -43 -34 -60q0 -26 50 -23zM281 291h125l-11 229z" />
    <glyph glyph-name="aogonek" unicode="&#x105;" horiz-adv-x="513" 
d="M392 -83l-17 -66q-25 -4 -53 -4q-43 -1 -68.5 15t-25.5 45q0 43 55 93h-32l13 56q-57 -65 -129 -65q-63 0 -99 40t-36 102q0 86 55 141q57 57 155 57q56 0 117 -23l2 9q7 30 7 49q0 53 -77 53q-52 0 -117 -29l-33 119q82 37 176 37q96 0 146.5 -38.5t50.5 -108.5
q0 -41 -16 -105l-70 -294h-20q-34 -43 -34 -60q0 -26 50 -23zM201 92q36 0 62 29.5t36 70.5l8 35q-34 15 -68 15q-42 0 -65 -25q-26 -26 -26 -69q0 -25 14.5 -40.5t38.5 -15.5z" />
    <glyph glyph-name="Cacute" unicode="&#x106;" horiz-adv-x="600" 
d="M338 -10q-130 0 -208 78.5t-78 211.5q0 90 33.5 179t92.5 149q104 102 237 102q147 0 234 -119l-118 -100q-30 40 -59 59.5t-67 19.5q-59 0 -111 -52q-38 -38 -62 -101.5t-24 -131.5q0 -70 35 -112.5t94 -42.5q57 0 120 51l85 -107q-91 -84 -204 -84zM388 755l151 153
l123 -55l-151 -98h-123z" />
    <glyph glyph-name="cacute" unicode="&#x107;" horiz-adv-x="466" 
d="M274 590l149 174l122 -56l-150 -118h-121zM245 -10q-98 0 -155.5 61.5t-57.5 165.5q0 73 26 140t72 113q81 79 183 79q67 0 109.5 -24.5t73.5 -71.5l-109 -87q-36 56 -77 56q-36 0 -67 -31q-29 -29 -46.5 -77.5t-17.5 -94.5q0 -49 20 -76t53 -27q34 0 85 41l74 -95
q-76 -72 -166 -72z" />
    <glyph glyph-name="Cdotaccent" unicode="&#x10a;" horiz-adv-x="600" 
d="M383 758l31 123h143l-32 -123h-142zM338 -10q-130 0 -208 78.5t-78 211.5q0 90 33.5 179t92.5 149q104 102 237 102q147 0 234 -119l-118 -100q-30 40 -59 59.5t-67 19.5q-59 0 -111 -52q-38 -38 -62 -101.5t-24 -131.5q0 -70 35 -112.5t94 -42.5q57 0 120 51l85 -107
q-91 -84 -204 -84z" />
    <glyph glyph-name="cdotaccent" unicode="&#x10b;" horiz-adv-x="466" 
d="M245 -10q-98 0 -155.5 61.5t-57.5 165.5q0 73 26 140t72 113q81 79 183 79q67 0 109.5 -24.5t73.5 -71.5l-109 -87q-36 56 -77 56q-36 0 -67 -31q-29 -29 -46.5 -77.5t-17.5 -94.5q0 -49 20 -76t53 -27q34 0 85 41l74 -95q-76 -72 -166 -72zM262 594l34 128h144l-34 -128
h-144z" />
    <glyph glyph-name="Ccaron" unicode="&#x10c;" horiz-adv-x="600" 
d="M338 -10q-130 0 -208 78.5t-78 211.5q0 90 33.5 179t92.5 149q104 102 237 102q147 0 234 -119l-118 -100q-30 40 -59 59.5t-67 19.5q-59 0 -111 -52q-38 -38 -62 -101.5t-24 -131.5q0 -70 35 -112.5t94 -42.5q57 0 120 51l85 -107q-91 -84 -204 -84zM683 901l-154 -144
h-142l-82 144h108l60 -56l85 56h125z" />
    <glyph glyph-name="ccaron" unicode="&#x10d;" horiz-adv-x="466" 
d="M248 591l-73 157h107l54 -68l86 68h118l-150 -157h-142zM245 -10q-98 0 -155.5 61.5t-57.5 165.5q0 73 26 140t72 113q81 79 183 79q67 0 109.5 -24.5t73.5 -71.5l-109 -87q-36 56 -77 56q-36 0 -67 -31q-29 -29 -46.5 -77.5t-17.5 -94.5q0 -49 20 -76t53 -27q34 0 85 41
l74 -95q-76 -72 -166 -72z" />
    <glyph glyph-name="Dcaron" unicode="&#x10e;" horiz-adv-x="663" 
d="M3 0l171 700h176q152 0 228 -76q72 -71 72 -207q0 -81 -31.5 -163.5t-92.5 -143.5q-110 -110 -311 -110h-212zM456 525q-38 38 -118 38h-48l-101 -426h45q115 0 180 66q39 39 59 96.5t20 112.5q0 76 -37 113zM644 893l-154 -144h-142l-82 144h108l60 -56l85 56h125z" />
    <glyph glyph-name="dcaron" unicode="&#x10f;" horiz-adv-x="581" 
d="M642 584l49 208h112v-3l-103 -205h-58zM310 0l13 54q-65 -62 -128 -62q-70 0 -117 57.5t-47 160.5q0 77 26.5 149t74.5 120q71 71 161 71q88 0 134 -79l59 251h150l-177 -722h-149zM264 117q39 0 70 31q29 29 45.5 76.5t16.5 96.5t-22 76.5t-58 27.5q-38 0 -69 -31
q-63 -63 -63 -172q0 -49 20.5 -77t59.5 -28z" />
    <glyph glyph-name="Dcroat" unicode="&#x110;" horiz-adv-x="676" 
d="M7 285l35 134h76l69 281h175q151 0 229 -76q71 -71 71 -207q0 -81 -31 -163.5t-92 -143.5q-110 -110 -312 -110h-211l69 285h-78zM468 525q-36 38 -118 38h-47l-34 -144h100l-36 -134h-96l-35 -148h44q115 0 180 66q39 39 59.5 97t20.5 112q0 77 -38 113z" />
    <glyph glyph-name="dcroat" unicode="&#x111;" horiz-adv-x="581" 
d="M323 587l22 82h128l13 53h150l-13 -53h60l-21 -82h-59l-144 -587h-149l13 54q-65 -62 -128 -62q-70 0 -117 57.5t-47 160.5q0 77 26.5 149t74.5 120q71 71 161 71q88 0 134 -79l27 116h-131zM264 117q39 0 70 31q29 29 45.5 76.5t16.5 96.5t-22 76.5t-58 27.5
q-38 0 -69 -31q-63 -63 -63 -172q0 -49 20.5 -77t59.5 -28z" />
    <glyph glyph-name="Emacron" unicode="&#x112;" horiz-adv-x="566" 
d="M234 748l28 104h343l-27 -104h-344zM3 0l171 700h445l-35 -135h-294l-33 -146h258l-35 -133h-258l-34 -151h300l-36 -135h-449z" />
    <glyph glyph-name="emacron" unicode="&#x113;" horiz-adv-x="528" 
d="M480 217h-310q2 -51 24.5 -79.5t64.5 -28.5q48 0 102 39l63 -100q-75 -58 -172 -58q-104 0 -162 63t-58 172q0 70 26.5 135.5t73.5 112.5q77 77 182 77q87 0 139.5 -55.5t52.5 -145.5q0 -62 -26 -132zM186 590l27 102h318l-26 -102h-319zM231 398q-30 -30 -48 -88h180
q6 23 6 47q0 33 -17 53t-49 20q-40 0 -72 -32z" />
    <glyph glyph-name="Ebreve" unicode="&#x114;" horiz-adv-x="566" 
d="M404 747q-75 0 -115 37t-30 105h95q9 -45 69 -45q56 0 84 45h108q-24 -68 -80 -105t-131 -37zM3 0l171 700h445l-35 -135h-294l-33 -146h258l-35 -133h-258l-34 -151h300l-36 -135h-449z" />
    <glyph glyph-name="ebreve" unicode="&#x115;" horiz-adv-x="528" 
d="M480 217h-310q2 -51 24.5 -79.5t64.5 -28.5q48 0 102 39l63 -100q-75 -58 -172 -58q-104 0 -162 63t-58 172q0 70 26.5 135.5t73.5 112.5q77 77 182 77q87 0 139.5 -55.5t52.5 -145.5q0 -62 -26 -132zM359 589q-79 0 -118 43t-39 110h103q2 -24 18 -40.5t41 -16.5
q32 0 51.5 14.5t36.5 42.5h102q-23 -69 -73 -111t-122 -42zM231 398q-30 -30 -48 -88h180q6 23 6 47q0 33 -17 53t-49 20q-40 0 -72 -32z" />
    <glyph glyph-name="Edotaccent" unicode="&#x116;" horiz-adv-x="566" 
d="M336 750l31 123h143l-32 -123h-142zM3 0l171 700h445l-35 -135h-294l-33 -146h258l-35 -133h-258l-34 -151h300l-36 -135h-449z" />
    <glyph glyph-name="edotaccent" unicode="&#x117;" horiz-adv-x="528" 
d="M480 217h-310q2 -51 24.5 -79.5t64.5 -28.5q48 0 102 39l63 -100q-75 -58 -172 -58q-104 0 -162 63t-58 172q0 70 26.5 135.5t73.5 112.5q77 77 182 77q87 0 139.5 -55.5t52.5 -145.5q0 -62 -26 -132zM274 594l34 128h144l-34 -128h-144zM231 398q-30 -30 -48 -88h180
q6 23 6 47q0 33 -17 53t-49 20q-40 0 -72 -32z" />
    <glyph glyph-name="Eogonek" unicode="&#x118;" horiz-adv-x="566" 
d="M3 0l171 700h445l-35 -135h-294l-33 -146h258l-35 -133h-258l-34 -151h300l-36 -135h-30q-34 -43 -34 -60q0 -26 50 -23l-17 -66q-25 -4 -53 -4q-43 -1 -68.5 15t-25.5 45q0 43 55 93h-326z" />
    <glyph glyph-name="eogonek" unicode="&#x119;" horiz-adv-x="528" 
d="M361 148l63 -100q-34 -26 -50 -42q-41 -41 -41 -66q0 -26 50 -23l-17 -66q-25 -4 -53 -4q-44 -1 -69 15t-25 45q0 38 44 83h-11q-104 0 -162 63t-58 172q0 70 26.5 135.5t73.5 112.5q77 77 182 77q87 0 139.5 -55.5t52.5 -145.5q0 -62 -26 -132h-310q2 -51 24.5 -79.5
t64.5 -28.5q48 0 102 39zM231 398q-30 -30 -48 -88h180q6 23 6 47q0 33 -17 53t-49 20q-40 0 -72 -32z" />
    <glyph glyph-name="Ecaron" unicode="&#x11a;" horiz-adv-x="566" 
d="M636 893l-154 -144h-142l-82 144h108l60 -56l85 56h125zM3 0l171 700h445l-35 -135h-294l-33 -146h258l-35 -133h-258l-34 -151h300l-36 -135h-449z" />
    <glyph glyph-name="ecaron" unicode="&#x11b;" horiz-adv-x="528" 
d="M480 217h-310q2 -51 24.5 -79.5t64.5 -28.5q48 0 102 39l63 -100q-75 -58 -172 -58q-104 0 -162 63t-58 172q0 70 26.5 135.5t73.5 112.5q77 77 182 77q87 0 139.5 -55.5t52.5 -145.5q0 -62 -26 -132zM260 591l-73 157h107l54 -68l86 68h118l-150 -157h-142zM231 398
q-30 -30 -48 -88h180q6 23 6 47q0 33 -17 53t-49 20q-40 0 -72 -32z" />
    <glyph glyph-name="Gbreve" unicode="&#x11e;" horiz-adv-x="660" 
d="M464 755q-75 0 -115 37t-30 105h95q9 -45 69 -45q56 0 84 45h108q-24 -68 -80 -105t-131 -37zM337 -10q-54 0 -104 17.5t-91.5 51.5t-66.5 91t-25 128q0 91 33.5 177t94.5 146q109 109 262 109q142 0 236 -92l-108 -108q-66 61 -140 61q-77 0 -137 -60
q-38 -39 -61 -101.5t-23 -127.5q0 -71 40 -112.5t100 -41.5q38 0 78 14l29 129h-116l35 131h261l-92 -361q-95 -51 -205 -51z" />
    <glyph glyph-name="gbreve" unicode="&#x11f;" horiz-adv-x="578" 
d="M210 -152q-136 0 -242 72l72 103q81 -58 160 -58q52 0 86 34q26 26 40 81l8 30q-68 -69 -140 -69q-69 0 -115 47t-46 132q0 71 27.5 141t75.5 118q71 71 155 71q91 0 129 -87l19 78h149l-108 -449q-30 -126 -85 -181q-63 -63 -185 -63zM255 159q41 0 74 33q22 22 38 61
t16 84q0 42 -20 65.5t-53 23.5q-37 0 -68 -31q-26 -26 -41 -69.5t-15 -82.5q0 -84 69 -84zM379 589q-79 0 -118 43t-39 110h103q2 -24 18 -40.5t41 -16.5q32 0 51.5 14.5t36.5 42.5h102q-23 -69 -73 -111t-122 -42z" />
    <glyph glyph-name="Gdotaccent" unicode="&#x120;" horiz-adv-x="660" 
d="M397 758l31 123h143l-32 -123h-142zM337 -10q-54 0 -104 17.5t-91.5 51.5t-66.5 91t-25 128q0 91 33.5 177t94.5 146q109 109 262 109q142 0 236 -92l-108 -108q-66 61 -140 61q-77 0 -137 -60q-38 -39 -61 -101.5t-23 -127.5q0 -71 40 -112.5t100 -41.5q38 0 78 14
l29 129h-116l35 131h261l-92 -361q-95 -51 -205 -51z" />
    <glyph glyph-name="gdotaccent" unicode="&#x121;" horiz-adv-x="578" 
d="M210 -152q-136 0 -242 72l72 103q81 -58 160 -58q52 0 86 34q26 26 40 81l8 30q-68 -69 -140 -69q-69 0 -115 47t-46 132q0 71 27.5 141t75.5 118q71 71 155 71q91 0 129 -87l19 78h149l-108 -449q-30 -126 -85 -181q-63 -63 -185 -63zM255 159q41 0 74 33q22 22 38 61
t16 84q0 42 -20 65.5t-53 23.5q-37 0 -68 -31q-26 -26 -41 -69.5t-15 -82.5q0 -84 69 -84zM295 594l34 128h144l-34 -128h-144z" />
    <glyph glyph-name="Gcommaaccent" unicode="&#x122;" horiz-adv-x="660" 
d="M172 -283l2 45q77 11 84 70h-60l28 111h131l-25 -96q-17 -65 -56 -95t-104 -35zM337 -10q-54 0 -104 17.5t-91.5 51.5t-66.5 91t-25 128q0 91 33.5 177t94.5 146q109 109 262 109q142 0 236 -92l-108 -108q-66 61 -140 61q-77 0 -137 -60q-38 -39 -61 -101.5t-23 -127.5
q0 -71 40 -112.5t100 -41.5q38 0 78 14l29 129h-116l35 131h261l-92 -361q-95 -51 -205 -51z" />
    <glyph glyph-name="gcommaaccent" unicode="&#x123;" horiz-adv-x="578" 
d="M481 818l-2 -45q-77 -11 -84 -70h60l-28 -111h-131l25 96q17 65 56 95t104 35zM210 -152q-136 0 -242 72l72 103q81 -58 160 -58q52 0 86 34q26 26 40 81l8 30q-68 -69 -140 -69q-69 0 -115 47t-46 132q0 71 27.5 141t75.5 118q71 71 155 71q91 0 129 -87l19 78h149
l-108 -449q-30 -126 -85 -181q-63 -63 -185 -63zM255 159q41 0 74 33q22 22 38 61t16 84q0 42 -20 65.5t-53 23.5q-37 0 -68 -31q-26 -26 -41 -69.5t-15 -82.5q0 -84 69 -84z" />
    <glyph glyph-name="Hbar" unicode="&#x126;" horiz-adv-x="656" 
d="M69 526l27 103h62l18 71h151l-17 -71h211l17 71h151l-18 -71h66l-28 -103h-63l-128 -526h-151l69 284h-211l-69 -284h-151l128 526h-64zM261 423h211l25 106h-211z" />
    <glyph glyph-name="hbar" unicode="&#x127;" horiz-adv-x="543" 
d="M71 587l20 82h60l13 53h150l-13 -53h129l-20 -82h-128l-23 -96q61 59 126 59q59 0 94.5 -36.5t35.5 -101.5q0 -35 -18 -109l-73 -303h-150l74 304q9 36 9 58q0 52 -52 52q-33 0 -55.5 -25t-31.5 -66l-79 -323h-149l141 587h-60z" />
    <glyph glyph-name="Imacron" unicode="&#x12a;" horiz-adv-x="304" 
d="M10 0l171 700h152l-171 -700h-152zM97 748l28 104h343l-27 -104h-344z" />
    <glyph glyph-name="imacron" unicode="&#x12b;" horiz-adv-x="272" 
d="M-5 0l132 541h150l-132 -541h-150zM55 589l27 102h318l-26 -102h-319z" />
    <glyph glyph-name="Ibreve" unicode="&#x12c;" horiz-adv-x="304" 
d="M10 0l171 700h152l-171 -700h-152zM267 747q-75 0 -115 37t-30 105h95q9 -45 69 -45q56 0 84 45h108q-24 -68 -80 -105t-131 -37z" />
    <glyph glyph-name="ibreve" unicode="&#x12d;" horiz-adv-x="272" 
d="M-5 0l132 541h150l-132 -541h-150zM227 588q-79 0 -118 43t-39 110h103q2 -24 18 -40.5t41 -16.5q32 0 51.5 14.5t36.5 42.5h102q-23 -69 -73 -111t-122 -42z" />
    <glyph glyph-name="Iogonek" unicode="&#x12e;" horiz-adv-x="304" 
d="M10 0l171 700h152l-171 -700h-20q-34 -43 -34 -60q0 -26 50 -23l-17 -66q-25 -4 -53 -4q-43 -1 -68.5 15t-25.5 45q0 43 55 93h-39z" />
    <glyph glyph-name="iogonek" unicode="&#x12f;" horiz-adv-x="272" 
d="M-5 0l133 541h149l-132 -541h-22q-34 -43 -34 -60q0 -26 50 -23l-17 -66q-25 -4 -53 -4q-43 -1 -68.5 15t-25.5 45q0 41 55 93h-35zM136 593l36 136h155l-36 -136h-155z" />
    <glyph glyph-name="Idotaccent" unicode="&#x130;" horiz-adv-x="304" 
d="M10 0l171 700h152l-171 -700h-152zM199 750l31 123h143l-32 -123h-142z" />
    <glyph glyph-name="dotlessi" unicode="&#x131;" horiz-adv-x="272" 
d="M-5 0l132 541h150l-132 -541h-150z" />
    <glyph glyph-name="Kcommaaccent" unicode="&#x136;" horiz-adv-x="621" 
d="M141 -276l2 45q77 11 84 70h-60l28 111h131l-25 -96q-17 -65 -56 -95t-104 -35zM3 0l171 700h152l-71 -298l264 298h195l-290 -296l133 -404h-165l-84 294l-109 -110l-44 -184h-152z" />
    <glyph glyph-name="kcommaaccent" unicode="&#x137;" horiz-adv-x="511" 
d="M64 -278l2 45q77 11 84 70h-60l28 111h131l-25 -96q-17 -65 -56 -95t-104 -35zM-10 0l176 722h150l-84 -354l154 173h189l-217 -203l89 -338h-165l-49 234l-50 -54l-44 -180h-149z" />
    <glyph glyph-name="Lacute" unicode="&#x139;" horiz-adv-x="529" 
d="M212 747l151 153l123 -55l-151 -98h-123zM3 0l171 700h152l-135 -562h277l-36 -138h-429z" />
    <glyph glyph-name="lacute" unicode="&#x13a;" horiz-adv-x="272" 
d="M193 753l151 153l123 -55l-151 -98h-123zM-5 0l177 722h149l-176 -722h-150z" />
    <glyph glyph-name="Lcommaaccent" unicode="&#x13b;" horiz-adv-x="529" 
d="M84 -279l2 45q77 11 84 70h-60l28 111h131l-25 -96q-17 -65 -56 -95t-104 -35zM3 0l171 700h152l-135 -562h277l-36 -138h-429z" />
    <glyph glyph-name="lcommaaccent" unicode="&#x13c;" horiz-adv-x="272" 
d="M-59 -279l2 45q77 11 84 70h-60l28 111h131l-25 -96q-17 -65 -56 -95t-104 -35zM-5 0l177 722h149l-176 -722h-150z" />
    <glyph glyph-name="Lcaron" unicode="&#x13d;" horiz-adv-x="529" 
d="M333 562l49 208h112v-3l-103 -205h-58zM3 0l171 700h152l-135 -562h277l-36 -138h-429z" />
    <glyph glyph-name="lcaron" unicode="&#x13e;" horiz-adv-x="272" 
d="M329 584l49 208h112v-3l-103 -205h-58zM-5 0l177 722h149l-176 -722h-150z" />
    <glyph glyph-name="Ldot" unicode="&#x13f;" horiz-adv-x="523" 
d="M351 316l34 131h137l-34 -131h-137zM3 0l171 700h152l-135 -562h277l-36 -138h-429z" />
    <glyph glyph-name="ldot" unicode="&#x140;" horiz-adv-x="358" 
d="M269 314l32 123h112l-32 -123h-112zM-5 0l177 722h149l-176 -722h-150z" />
    <glyph glyph-name="Lslash" unicode="&#x141;" horiz-adv-x="547" 
d="M6 228l38 144l72 24l75 304h152l-60 -250l161 53l-36 -144l-160 -52l-40 -169h277l-36 -138h-429l61 252z" />
    <glyph glyph-name="lslash" unicode="&#x142;" horiz-adv-x="312" 
d="M8 247l36 143l75 25l75 307h149l-62 -253l76 26l-36 -142l-74 -25l-80 -328h-150l67 272z" />
    <glyph glyph-name="Nacute" unicode="&#x143;" horiz-adv-x="674" 
d="M387 747l151 153l123 -55l-151 -98h-123zM3 0l171 700h141l142 -439l104 439h149l-171 -700h-131l-149 454l-106 -454h-150z" />
    <glyph glyph-name="nacute" unicode="&#x144;" horiz-adv-x="539" 
d="M278 590l149 174l122 -56l-150 -118h-121zM-10 0l132 541h149l-12 -50q61 59 126 59q59 0 94.5 -36.5t35.5 -101.5q0 -35 -18 -109l-73 -303h-150l74 304q9 36 9 58q0 52 -52 52q-33 0 -55.5 -25t-31.5 -66l-79 -323h-149z" />
    <glyph glyph-name="Ncommaaccent" unicode="&#x145;" horiz-adv-x="674" 
d="M140 -276l2 45q77 11 84 70h-60l28 111h131l-25 -96q-17 -65 -56 -95t-104 -35zM3 0l171 700h141l142 -439l104 439h149l-171 -700h-131l-149 454l-106 -454h-150z" />
    <glyph glyph-name="ncommaaccent" unicode="&#x146;" horiz-adv-x="539" 
d="M64 -278l2 45q77 11 84 70h-60l28 111h131l-25 -96q-17 -65 -56 -95t-104 -35zM-10 0l132 541h149l-12 -50q61 59 126 59q59 0 94.5 -36.5t35.5 -101.5q0 -35 -18 -109l-73 -303h-150l74 304q9 36 9 58q0 52 -52 52q-33 0 -55.5 -25t-31.5 -66l-79 -323h-149z" />
    <glyph glyph-name="Ncaron" unicode="&#x147;" horiz-adv-x="674" 
d="M682 893l-154 -144h-142l-82 144h108l60 -56l85 56h125zM3 0l171 700h141l142 -439l104 439h149l-171 -700h-131l-149 454l-106 -454h-150z" />
    <glyph glyph-name="ncaron" unicode="&#x148;" horiz-adv-x="539" 
d="M252 591l-73 157h107l54 -68l86 68h118l-150 -157h-142zM-10 0l132 541h149l-12 -50q61 59 126 59q59 0 94.5 -36.5t35.5 -101.5q0 -35 -18 -109l-73 -303h-150l74 304q9 36 9 58q0 52 -52 52q-33 0 -55.5 -25t-31.5 -66l-79 -323h-149z" />
    <glyph glyph-name="Omacron" unicode="&#x14c;" horiz-adv-x="697" 
d="M289 756l28 104h343l-27 -104h-344zM421 711q121 0 192.5 -78.5t71.5 -205.5q0 -91 -34 -184t-96 -155q-99 -99 -241 -99q-121 0 -192.5 78.5t-71.5 205.5q0 91 34.5 184.5t95.5 154.5q99 99 241 99zM333 129q59 0 107 48q40 40 64.5 109.5t24.5 129.5q0 74 -32.5 114.5
t-94.5 40.5q-61 0 -107 -48q-40 -40 -64.5 -109.5t-24.5 -129.5q0 -74 32.5 -114.5t94.5 -40.5z" />
    <glyph glyph-name="omacron" unicode="&#x14d;" horiz-adv-x="561" 
d="M195 590l27 102h318l-26 -102h-319zM309 550q102 0 161 -64.5t59 -169.5q0 -71 -26 -137.5t-72 -113.5q-76 -76 -178 -76q-101 0 -160.5 64.5t-59.5 169.5q0 72 26 138.5t72 112.5q76 76 178 76zM259 117q36 0 64 28t44.5 76t16.5 91q0 54 -21.5 82t-59.5 28
q-36 0 -64 -28t-44.5 -76t-16.5 -91q0 -54 21.5 -82t59.5 -28z" />
    <glyph glyph-name="Obreve" unicode="&#x14e;" horiz-adv-x="697" 
d="M458 755q-75 0 -115 37t-30 105h95q9 -45 69 -45q56 0 84 45h108q-24 -68 -80 -105t-131 -37zM421 711q121 0 192.5 -78.5t71.5 -205.5q0 -91 -34 -184t-96 -155q-99 -99 -241 -99q-121 0 -192.5 78.5t-71.5 205.5q0 91 34.5 184.5t95.5 154.5q99 99 241 99zM333 129
q59 0 107 48q40 40 64.5 109.5t24.5 129.5q0 74 -32.5 114.5t-94.5 40.5q-61 0 -107 -48q-40 -40 -64.5 -109.5t-24.5 -129.5q0 -74 32.5 -114.5t94.5 -40.5z" />
    <glyph glyph-name="obreve" unicode="&#x14f;" horiz-adv-x="561" 
d="M309 550q102 0 161 -64.5t59 -169.5q0 -71 -26 -137.5t-72 -113.5q-76 -76 -178 -76q-101 0 -160.5 64.5t-59.5 169.5q0 72 26 138.5t72 112.5q76 76 178 76zM259 117q36 0 64 28t44.5 76t16.5 91q0 54 -21.5 82t-59.5 28q-36 0 -64 -28t-44.5 -76t-16.5 -91
q0 -54 21.5 -82t59.5 -28zM368 589q-79 0 -118 43t-39 110h103q2 -24 18 -40.5t41 -16.5q32 0 51.5 14.5t36.5 42.5h102q-23 -69 -73 -111t-122 -42z" />
    <glyph glyph-name="Ohungarumlaut" unicode="&#x150;" horiz-adv-x="697" 
d="M421 711q121 0 192.5 -78.5t71.5 -205.5q0 -91 -34 -184t-96 -155q-99 -99 -241 -99q-121 0 -192.5 78.5t-71.5 205.5q0 91 34.5 184.5t95.5 154.5q99 99 241 99zM333 129q59 0 107 48q40 40 64.5 109.5t24.5 129.5q0 74 -32.5 114.5t-94.5 40.5q-61 0 -107 -48
q-40 -40 -64.5 -109.5t-24.5 -129.5q0 -74 32.5 -114.5t94.5 -40.5zM292 755l150 153l117 -55l-151 -98h-116zM472 755l151 153l116 -55l-150 -98h-117z" />
    <glyph glyph-name="ohungarumlaut" unicode="&#x151;" horiz-adv-x="561" 
d="M159 590l147 174l111 -56l-152 -118h-106zM334 590l150 174l110 -56l-153 -118h-107zM309 550q102 0 161 -64.5t59 -169.5q0 -71 -26 -137.5t-72 -113.5q-76 -76 -178 -76q-101 0 -160.5 64.5t-59.5 169.5q0 72 26 138.5t72 112.5q76 76 178 76zM259 117q36 0 64 28
t44.5 76t16.5 91q0 54 -21.5 82t-59.5 28q-36 0 -64 -28t-44.5 -76t-16.5 -91q0 -54 21.5 -82t59.5 -28z" />
    <glyph glyph-name="OE" unicode="&#x152;" horiz-adv-x="889" 
d="M352 0q-152 0 -233 81q-67 67 -67 202q0 80 31.5 163t92.5 144q110 110 311 110h460l-35 -135h-278l-32 -146h241l-35 -133h-241l-35 -151h284l-36 -135h-428zM246 175q38 -38 118 -38h17l101 426h-14q-114 0 -180 -66q-38 -39 -58.5 -97t-20.5 -112q0 -76 37 -113z" />
    <glyph glyph-name="oe" unicode="&#x153;" horiz-adv-x="879" 
d="M831 217h-310q2 -51 24.5 -79.5t64.5 -28.5q48 0 102 39l63 -100q-75 -58 -169 -58q-125 0 -177 90q-75 -91 -175 -91q-102 0 -161.5 64.5t-59.5 169.5q0 71 26 137.5t72 113.5q76 76 178 76q121 0 172 -95q76 95 188 95q84 0 136 -55.5t52 -145.5q0 -62 -26 -132z
M259 117q36 0 64 28t44.5 76t16.5 91q0 54 -21.5 82t-59.5 28q-36 0 -64 -28t-44.5 -76t-16.5 -91q0 -54 21.5 -82t59.5 -28zM582 398q-30 -30 -48 -88h180q6 22 6 47q0 33 -17 53t-49 20q-40 0 -72 -32z" />
    <glyph glyph-name="Racute" unicode="&#x154;" horiz-adv-x="626" 
d="M366 0l-85 222h-74l-52 -222h-152l171 700h201q139 0 204 -65q54 -56 54 -144q0 -109 -65 -176q-17 -17 -26.5 -25.5t-38 -24.5t-63.5 -26l96 -239h-170zM243 355h81q79 0 119 39q32 34 32 85q0 37 -23 59q-24 25 -87 25h-74zM342 747l151 153l123 -55l-151 -98h-123z
" />
    <glyph glyph-name="racute" unicode="&#x155;" horiz-adv-x="365" 
d="M209 589l149 174l122 -56l-150 -118h-121zM-10 0l132 541h149l-21 -85q33 51 71.5 75t91.5 19l-42 -155h-8q-66 0 -106.5 -36t-60.5 -121l-57 -238h-149z" />
    <glyph glyph-name="Rcommaaccent" unicode="&#x156;" horiz-adv-x="626" 
d="M366 0l-85 222h-74l-52 -222h-152l171 700h201q139 0 204 -65q54 -56 54 -144q0 -109 -65 -176q-17 -17 -26.5 -25.5t-38 -24.5t-63.5 -26l96 -239h-170zM243 355h81q79 0 119 39q32 34 32 85q0 37 -23 59q-24 25 -87 25h-74zM116 -276l2 45q77 11 84 70h-60l28 111h131
l-25 -96q-17 -65 -56 -95t-104 -35z" />
    <glyph glyph-name="rcommaaccent" unicode="&#x157;" horiz-adv-x="365" 
d="M-61 -279l2 45q77 11 84 70h-60l28 111h131l-25 -96q-17 -65 -56 -95t-104 -35zM-10 0l132 541h149l-21 -85q33 51 71.5 75t91.5 19l-42 -155h-8q-66 0 -106.5 -36t-60.5 -121l-57 -238h-149z" />
    <glyph glyph-name="Rcaron" unicode="&#x158;" horiz-adv-x="626" 
d="M366 0l-85 222h-74l-52 -222h-152l171 700h201q139 0 204 -65q54 -56 54 -144q0 -109 -65 -176q-17 -17 -26.5 -25.5t-38 -24.5t-63.5 -26l96 -239h-170zM243 355h81q79 0 119 39q32 34 32 85q0 37 -23 59q-24 25 -87 25h-74zM638 893l-154 -144h-142l-82 144h108l60 -56
l85 56h125z" />
    <glyph glyph-name="rcaron" unicode="&#x159;" horiz-adv-x="365" 
d="M182 590l-73 157h107l54 -68l86 68h118l-150 -157h-142zM-10 0l132 541h149l-21 -85q33 51 71.5 75t91.5 19l-42 -155h-8q-66 0 -106.5 -36t-60.5 -121l-57 -238h-149z" />
    <glyph glyph-name="Sacute" unicode="&#x15a;" horiz-adv-x="540" 
d="M244 -10q-163 0 -258 128l113 98q81 -92 152 -92q32 0 52 18t20 45q0 22 -19 44.5t-71 60.5q-67 50 -100 95.5t-33 100.5q0 89 60 151q71 71 176 71q133 0 230 -104l-104 -105q-70 75 -131 75q-33 0 -51.5 -18t-18.5 -43q0 -23 18 -44.5t71 -59.5q66 -48 100 -94t34 -105
q0 -91 -63 -154q-68 -68 -177 -68zM308 755l151 153l123 -55l-151 -98h-123z" />
    <glyph glyph-name="sacute" unicode="&#x15b;" horiz-adv-x="427" 
d="M218 590l149 174l122 -56l-150 -118h-121zM183 -10q-122 0 -213 99l86 90q70 -76 130 -76q23 0 36.5 12t13.5 30q0 19 -14.5 33t-60.5 47q-54 39 -79 73.5t-25 80.5q0 70 52.5 120t138.5 50q105 0 188 -83l-79 -95q-68 65 -116 65q-18 0 -30.5 -11t-12.5 -28
q0 -18 14 -32t60 -46q58 -39 82 -76.5t24 -82.5q0 -72 -55 -121t-140 -49z" />
    <glyph glyph-name="Scedilla" unicode="&#x15e;" horiz-adv-x="540" 
d="M157 -160l-112 51l103 112q-100 30 -162 115l113 98q81 -92 152 -92q32 0 52 18t20 45q0 22 -19 44.5t-71 60.5q-67 50 -100 95.5t-33 100.5q0 89 60 151q71 71 176 71q133 0 230 -104l-104 -105q-70 75 -131 75q-33 0 -51.5 -18t-18.5 -43q0 -23 18 -44.5t71 -59.5
q66 -48 100 -94t34 -105q0 -91 -63 -154q-65 -65 -172 -68z" />
    <glyph glyph-name="scedilla" unicode="&#x15f;" horiz-adv-x="427" 
d="M105 -160l-112 51l103 113q-69 24 -126 85l86 90q70 -76 130 -76q23 0 36.5 12t13.5 30q0 19 -14.5 33t-60.5 47q-54 39 -79 73.5t-25 80.5q0 70 52.5 120t138.5 50q105 0 188 -83l-79 -95q-68 65 -116 65q-18 0 -30.5 -11t-12.5 -28q0 -18 14 -32t60 -46
q58 -39 82 -76.5t24 -82.5q0 -68 -50.5 -116.5t-129.5 -52.5z" />
    <glyph glyph-name="Scaron" unicode="&#x160;" horiz-adv-x="540" 
d="M244 -10q-163 0 -258 128l113 98q81 -92 152 -92q32 0 52 18t20 45q0 22 -19 44.5t-71 60.5q-67 50 -100 95.5t-33 100.5q0 89 60 151q71 71 176 71q133 0 230 -104l-104 -105q-70 75 -131 75q-33 0 -51.5 -18t-18.5 -43q0 -23 18 -44.5t71 -59.5q66 -48 100 -94t34 -105
q0 -91 -63 -154q-68 -68 -177 -68zM603 901l-154 -144h-142l-82 144h108l60 -56l85 56h125z" />
    <glyph glyph-name="scaron" unicode="&#x161;" horiz-adv-x="427" 
d="M193 591l-73 157h107l54 -68l86 68h118l-150 -157h-142zM183 -10q-122 0 -213 99l86 90q70 -76 130 -76q23 0 36.5 12t13.5 30q0 19 -14.5 33t-60.5 47q-54 39 -79 73.5t-25 80.5q0 70 52.5 120t138.5 50q105 0 188 -83l-79 -95q-68 65 -116 65q-18 0 -30.5 -11
t-12.5 -28q0 -18 14 -32t60 -46q58 -39 82 -76.5t24 -82.5q0 -72 -55 -121t-140 -49z" />
    <glyph glyph-name="Tcommaaccent" unicode="&#x162;" horiz-adv-x="522" 
d="M64 -279l2 45q77 11 84 70h-60l28 111h131l-25 -96q-17 -65 -56 -95t-104 -35zM119 0l134 560h-173l37 140h498l-37 -140h-173l-135 -560h-151z" />
    <glyph glyph-name="tcommaaccent" unicode="&#x163;" horiz-adv-x="358" 
d="M4 -279l2 45q77 11 84 70h-60l28 111h131l-25 -96q-17 -65 -56 -95t-104 -35zM158 -7q-57 0 -87.5 28t-30.5 76q0 22 11 70l60 246h-58l33 128h56l32 132h150l-32 -132h95l-33 -128h-93l-60 -243q-3 -14 -3 -22q0 -23 30 -23q33 0 63 15l-32 -126q-40 -21 -101 -21z" />
    <glyph glyph-name="Tcaron" unicode="&#x164;" horiz-adv-x="522" 
d="M606 893l-154 -144h-142l-82 144h108l60 -56l85 56h125zM119 0l134 560h-173l37 140h498l-37 -140h-173l-135 -560h-151z" />
    <glyph glyph-name="tcaron" unicode="&#x165;" horiz-adv-x="358" 
d="M341 584l49 208h112v-3l-103 -205h-58zM158 -7q-57 0 -87.5 28t-30.5 76q0 22 11 70l60 246h-58l33 128h56l32 132h150l-32 -132h95l-33 -128h-93l-60 -243q-3 -14 -3 -22q0 -23 30 -23q33 0 63 15l-32 -126q-40 -21 -101 -21z" />
    <glyph glyph-name="Umacron" unicode="&#x16a;" horiz-adv-x="657" 
d="M267 748l28 104h343l-27 -104h-344zM287 -11q-104 0 -165 55t-61 156q0 45 17 108l94 392h151l-97 -403q-11 -44 -11 -76q0 -43 24 -67.5t64 -24.5q51 0 84 31q37 37 55 112l103 428h151l-108 -449q-32 -127 -94 -189q-73 -73 -207 -73z" />
    <glyph glyph-name="umacron" unicode="&#x16b;" horiz-adv-x="543" 
d="M554 541l-132 -541h-149l12 50q-61 -59 -126 -59q-59 0 -94.5 36.5t-35.5 101.5q0 35 18 109l73 303h150l-74 -304q-9 -36 -9 -58q0 -52 52 -52q33 0 55.5 25t31.5 66l79 323h149zM187 588l27 102h318l-26 -102h-319z" />
    <glyph glyph-name="Ubreve" unicode="&#x16c;" horiz-adv-x="657" 
d="M433 738q-75 0 -115 37t-30 105h95q9 -45 69 -45q56 0 84 45h108q-24 -68 -80 -105t-131 -37zM287 -11q-104 0 -165 55t-61 156q0 45 17 108l94 392h151l-97 -403q-11 -44 -11 -76q0 -43 24 -67.5t64 -24.5q51 0 84 31q37 37 55 112l103 428h151l-108 -449
q-32 -127 -94 -189q-73 -73 -207 -73z" />
    <glyph glyph-name="ubreve" unicode="&#x16d;" horiz-adv-x="543" 
d="M554 541l-132 -541h-149l12 50q-61 -59 -126 -59q-59 0 -94.5 36.5t-35.5 101.5q0 35 18 109l73 303h150l-74 -304q-9 -36 -9 -58q0 -52 52 -52q33 0 55.5 25t31.5 66l79 323h149zM360 587q-79 0 -118 43t-39 110h103q2 -24 18 -40.5t41 -16.5q32 0 51.5 14.5t36.5 42.5
h102q-23 -69 -73 -111t-122 -42z" />
    <glyph glyph-name="Uring" unicode="&#x16e;" horiz-adv-x="657" 
d="M287 -11q-104 0 -165 55t-61 156q0 45 17 108l94 392h151l-97 -403q-11 -44 -11 -76q0 -43 24 -67.5t64 -24.5q51 0 84 31q37 37 55 112l103 428h151l-108 -449q-32 -127 -94 -189q-73 -73 -207 -73zM462 929q46 0 76.5 -27t30.5 -65q0 -48 -32.5 -82t-92.5 -34
q-45 0 -76 27.5t-31 65.5q0 48 32.5 81.5t92.5 33.5zM447 773q30 0 47 18t17 40q0 21 -14.5 34t-37.5 13q-30 0 -47 -18t-17 -40q0 -20 14.5 -33.5t37.5 -13.5z" />
    <glyph glyph-name="uring" unicode="&#x16f;" horiz-adv-x="543" 
d="M475 698q0 -50 -33 -87t-85 -37q-45 0 -72.5 27t-27.5 68q0 49 33.5 87t84.5 38q45 0 72.5 -27.5t27.5 -68.5zM312 674q0 -24 13.5 -38t34.5 -14q27 0 43.5 22t16.5 49q0 24 -13 38t-34 14q-27 0 -44 -22t-17 -49zM554 541l-132 -541h-149l12 50q-61 -59 -126 -59
q-59 0 -94.5 36.5t-35.5 101.5q0 35 18 109l73 303h150l-74 -304q-9 -36 -9 -58q0 -52 52 -52q33 0 55.5 25t31.5 66l79 323h149z" />
    <glyph glyph-name="Uhungarumlaut" unicode="&#x170;" horiz-adv-x="657" 
d="M287 -11q-104 0 -165 55t-61 156q0 45 17 108l94 392h151l-97 -403q-11 -44 -11 -76q0 -43 24 -67.5t64 -24.5q51 0 84 31q37 37 55 112l103 428h151l-108 -449q-32 -127 -94 -189q-73 -73 -207 -73zM270 747l150 153l117 -55l-151 -98h-116zM450 747l151 153l116 -55
l-150 -98h-117z" />
    <glyph glyph-name="uhungarumlaut" unicode="&#x171;" horiz-adv-x="543" 
d="M554 541l-132 -541h-149l12 50q-61 -59 -126 -59q-59 0 -94.5 36.5t-35.5 101.5q0 35 18 109l73 303h150l-74 -304q-9 -36 -9 -58q0 -52 52 -52q33 0 55.5 25t31.5 66l79 323h149zM152 588l147 174l111 -56l-152 -118h-106zM327 588l150 174l110 -56l-153 -118h-107z" />
    <glyph glyph-name="Uogonek" unicode="&#x172;" horiz-adv-x="657" 
d="M331 -83l-17 -66q-25 -4 -53 -4q-43 -1 -68.5 15t-25.5 45q0 40 51 89q-74 16 -115.5 68.5t-41.5 135.5q0 45 17 108l94 392h151l-97 -403q-11 -44 -11 -76q0 -43 24 -67.5t64 -24.5q51 0 84 31q37 37 55 112l103 428h151l-108 -449q-32 -127 -94 -189q-67 -67 -187 -73
q-26 -34 -26 -49q0 -26 50 -23z" />
    <glyph glyph-name="uogonek" unicode="&#x173;" horiz-adv-x="543" 
d="M554 541l-132 -541h-20q-34 -43 -34 -60q0 -26 50 -23l-17 -66q-25 -4 -53 -4q-43 -1 -68.5 15t-25.5 45q0 43 55 93h-36l12 50q-61 -59 -126 -59q-59 0 -94.5 36.5t-35.5 101.5q0 35 18 109l73 303h150l-74 -304q-9 -36 -9 -58q0 -52 52 -52q33 0 55.5 25t31.5 66
l79 323h149z" />
    <glyph glyph-name="Wcircumflex" unicode="&#x174;" horiz-adv-x="966" 
d="M145 -5l-26 705h156l-3 -470l238 472h132l20 -472l218 470h171l-371 -705h-142l-20 450l-232 -450h-141zM394 749l154 144h142l83 -144h-109l-59 55l-86 -55h-125z" />
    <glyph glyph-name="wcircumflex" unicode="&#x175;" horiz-adv-x="751" 
d="M260 590l151 157h142l73 -157h-107l-54 69l-86 -69h-119zM88 -4l-5 545h151l-15 -329l156 330h131l2 -331l142 330h147l-274 -545h-135l-4 331l-161 -331h-135z" />
    <glyph glyph-name="Ycircumflex" unicode="&#x176;" horiz-adv-x="553" 
d="M130 0l68 282l-111 418h167l51 -281l185 281h180l-322 -429l-67 -271h-151zM185 749l154 144h142l83 -144h-109l-59 55l-86 -55h-125z" />
    <glyph glyph-name="ycircumflex" unicode="&#x177;" horiz-adv-x="517" 
d="M129 -5l-40 546h152l1 -364l162 364h159l-286 -549q-41 -78 -81.5 -111.5t-98.5 -33.5q-70 0 -119 47l71 99q26 -22 47 -22t33 24zM145 589l151 157h142l73 -157h-107l-54 69l-86 -69h-119z" />
    <glyph glyph-name="Ydieresis" unicode="&#x178;" horiz-adv-x="553" 
d="M130 0l68 282l-111 418h167l51 -281l185 281h180l-322 -429l-67 -271h-151zM214 750l31 123h139l-32 -123h-138zM409 750l32 123h139l-32 -123h-139z" />
    <glyph glyph-name="Zacute" unicode="&#x179;" horiz-adv-x="586" 
d="M-19 0l30 116l403 452h-290l35 132h486l-30 -116l-404 -452h303l-34 -132h-499zM337 747l151 153l123 -55l-151 -98h-123z" />
    <glyph glyph-name="zacute" unicode="&#x17a;" horiz-adv-x="467" 
d="M240 589l149 174l122 -56l-150 -118h-121zM-28 0l27 107l282 314h-205l31 120h387l-27 -107l-284 -313h214l-31 -121h-394z" />
    <glyph glyph-name="Zdotaccent" unicode="&#x17b;" horiz-adv-x="586" 
d="M332 750l31 123h143l-32 -123h-142zM-19 0l30 116l403 452h-290l35 132h486l-30 -116l-404 -452h303l-34 -132h-499z" />
    <glyph glyph-name="zdotaccent" unicode="&#x17c;" horiz-adv-x="467" 
d="M-28 0l27 107l282 314h-205l31 120h387l-27 -107l-284 -313h214l-31 -121h-394zM229 593l34 128h144l-34 -128h-144z" />
    <glyph glyph-name="Zcaron" unicode="&#x17d;" horiz-adv-x="586" 
d="M632 893l-154 -144h-142l-82 144h108l60 -56l85 56h125zM-19 0l30 116l403 452h-290l35 132h486l-30 -116l-404 -452h303l-34 -132h-499z" />
    <glyph glyph-name="zcaron" unicode="&#x17e;" horiz-adv-x="467" 
d="M215 590l-73 157h107l54 -68l86 68h118l-150 -157h-142zM-28 0l27 107l282 314h-205l31 120h387l-27 -107l-284 -313h214l-31 -121h-394z" />
    <glyph glyph-name="florin" unicode="&#x192;" horiz-adv-x="481" 
d="M54 -8q-48 0 -88 14l31 118q24 -8 44 -8q41 0 62 55l68 174h-59l32 123h75l38 98q56 142 190 142q62 0 109 -21l-31 -125q-34 18 -66 18q-52 0 -76 -61l-20 -51h105l-32 -123h-121l-86 -222q-51 -131 -175 -131z" />
    <glyph glyph-name="Aringacute" unicode="&#x1fa;" horiz-adv-x="658" 
d="M-53 0l401 675q-16 24 -16 50q0 48 33 81.5t93 33.5q45 0 76 -27.5t31 -65.5q0 -59 -46 -92l69 -655h-155l-12 157h-225l-87 -157h-162zM409 865l152 130l122 -55l-151 -75h-123zM281 291h125l-11 229zM442 684q30 0 47 18t17 39t-14.5 34.5t-36.5 13.5q-30 0 -47 -18.5
t-17 -40.5q0 -20 14 -33t37 -13z" />
    <glyph glyph-name="aringacute" unicode="&#x1fb;" horiz-adv-x="513" 
d="M336 843l148 141l121 -55l-150 -86h-119zM135 -9q-63 0 -99 40t-36 102q0 86 55 141q57 57 155 57q56 0 117 -23l2 9q7 30 7 49q0 53 -77 53q-52 0 -117 -29l-33 119q82 37 176 37q96 0 146.5 -38.5t50.5 -108.5q0 -41 -16 -105l-70 -294h-145l13 56q-57 -65 -129 -65z
M201 92q36 0 62 29.5t36 70.5l8 35q-34 15 -68 15q-42 0 -65 -25q-26 -26 -26 -69q0 -25 14.5 -40.5t38.5 -15.5zM467 712q0 -50 -33 -87t-85 -37q-45 0 -72.5 27t-27.5 68q0 49 33.5 87t84.5 38q45 0 72.5 -27.5t27.5 -68.5zM304 688q0 -24 13.5 -38t34.5 -14q27 0 43.5 22
t16.5 49q0 24 -13 38t-34 14q-27 0 -44 -22t-17 -49z" />
    <glyph glyph-name="AEacute" unicode="&#x1fc;" horiz-adv-x="887" 
d="M547 747l151 153l123 -55l-151 -98h-123zM-66 0l479 700h532l-36 -135h-277l-32 -146h241l-35 -133h-241l-35 -151h283l-35 -135h-432l37 157h-186l-101 -157h-162zM298 291h120l65 278h-14z" />
    <glyph glyph-name="aeacute" unicode="&#x1fd;" horiz-adv-x="805" 
d="M529 -10q-128 0 -178 102q-79 -101 -200 -101q-76 0 -113.5 38.5t-37.5 103.5q0 86 55 141q57 57 155 57q56 0 117 -23l2 9q7 32 7 49q0 53 -77 53q-52 0 -117 -29l-33 119q82 37 177 37q111 0 150 -70q72 74 164 74q80 0 131.5 -56t51.5 -145q0 -62 -26 -132h-310
q2 -51 24.5 -79.5t64.5 -28.5q48 0 102 39l63 -100q-75 -58 -172 -58zM402 589l149 174l122 -56l-150 -118h-121zM210 92q28 0 61 20.5t56 51.5q-3 26 -3 55q-40 23 -82 23q-45 0 -68 -25q-26 -26 -26 -69q0 -56 62 -56zM508 398q-30 -30 -48 -88h180q6 23 6 47q0 33 -17 53
t-49 20q-40 0 -72 -32z" />
    <glyph glyph-name="Oslashacute" unicode="&#x1fe;" horiz-adv-x="697" 
d="M421 711q98 0 165 -53l44 48h139l-119 -126q35 -68 35 -153q0 -91 -34 -184t-96 -155q-99 -99 -241 -99q-99 0 -166 53l-43 -47h-139l118 125q-34 66 -34 153q0 91 34.5 184.5t95.5 154.5q99 99 241 99zM332 122q62 0 111 51q40 40 66 111t26 136q0 22 -3 41l-281 -315
q30 -24 81 -24zM200 281q0 -23 3 -41l281 314q-34 24 -81 24q-63 0 -111 -50q-40 -40 -66 -111.5t-26 -135.5zM388 755l151 153l123 -55l-151 -98h-123z" />
    <glyph glyph-name="oslashacute" unicode="&#x1ff;" horiz-adv-x="561" 
d="M309 550q80 0 136 -43l35 37h125l-104 -105q28 -54 28 -123q0 -71 -26 -137.5t-72 -113.5q-76 -76 -178 -76q-82 0 -136 42l-35 -37h-125l103 106q-27 56 -27 123q0 72 26 138.5t72 112.5q76 76 178 76zM287 590l149 174l122 -56l-150 -118h-121zM307 428q-40 0 -72 -32
q-29 -29 -45.5 -76.5t-16.5 -92.5v-17l179 204q-19 14 -45 14zM389 312q0 11 -1 16l-179 -203q20 -14 46 -14q40 0 72 32q29 29 45.5 76.5t16.5 92.5z" />
    <glyph glyph-name="Scommaaccent" unicode="&#x218;" horiz-adv-x="540" 
d="M77 -283l2 45q77 11 84 70h-60l28 111h131l-25 -96q-17 -65 -56 -95t-104 -35zM244 -10q-163 0 -258 128l113 98q81 -92 152 -92q32 0 52 18t20 45q0 22 -19 44.5t-71 60.5q-67 50 -100 95.5t-33 100.5q0 89 60 151q71 71 176 71q133 0 230 -104l-104 -105
q-70 75 -131 75q-33 0 -51.5 -18t-18.5 -43q0 -23 18 -44.5t71 -59.5q66 -48 100 -94t34 -105q0 -91 -63 -154q-68 -68 -177 -68z" />
    <glyph glyph-name="scommaaccent" unicode="&#x219;" horiz-adv-x="427" 
d="M14 -279l2 45q77 11 84 70h-60l28 111h131l-25 -96q-17 -65 -56 -95t-104 -35zM183 -10q-122 0 -213 99l86 90q70 -76 130 -76q23 0 36.5 12t13.5 30q0 19 -14.5 33t-60.5 47q-54 39 -79 73.5t-25 80.5q0 70 52.5 120t138.5 50q105 0 188 -83l-79 -95q-68 65 -116 65
q-18 0 -30.5 -11t-12.5 -28q0 -18 14 -32t60 -46q58 -39 82 -76.5t24 -82.5q0 -72 -55 -121t-140 -49z" />
    <glyph glyph-name="schwa" unicode="&#x259;" horiz-adv-x="528" 
d="M22 192q0 62 26 132h310q-2 51 -24.5 79.5t-64.5 28.5q-48 0 -102 -39l-63 100q75 58 172 58q104 0 162 -63t58 -172q0 -70 -26.5 -135.5t-73.5 -112.5q-77 -77 -182 -77q-87 0 -139.5 55.5t-52.5 145.5zM297 143q30 30 48 88h-180q-6 -23 -6 -47q0 -33 17 -53t49 -20
q40 0 72 32z" />
    <glyph glyph-name="circumflex" unicode="&#x2c6;" horiz-adv-x="500" 
d="M145 590l151 157h142l73 -157h-107l-54 69l-86 -69h-119z" />
    <glyph glyph-name="caron" unicode="&#x2c7;" horiz-adv-x="500" 
d="M254 590l-73 157h107l54 -68l86 68h118l-150 -157h-142z" />
    <glyph glyph-name="breve" unicode="&#x2d8;" horiz-adv-x="500" 
d="M347 588q-79 0 -118 43t-39 110h103q2 -24 18 -40.5t41 -16.5q32 0 51.5 14.5t36.5 42.5h102q-23 -69 -73 -111t-122 -42z" />
    <glyph glyph-name="dotaccent" unicode="&#x2d9;" horiz-adv-x="500" 
d="M258 593l34 128h144l-34 -128h-144z" />
    <glyph glyph-name="ring" unicode="&#x2da;" horiz-adv-x="500" 
d="M463 712q0 -50 -33 -87t-85 -37q-45 0 -72.5 27t-27.5 68q0 49 33.5 87t84.5 38q45 0 72.5 -27.5t27.5 -68.5zM300 688q0 -24 13.5 -38t34.5 -14q27 0 43.5 22t16.5 49q0 24 -13 38t-34 14q-27 0 -44 -22t-17 -49z" />
    <glyph glyph-name="ogonek" unicode="&#x2db;" horiz-adv-x="500" 
d="M261 -83l-17 -66q-25 -4 -53 -4q-43 -1 -68.5 15t-25.5 45q0 43 61 98l96 6q-3 -4 -8 -10.5t-7.5 -9.5t-6 -8t-5.5 -7.5t-5 -6.5t-4 -6.5t-3 -6t-2.5 -6l-1 -5t-0.5 -5.5q0 -26 50 -23z" />
    <glyph glyph-name="tilde" unicode="&#x2dc;" horiz-adv-x="500" 
d="M465 746l79 -27q-28 -65 -57 -97.5t-75 -32.5q-39 0 -81 24q-33 18 -47 18q-32 0 -58 -48l-79 27q27 65 56.5 97.5t75.5 32.5q35 0 81 -23q30 -18 47 -18q19 0 31.5 11t26.5 36z" />
    <glyph glyph-name="hungarumlaut" unicode="&#x2dd;" horiz-adv-x="500" 
d="M128 589l147 174l111 -56l-152 -118h-106zM303 589l150 174l110 -56l-153 -118h-107z" />
    <glyph glyph-name="commaaccent" unicode="&#x326;" horiz-adv-x="500" 
d="M56 -279l2 45q77 11 84 70h-60l28 111h131l-25 -96q-17 -65 -56 -95t-104 -35z" />
    <glyph glyph-name="baht" unicode="&#xe3f;" horiz-adv-x="566" 
d="M390 780h93l-30 -89q70 -16 105.5 -59t35.5 -104q0 -73 -41.5 -121.5t-112.5 -68.5q79 -46 79 -123q0 -97 -73.5 -154.5t-203.5 -60.5l-37 -118h-93l37 118h-164l172 700h207zM217 407h63l51 169h-71zM381 225q0 55 -56 69l-50 -170q49 3 77.5 30t28.5 71zM149 124h47
l52 175h-57zM456 503q0 48 -49 65l-48 -160q45 5 71 29.5t26 65.5z" />
    <glyph glyph-name="Wgrave" unicode="&#x1e80;" horiz-adv-x="966" 
d="M534 747l-109 98l131 55l81 -153h-103zM145 -5l-26 705h156l-3 -470l238 472h132l20 -472l218 470h171l-371 -705h-142l-20 450l-232 -450h-141z" />
    <glyph glyph-name="wgrave" unicode="&#x1e81;" horiz-adv-x="751" 
d="M88 -4l-5 545h151l-15 -329l156 330h131l2 -331l142 330h147l-274 -545h-135l-4 331l-161 -331h-135zM391 589l-95 118l127 56l70 -174h-102z" />
    <glyph glyph-name="Wacute" unicode="&#x1e82;" horiz-adv-x="966" 
d="M524 747l151 153l123 -55l-151 -98h-123zM145 -5l-26 705h156l-3 -470l238 472h132l20 -472l218 470h171l-371 -705h-142l-20 450l-232 -450h-141z" />
    <glyph glyph-name="wacute" unicode="&#x1e83;" horiz-adv-x="751" 
d="M388 589l149 174l122 -56l-150 -118h-121zM88 -4l-5 545h151l-15 -329l156 330h131l2 -331l142 330h147l-274 -545h-135l-4 331l-161 -331h-135z" />
    <glyph glyph-name="Wdieresis" unicode="&#x1e84;" horiz-adv-x="966" 
d="M423 750l31 123h139l-32 -123h-138zM618 750l32 123h139l-32 -123h-139zM145 -5l-26 705h156l-3 -470l238 472h132l20 -472l218 470h171l-371 -705h-142l-20 450l-232 -450h-141z" />
    <glyph glyph-name="wdieresis" unicode="&#x1e85;" horiz-adv-x="751" 
d="M284 592l33 130h139l-34 -130h-138zM476 592l34 130h138l-33 -130h-139zM88 -4l-5 545h151l-15 -329l156 330h131l2 -331l142 330h147l-274 -545h-135l-4 331l-161 -331h-135z" />
    <glyph glyph-name="Ygrave" unicode="&#x1ef2;" horiz-adv-x="553" 
d="M130 0l68 282l-111 418h167l51 -281l185 281h180l-322 -429l-67 -271h-151zM326 747l-109 98l131 55l81 -153h-103z" />
    <glyph glyph-name="ygrave" unicode="&#x1ef3;" horiz-adv-x="517" 
d="M129 -5l-40 546h152l1 -364l162 364h159l-286 -549q-41 -78 -81.5 -111.5t-98.5 -33.5q-70 0 -119 47l71 99q26 -22 47 -22t33 24zM277 588l-95 118l127 56l70 -174h-102z" />
    <glyph glyph-name="enspace" unicode="&#x2002;" horiz-adv-x="500" 
 />
    <glyph glyph-name="emspace" unicode="&#x2003;" horiz-adv-x="1000" 
 />
    <glyph glyph-name="threeperemspace" unicode="&#x2004;" horiz-adv-x="333" 
 />
    <glyph glyph-name="fourperemspace" unicode="&#x2005;" horiz-adv-x="250" 
 />
    <glyph glyph-name="figurespace" unicode="&#x2007;" horiz-adv-x="530" 
 />
    <glyph glyph-name="thinspace" unicode="&#x2009;" horiz-adv-x="133" 
 />
    <glyph glyph-name="hairspace" unicode="&#x200a;" horiz-adv-x="75" 
 />
    <glyph glyph-name="endash" unicode="&#x2013;" horiz-adv-x="491" 
d="M34 240l36 139h406l-35 -139h-407z" />
    <glyph glyph-name="emdash" unicode="&#x2014;" horiz-adv-x="803" 
d="M34 240l36 139h718l-36 -139h-718z" />
    <glyph glyph-name="quoteleft" unicode="&#x2018;" horiz-adv-x="294" 
d="M76 386l34 134q24 96 77 139t143 46l11 -64q-60 -6 -89 -29t-37 -67h62l-40 -159h-161z" />
    <glyph glyph-name="quoteright" unicode="&#x2019;" horiz-adv-x="294" 
d="M74 381l-11 63q60 6 89.5 29.5t36.5 67.5h-62l40 159h161l-34 -134q-24 -96 -77 -139t-143 -46z" />
    <glyph glyph-name="quotesinglbase" unicode="&#x201a;" horiz-adv-x="294" 
d="M-52 -161l-11 64q60 6 89.5 29.5t36.5 67.5h-62l40 159h161l-34 -134q-23 -96 -76.5 -139.5t-143.5 -46.5z" />
    <glyph glyph-name="quotedblleft" unicode="&#x201c;" horiz-adv-x="533" 
d="M78 385l33 134q24 95 77.5 138.5t142.5 46.5l11 -64q-60 -6 -89 -29t-36 -67h62l-41 -159h-160zM316 385l34 134q24 96 77 139t143 46l11 -64q-60 -6 -89 -29t-37 -67h62l-40 -159h-161z" />
    <glyph glyph-name="quotedblright" unicode="&#x201d;" horiz-adv-x="533" 
d="M75 381l-11 63q60 6 89.5 29.5t36.5 67.5h-62l41 159h160l-33 -134q-24 -95 -77.5 -138.5t-143.5 -46.5zM314 381l-11 63q59 6 88.5 29.5t37.5 67.5h-62l40 159h161l-34 -134q-24 -96 -77 -139t-143 -46z" />
    <glyph glyph-name="quotedblbase" unicode="&#x201e;" horiz-adv-x="532" 
d="M-52 -161l-11 64q60 6 89.5 29.5t36.5 67.5h-62l40 159h161l-34 -134q-23 -96 -76.5 -139.5t-143.5 -46.5zM186 -161l-11 64q60 6 89.5 29.5t36.5 67.5h-62l41 159h160l-33 -134q-24 -96 -77.5 -139.5t-143.5 -46.5z" />
    <glyph glyph-name="dagger" unicode="&#x2020;" horiz-adv-x="357" 
d="M135 238l76 271l-111 -11l21 83l105 -11l17 130h91l-46 -130l110 11l-21 -83l-105 11l-54 -271h-83z" />
    <glyph glyph-name="daggerdbl" unicode="&#x2021;" horiz-adv-x="358" 
d="M72 0l47 130l-110 -11l21 83l104 -11l28 159l49 159l-111 -11l22 83l105 -11l17 130h91l-46 -130l110 11l-22 -83l-103 11l-27 -159l-50 -159l110 11l-21 -83l-104 11l-18 -130h-92z" />
    <glyph glyph-name="bullet" unicode="&#x2022;" horiz-adv-x="451" 
d="M273 500q49 0 77 -29t28 -78q0 -87 -58 -145q-41 -41 -96 -41q-50 0 -77.5 29t-27.5 78q0 87 58 145q41 41 96 41z" />
    <glyph glyph-name="ellipsis" unicode="&#x2026;" horiz-adv-x="807" 
d="M1 0l39 156h158l-40 -156h-157zM260 0l39 156h158l-40 -156h-157zM518 0l40 156h157l-39 -156h-158z" />
    <glyph glyph-name="perthousand" unicode="&#x2030;" horiz-adv-x="1102" 
d="M50 0l325 373l277 327h109l-324 -373l-277 -327h-110zM216 354q-63 0 -100.5 40t-37.5 111q0 96 60 154q48 48 114 48q63 0 101 -40.5t38 -110.5q0 -92 -60 -154q-48 -48 -115 -48zM222 440q21 0 39 16q34 36 34 99q0 32 -13 49.5t-35 17.5t-39 -17q-35 -33 -35 -98
q0 -32 13.5 -49.5t35.5 -17.5zM559 -7q-63 0 -100.5 40t-37.5 111q0 93 59 154q50 48 115 48q63 0 100.5 -40t37.5 -111q0 -95 -59 -154q-50 -48 -115 -48zM565 78q20 0 39 17q34 34 34 98q0 32 -13.5 49.5t-35.5 17.5q-21 0 -39 -16q-34 -36 -34 -99q0 -32 13.5 -49.5
t35.5 -17.5zM916 -7q-63 0 -100.5 40t-37.5 111q0 93 59 154q50 48 115 48q63 0 100.5 -40t37.5 -111q0 -95 -59 -154q-50 -48 -115 -48zM922 78q20 0 39 17q34 34 34 98q0 32 -13.5 49.5t-35.5 17.5q-21 0 -39 -16q-34 -36 -34 -99q0 -32 13.5 -49.5t35.5 -17.5z" />
    <glyph glyph-name="guilsinglleft" unicode="&#x2039;" horiz-adv-x="344" 
d="M153 33l-112 222l2 8l230 230l74 -73l-151 -174l66 -166z" />
    <glyph glyph-name="guilsinglright" unicode="&#x203a;" horiz-adv-x="344" 
d="M188 493l112 -222l-2 -8l-230 -230l-74 73l151 174l-66 166z" />
    <glyph glyph-name="fraction" unicode="&#x2044;" horiz-adv-x="88" 
d="M-292 0l312 367l273 333h86l-312 -367l-273 -333h-86z" />
    <glyph glyph-name="zero.sup" unicode="&#x2070;" 
d="M421 677q0 -58 -19.5 -114.5t-54.5 -91.5q-47 -47 -110 -47q-60 0 -96.5 37.5t-36.5 102.5q0 59 19 114.5t55 91.5q46 48 110 48q59 0 96 -38t37 -103zM195 568q0 -31 13.5 -47t35.5 -16q19 0 36 17q24 24 37 70.5t13 81.5q0 31 -13.5 46.5t-35.5 15.5q-20 0 -36 -16
q-24 -24 -37 -70.5t-13 -81.5z" />
    <glyph glyph-name="four.sup" unicode="&#x2074;" 
d="M244 432l19 77h-172l18 79l218 226h90l-58 -238h46l-18 -67h-46l-19 -77h-78zM183 575h98l31 138h-2z" />
    <glyph glyph-name="five.sup" unicode="&#x2075;" 
d="M224 424q-38 0 -80.5 16t-65.5 44l54 61q51 -41 93 -41q31 0 49.5 16.5t18.5 40.5q0 20 -16 32.5t-45 12.5q-13 0 -43 -10l-48 34l58 180h222l-18 -78h-150l-19 -61q10 2 37 2q51 0 83 -28.5t32 -78.5q0 -57 -44 -99.5t-118 -42.5z" />
    <glyph glyph-name="six.sup" unicode="&#x2076;" 
d="M244 423q-63 0 -95 36.5t-32 97.5q0 47 21.5 107.5t60.5 99.5q52 54 129 54q42 0 94 -31l-43 -66q-28 18 -59 18q-42 0 -70 -31q-20 -20 -32 -53q32 23 82 23q39 0 67.5 -25.5t28.5 -73.5q0 -63 -42 -109.5t-110 -46.5zM247 496q29 0 47.5 20.5t18.5 49.5q0 22 -13 33.5
t-35 11.5q-30 0 -47 -17q-18 -18 -18 -49q0 -24 13 -36.5t34 -12.5z" />
    <glyph glyph-name="seven.sup" unicode="&#x2077;" 
d="M100 430l216 300h-153l21 80h247l-19 -69l-220 -311h-92z" />
    <glyph glyph-name="eight.sup" unicode="&#x2078;" 
d="M238 424q-55 0 -94 29t-39 78q0 40 23.5 67t63.5 38q-44 27 -44 74q0 43 35.5 75.5t100.5 32.5q56 0 91.5 -29t35.5 -73q0 -36 -19.5 -61.5t-56.5 -34.5q50 -30 50 -79q0 -47 -39.5 -82t-107.5 -35zM243 491q26 0 44 14.5t18 37.5q1 20 -15 33.5t-43 13.5
q-26 0 -43.5 -15t-18.5 -37q0 -21 15.5 -34t42.5 -13zM280 658q21 0 37 13.5t16 35.5q0 18 -12.5 30t-38.5 12q-24 0 -40.5 -13t-16.5 -34q-1 -18 14 -31t41 -13z" />
    <glyph glyph-name="nine.sup" unicode="&#x2079;" 
d="M199 424q-51 0 -102 35l44 66q33 -23 66 -23q42 0 68 26q21 22 32 56q-29 -24 -82 -24q-39 0 -67.5 26t-28.5 75q0 62 43 109.5t110 47.5q63 0 95 -36.5t32 -97.5q0 -47 -20.5 -107.5t-58.5 -99.5q-55 -53 -131 -53zM261 626q29 0 46 18q18 18 18 51q0 50 -46 50
q-29 -1 -47.5 -22t-18.5 -51q0 -46 48 -46z" />
    <glyph glyph-name="zero.inf" unicode="&#x2080;" 
d="M286 113q0 -58 -19.5 -114.5t-54.5 -91.5q-47 -47 -110 -47q-60 0 -96.5 37.5t-36.5 102.5q0 59 19 114.5t55 91.5q46 48 110 48q59 0 96 -38t37 -103zM60 4q0 -31 13.5 -47t35.5 -16q19 0 36 17q24 24 37 70.5t13 81.5q0 31 -13.5 46.5t-35.5 15.5q-20 0 -36 -16
q-24 -24 -37 -70.5t-13 -81.5z" />
    <glyph glyph-name="one.inf" unicode="&#x2081;" horiz-adv-x="287" 
d="M25 -132l69 284l-73 -28l-7 75l125 49h64l-93 -380h-85z" />
    <glyph glyph-name="two.inf" unicode="&#x2082;" 
d="M-55 -132l19 72l174 134q46 38 46 65q0 15 -11.5 24.5t-30.5 9.5q-38 0 -85 -42l-51 60q62 62 139 62q59 0 94 -30t35 -77q0 -36 -17.5 -64.5t-75.5 -68.5l-98 -70h147l-19 -75h-266z" />
    <glyph glyph-name="three.inf" unicode="&#x2083;" 
d="M91 -140q-86 0 -140 56l54 61q2 -2 10 -8t11 -8t10 -7t12 -7t12.5 -4.5t15.5 -3.5t17 -1q26 0 43 16t17 35q0 42 -76 44h-22v53l109 83h-132l19 77h247l-16 -64l-126 -93q86 -17 86 -94q0 -59 -42 -97t-109 -38z" />
    <glyph glyph-name="four.inf" unicode="&#x2084;" 
d="M109 -132l19 77h-172l18 79l218 226h90l-58 -238h46l-18 -67h-46l-19 -77h-78zM48 11h98l31 138h-2z" />
    <glyph glyph-name="five.inf" unicode="&#x2085;" 
d="M89 -140q-38 0 -80.5 16t-65.5 44l54 61q51 -41 93 -41q31 0 49.5 16.5t18.5 40.5q0 20 -16 32.5t-45 12.5q-13 0 -43 -10l-48 34l58 180h222l-18 -78h-150l-19 -61q10 2 37 2q51 0 83 -28.5t32 -78.5q0 -57 -44 -99.5t-118 -42.5z" />
    <glyph glyph-name="six.inf" unicode="&#x2086;" 
d="M109 -141q-63 0 -95 36.5t-32 97.5q0 47 21.5 107.5t60.5 99.5q52 54 129 54q42 0 94 -31l-43 -66q-28 18 -59 18q-42 0 -70 -31q-20 -20 -32 -53q32 23 82 23q39 0 67.5 -25.5t28.5 -73.5q0 -63 -42 -109.5t-110 -46.5zM112 -68q29 0 47.5 20.5t18.5 49.5q0 22 -13 33.5
t-35 11.5q-30 0 -47 -17q-18 -18 -18 -49q0 -24 13 -36.5t34 -12.5z" />
    <glyph glyph-name="seven.inf" unicode="&#x2087;" 
d="M-31 -134l216 300h-153l21 80h247l-19 -69l-220 -311h-92z" />
    <glyph glyph-name="eight.inf" unicode="&#x2088;" 
d="M102 -140q-55 0 -94 29t-39 78q0 40 23.5 67t63.5 38q-44 27 -44 74q0 43 35.5 75.5t100.5 32.5q56 0 91.5 -29t35.5 -73q0 -36 -19.5 -61.5t-56.5 -34.5q50 -30 50 -79q0 -47 -39.5 -82t-107.5 -35zM107 -73q26 0 44 14.5t18 37.5q1 20 -15 33.5t-43 13.5
q-26 0 -43.5 -15t-18.5 -37q0 -21 15.5 -34t42.5 -13zM144 94q21 0 37 13.5t16 35.5q0 18 -12.5 30t-38.5 12q-24 0 -40.5 -13t-16.5 -34q-1 -18 14 -31t41 -13z" />
    <glyph glyph-name="nine.inf" unicode="&#x2089;" 
d="M64 -140q-51 0 -102 35l44 66q33 -23 66 -23q42 0 68 26q21 22 32 56q-29 -24 -82 -24q-39 0 -67.5 26t-28.5 75q0 62 43 109.5t110 47.5q63 0 95 -36.5t32 -97.5q0 -47 -20.5 -107.5t-58.5 -99.5q-55 -53 -131 -53zM126 62q30 0 46 18q18 18 18 51q0 50 -46 50
q-29 -1 -47.5 -22t-18.5 -51q0 -46 48 -46z" />
    <glyph glyph-name="colonmonetary" unicode="&#x20a1;" horiz-adv-x="546" 
d="M517 780h66l-42 -118q39 -21 70 -56l-86 -111q-22 24 -34 34l-136 -395q36 13 74 44l68 -104q-90 -74 -187 -75l-42 -117h-67l44 122q-25 4 -49 14l-48 -136h-66l59 167q-98 75 -98 229q0 93 32 183t91 149q84 84 202 90l29 80h66l-30 -82q25 -3 51 -11zM239 147
q24 -18 54 -21l150 434q-28 13 -56 14zM184 287q-1 -45 14 -84l125 361q-28 -11 -51 -34q-40 -41 -63.5 -109t-24.5 -134z" />
    <glyph glyph-name="naira" unicode="&#x20a6;" horiz-adv-x="736" 
d="M703 199h-98l-49 -199h-150l-48 199h-122l-49 -199h-143l48 199h-94l23 90h93l31 126h-95l24 90h93l48 195h160l47 -195h115l48 195h143l-48 -195h99l-23 -90h-98l-31 -126h99zM298 482l-44 -197h86l-37 197h-5zM473 232h5l42 187h-82z" />
    <glyph glyph-name="rupee" unicode="&#x20a8;" horiz-adv-x="961" 
d="M305 0l-60 228h-52l-55 -228h-141l171 700h158q122 0 181 -58t59 -150q0 -99 -51.5 -161t-130.5 -89l74 -242h-153zM711 -11q82 0 138 49t56 119q0 45 -22.5 79.5t-79.5 75.5q-46 32 -60 46.5t-14 33.5q0 20 13.5 33t33.5 13q50 0 114 -64l74 94q-76 80 -179 80
q-85 0 -137 -49.5t-52 -118.5q0 -45 24 -78.5t75 -71.5q30 -22 42.5 -32t22.5 -24t10 -27q0 -20 -14.5 -34t-39.5 -14q-60 0 -128 76l-82 -90q83 -96 205 -96zM223 353h57q68 0 103 35.5t35 92.5q0 41 -25.5 65t-77.5 24h-39z" />
    <glyph glyph-name="won" unicode="&#x20a9;" horiz-adv-x="972" 
d="M935 204h-140l-93 -206h-180l7 206h-123l-92 -206h-178l6 206h-139l23 95h119l4 101h-99l25 95h77l7 205h157l-18 -205h104l95 207h168l-3 -207h107l79 205h173l-93 -205h80l-24 -95h-99l-46 -101h120zM538 515l-94 -221h92l8 221h-6zM653 172h6l79 233h-80zM262 172h5
l98 233h-79z" />
    <glyph glyph-name="sheqel" unicode="&#x20aa;" horiz-adv-x="562" 
d="M-20 0l130 536h162q130 0 130 -114q0 -27 -7 -56l-38 -152h-70l17 75q8 35 8 61q0 37 -19.5 51t-57.5 14h-46l-99 -415h-110zM344 0q-98 0 -137 42.5t-30 130.5l16 149h70l-8 -103q-5 -60 16 -79t81 -19h19l99 415h111l-131 -536h-106z" />
    <glyph glyph-name="Euro" unicode="&#x20ac;" horiz-adv-x="621" 
d="M57 387l24 96h66q33 87 90 144q83 83 207 83q75 0 130.5 -36.5t83.5 -98.5l-127 -72q-22 37 -44.5 53.5t-54.5 16.5q-48 0 -79 -31q-25 -25 -41 -59h157l-25 -96h-162q-10 -31 -16 -70h162l-25 -98h-142q6 -46 29.5 -69t59.5 -23q49 0 101 49l100 -92q-82 -94 -205 -94
q-105 0 -168.5 61t-73.5 168h-88l25 98h68q4 33 12 70h-64z" />
    <glyph glyph-name="peso" unicode="&#x20b1;" horiz-adv-x="678" 
d="M701 405h-78q-19 -73 -71 -125q-88 -88 -227 -88h-84l-45 -192h-152l99 405h-93l22 85h92l52 210h166q69 0 115.5 -14.5t81.5 -49.5q51 -52 54 -146h90zM269 317h65q61 0 100 39q24 24 34 54h-177zM329 571l-21 -86h170q-4 40 -23 60q-26 26 -75 26h-51z" />
    <glyph glyph-name="published" unicode="&#x2117;" horiz-adv-x="736" 
d="M319 551h99q65 0 101.5 -31t36.5 -87q0 -68 -47 -111t-128 -43h-46l-29 -118h-83zM472 426q0 52 -58 52h-32l-29 -126h34q40 0 62 20.5t23 53.5zM425 712q130 0 208.5 -86.5t78.5 -216.5q0 -89 -32 -174t-91 -145q-102 -102 -242 -102q-130 0 -208.5 86.5t-78.5 216.5
q0 89 32 174.5t91 144.5q102 102 242 102zM347 28q125 0 211 86q56 56 84.5 134.5t28.5 159.5q1 113 -65 188.5t-182 75.5q-126 0 -210 -86q-56 -55 -84.5 -133t-29.5 -159q0 -114 66 -190t181 -76z" />
    <glyph glyph-name="servicemark" unicode="&#x2120;" horiz-adv-x="613" 
d="M179 384q-63 0 -116 58l44 42q39 -45 76 -45q19 0 30.5 9t11.5 23q0 13 -9.5 23t-37.5 27q-64 38 -64 88q0 40 27 67q30 30 76 30q59 0 106 -49l-41 -45q-37 39 -70 39q-16 0 -26 -9t-10 -22q0 -14 9 -24t40 -29q34 -21 48 -40t14 -46q0 -39 -26 -65q-32 -32 -82 -32z
M322 390l74 310h72l30 -123l88 123h76l-74 -310h-64l48 211l-96 -134h-6l-35 134l-48 -211h-65z" />
    <glyph glyph-name="trademark" unicode="&#x2122;" horiz-adv-x="608" 
d="M115 390l58 249h-77l17 61h221l-16 -61h-77l-58 -249h-68zM316 390l74 310h72l30 -123l88 123h76l-73 -310h-65l48 211l-96 -134h-6l-35 134l-48 -211h-65z" />
    <glyph glyph-name="onethird" unicode="&#x2153;" horiz-adv-x="728" 
d="M486 -8q-86 0 -140 56l54 61q2 -2 10 -8t11 -8t10 -7t12 -7t12.5 -4.5t15.5 -3.5t17 -1q26 0 43 16t17 35q0 42 -76 44h-22v53l109 83h-132l19 77h247l-16 -64l-126 -93q86 -17 86 -94q0 -59 -42 -97t-109 -38zM119 322l68 285l-73 -29l-6 75l124 50h64l-92 -381h-85z
M-5 0l312 367l273 333h86l-312 -367l-273 -333h-86z" />
    <glyph glyph-name="twothirds" unicode="&#x2154;" horiz-adv-x="794" 
d="M553 -8q-86 0 -140 56l54 61q2 -2 10 -8t11 -8t10 -7t12 -7t12.5 -4.5t15.5 -3.5t17 -1q26 0 43 16t17 35q0 42 -76 44h-22v53l109 83h-132l19 77h247l-16 -64l-126 -93q86 -17 86 -94q0 -59 -42 -97t-109 -38zM27 322l19 72l174 134q46 38 46 65q0 15 -11.5 24.5
t-30.5 9.5q-38 0 -85 -42l-50 60q61 63 138 63q60 0 94.5 -30t34.5 -78q0 -35 -17.5 -63.5t-75.5 -69.5l-97 -70h147l-19 -75h-267zM61 0l312 367l273 333h86l-312 -367l-273 -333h-86z" />
    <glyph glyph-name="onefifth" unicode="&#x2155;" horiz-adv-x="728" 
d="M480 -8q-38 0 -80.5 16t-65.5 44l54 61q51 -41 93 -41q31 0 49.5 16.5t18.5 40.5q0 20 -16 32.5t-45 12.5q-13 0 -43 -10l-48 34l58 180h222l-18 -78h-150l-19 -61q10 2 37 2q51 0 83 -28.5t32 -78.5q0 -57 -44 -99.5t-118 -42.5zM119 322l68 285l-73 -29l-6 75l124 50
h64l-92 -381h-85zM-2 0l312 367l273 333h86l-312 -367l-273 -333h-86z" />
    <glyph glyph-name="twofifths" unicode="&#x2156;" horiz-adv-x="794" 
d="M551 -8q-38 0 -80.5 16t-65.5 44l54 61q51 -41 93 -41q31 0 49.5 16.5t18.5 40.5q0 20 -16 32.5t-45 12.5q-13 0 -43 -10l-48 34l58 180h222l-18 -78h-150l-19 -61q10 2 37 2q51 0 83 -28.5t32 -78.5q0 -57 -44 -99.5t-118 -42.5zM69 0l312 367l273 333h86l-312 -367
l-273 -333h-86zM27 322l19 72l174 134q46 38 46 65q0 15 -11.5 24.5t-30.5 9.5q-38 0 -85 -42l-50 60q61 63 138 63q60 0 94.5 -30t34.5 -78q0 -35 -17.5 -63.5t-75.5 -69.5l-97 -70h147l-19 -75h-267z" />
    <glyph glyph-name="threefifths" unicode="&#x2157;" horiz-adv-x="794" 
d="M551 -8q-38 0 -80.5 16t-65.5 44l54 61q51 -41 93 -41q31 0 49.5 16.5t18.5 40.5q0 20 -16 32.5t-45 12.5q-13 0 -43 -10l-48 34l58 180h222l-18 -78h-150l-19 -61q10 2 37 2q51 0 83 -28.5t32 -78.5q0 -57 -44 -99.5t-118 -42.5zM56 0l312 367l273 333h86l-312 -367
l-273 -333h-86zM171 314q-84 0 -140 56l54 61q2 -1 9 -7t9.5 -7.5t9 -6t10 -6l10.5 -4.5t12.5 -4t13 -2t15.5 -1q26 0 43 15.5t17 34.5q0 44 -77 44h-22v53l109 83h-132l20 77h247l-17 -64l-126 -92q86 -19 86 -95q0 -59 -42 -97t-109 -38z" />
    <glyph glyph-name="fourfifths" unicode="&#x2158;" horiz-adv-x="794" 
d="M190 321l18 76h-171l18 80l218 226h90l-58 -238h46l-18 -68h-46l-19 -76h-78zM129 464h97l32 137h-2zM551 -8q-38 0 -80.5 16t-65.5 44l54 61q51 -41 93 -41q31 0 49.5 16.5t18.5 40.5q0 20 -16 32.5t-45 12.5q-13 0 -43 -10l-48 34l58 180h222l-18 -78h-150l-19 -61
q10 2 37 2q51 0 83 -28.5t32 -78.5q0 -57 -44 -99.5t-118 -42.5zM68 0l312 367l273 333h86l-312 -367l-273 -333h-86z" />
    <glyph glyph-name="onesixth" unicode="&#x2159;" horiz-adv-x="728" 
d="M497 -9q-63 0 -95 36.5t-32 97.5q0 47 21.5 107.5t60.5 99.5q52 54 129 54q42 0 94 -31l-43 -66q-28 18 -59 18q-42 0 -70 -31q-20 -20 -32 -53q32 23 82 23q39 0 67.5 -25.5t28.5 -73.5q0 -63 -42 -109.5t-110 -46.5zM2 0l312 367l273 333h86l-312 -367l-273 -333h-86z
M119 322l68 285l-73 -29l-6 75l124 50h64l-92 -381h-85zM500 64q29 0 47.5 20.5t18.5 49.5q0 22 -13 33.5t-35 11.5q-30 0 -47 -17q-18 -18 -18 -49q0 -24 13 -36.5t34 -12.5z" />
    <glyph glyph-name="fivesixths" unicode="&#x215a;" horiz-adv-x="794" 
d="M569 -9q-63 0 -95 36.5t-32 97.5q0 47 21.5 107.5t60.5 99.5q52 54 129 54q42 0 94 -31l-43 -66q-28 18 -59 18q-42 0 -70 -31q-20 -20 -32 -53q32 23 82 23q39 0 67.5 -25.5t28.5 -73.5q0 -63 -42 -109.5t-110 -46.5zM171 314q-38 0 -80 16.5t-66 44.5l54 60
q50 -40 93 -40q30 0 48.5 16.5t18.5 39.5q0 20 -15.5 32.5t-44.5 12.5q-21 0 -43 -10l-49 34l58 180h223l-18 -78h-150l-20 -61q17 3 38 3q51 0 82.5 -28.5t31.5 -79.5q0 -57 -43.5 -99.5t-117.5 -42.5zM60 0l312 367l273 333h86l-312 -367l-273 -333h-86zM572 64
q29 0 47.5 20.5t18.5 49.5q0 22 -13 33.5t-35 11.5q-30 0 -47 -17q-18 -18 -18 -49q0 -24 13 -36.5t34 -12.5z" />
    <glyph glyph-name="oneeighth" unicode="&#x215b;" horiz-adv-x="728" 
d="M491 -8q-55 0 -94 29t-39 78q0 40 23.5 67t63.5 38q-44 27 -44 74q0 43 35.5 75.5t100.5 32.5q56 0 91.5 -29t35.5 -73q0 -36 -19.5 -61.5t-56.5 -34.5q50 -30 50 -79q0 -47 -39.5 -82t-107.5 -35zM496 59q26 0 44 14.5t18 37.5q1 20 -15 33.5t-43 13.5q-26 0 -43.5 -15
t-18.5 -37q0 -21 15.5 -34t42.5 -13zM533 226q21 0 37 13.5t16 35.5q0 18 -12.5 30t-38.5 12q-24 0 -40.5 -13t-16.5 -34q-1 -18 14 -31t41 -13zM119 322l68 285l-73 -29l-6 75l124 50h64l-92 -381h-85zM-3 0l312 367l273 333h86l-312 -367l-273 -333h-86z" />
    <glyph glyph-name="threeeighths" unicode="&#x215c;" horiz-adv-x="794" 
d="M563 -8q-55 0 -94 29t-39 78q0 40 23.5 67t63.5 38q-44 27 -44 74q0 43 35.5 75.5t100.5 32.5q56 0 91.5 -29t35.5 -73q0 -36 -19.5 -61.5t-56.5 -34.5q50 -30 50 -79q0 -47 -39.5 -82t-107.5 -35zM568 59q26 0 44 14.5t18 37.5q1 20 -15 33.5t-43 13.5q-26 0 -43.5 -15
t-18.5 -37q0 -21 15.5 -34t42.5 -13zM605 226q21 0 37 13.5t16 35.5q0 18 -12.5 30t-38.5 12q-24 0 -40.5 -13t-16.5 -34q-1 -18 14 -31t41 -13zM60 0l312 367l273 333h86l-312 -367l-273 -333h-86zM173 314q-84 0 -140 56l54 61q2 -1 9 -7t9.5 -7.5t9 -6t10 -6l10.5 -4.5
t12.5 -4t13 -2t15.5 -1q26 0 43 15.5t17 34.5q0 44 -77 44h-22v53l109 83h-132l20 77h247l-17 -64l-126 -92q86 -19 86 -95q0 -59 -42 -97t-109 -38z" />
    <glyph glyph-name="fiveeighths" unicode="&#x215d;" horiz-adv-x="794" 
d="M563 -8q-55 0 -94 29t-39 78q0 40 23.5 67t63.5 38q-44 27 -44 74q0 43 35.5 75.5t100.5 32.5q56 0 91.5 -29t35.5 -73q0 -36 -19.5 -61.5t-56.5 -34.5q50 -30 50 -79q0 -47 -39.5 -82t-107.5 -35zM568 59q26 0 44 14.5t18 37.5q1 20 -15 33.5t-43 13.5q-26 0 -43.5 -15
t-18.5 -37q0 -21 15.5 -34t42.5 -13zM605 226q21 0 37 13.5t16 35.5q0 18 -12.5 30t-38.5 12q-24 0 -40.5 -13t-16.5 -34q-1 -18 14 -31t41 -13zM60 0l312 367l273 333h86l-312 -367l-273 -333h-86zM171 314q-38 0 -80 16.5t-66 44.5l54 60q50 -40 93 -40q30 0 48.5 16.5
t18.5 39.5q0 20 -15.5 32.5t-44.5 12.5q-21 0 -43 -10l-49 34l58 180h223l-18 -78h-150l-20 -61q17 3 38 3q51 0 82.5 -28.5t31.5 -79.5q0 -57 -43.5 -99.5t-117.5 -42.5z" />
    <glyph glyph-name="seveneighths" unicode="&#x215e;" horiz-adv-x="794" 
d="M557 -8q-55 0 -94 29t-39 78q0 40 23.5 67t63.5 38q-44 27 -44 74q0 43 35.5 75.5t100.5 32.5q56 0 91.5 -29t35.5 -73q0 -36 -19.5 -61.5t-56.5 -34.5q50 -30 50 -79q0 -47 -39.5 -82t-107.5 -35zM562 59q26 0 44 14.5t18 37.5q1 20 -15 33.5t-43 13.5q-26 0 -43.5 -15
t-18.5 -37q0 -21 15.5 -34t42.5 -13zM599 226q21 0 37 13.5t16 35.5q0 18 -12.5 30t-38.5 12q-24 0 -40.5 -13t-16.5 -34q-1 -18 14 -31t41 -13zM58 321l215 299h-153l21 80h247l-18 -69l-220 -310h-92zM28 0l312 367l273 333h86l-312 -367l-273 -333h-86z" />
    <glyph glyph-name="minus" unicode="&#x2212;" horiz-adv-x="554" 
d="M58 283l35 138h442l-35 -138h-442z" />
    <glyph glyph-name="Q.alt" horiz-adv-x="697" 
d="M497 -43l-36 64q-67 -32 -147 -32q-121 0 -192.5 78.5t-71.5 205.5q0 91 34.5 184.5t95.5 154.5q99 99 241 99q121 0 192.5 -78.5t71.5 -205.5q0 -83 -29 -169t-81 -149l48 -70zM333 129q29 0 56 11l-74 109l126 83l48 -85q40 83 40 169q0 74 -32 114.5t-95 40.5
q-62 0 -107 -47q-40 -40 -64.5 -110t-24.5 -130q0 -74 32 -114.5t95 -40.5z" />
    <glyph glyph-name="a.alt" horiz-adv-x="581" 
d="M195 -8q-70 0 -117 57.5t-47 160.5q0 77 26.5 149t74.5 120q71 71 161 71q88 0 134 -79l15 70h150l-133 -541h-149l13 54q-65 -62 -128 -62zM267 116q34 0 66 30q29 29 46 77t17 98q0 48 -23 76t-59 28q-35 0 -67 -32q-28 -28 -45.5 -74.5t-17.5 -97.5q0 -50 21 -77.5
t62 -27.5z" />
    <glyph glyph-name="aacute.alt" horiz-adv-x="581" 
d="M317 590l149 174l122 -56l-150 -118h-121zM195 -8q-70 0 -117 57.5t-47 160.5q0 77 26.5 149t74.5 120q71 71 161 71q88 0 134 -79l15 70h150l-133 -541h-149l13 54q-65 -62 -128 -62zM267 116q34 0 66 30q29 29 46 77t17 98q0 48 -23 76t-59 28q-35 0 -67 -32
q-28 -28 -45.5 -74.5t-17.5 -97.5q0 -50 21 -77.5t62 -27.5z" />
    <glyph glyph-name="abreve.alt" horiz-adv-x="581" 
d="M195 -8q-70 0 -117 57.5t-47 160.5q0 77 26.5 149t74.5 120q71 71 161 71q88 0 134 -79l15 70h150l-133 -541h-149l13 54q-65 -62 -128 -62zM267 116q34 0 66 30q29 29 46 77t17 98q0 48 -23 76t-59 28q-35 0 -67 -32q-28 -28 -45.5 -74.5t-17.5 -97.5q0 -50 21 -77.5
t62 -27.5zM390 589q-79 0 -118 43t-39 110h103q2 -24 18 -40.5t41 -16.5q32 0 51.5 14.5t36.5 42.5h102q-23 -69 -73 -111t-122 -42z" />
    <glyph glyph-name="acircumflex.alt" horiz-adv-x="581" 
d="M190 591l151 157h142l73 -157h-107l-54 69l-86 -69h-119zM195 -8q-70 0 -117 57.5t-47 160.5q0 77 26.5 149t74.5 120q71 71 161 71q88 0 134 -79l15 70h150l-133 -541h-149l13 54q-65 -62 -128 -62zM267 116q34 0 66 30q29 29 46 77t17 98q0 48 -23 76t-59 28
q-35 0 -67 -32q-28 -28 -45.5 -74.5t-17.5 -97.5q0 -50 21 -77.5t62 -27.5z" />
    <glyph glyph-name="adieresis.alt" horiz-adv-x="581" 
d="M214 593l33 130h139l-34 -130h-138zM406 593l34 130h138l-33 -130h-139zM195 -8q-70 0 -117 57.5t-47 160.5q0 77 26.5 149t74.5 120q71 71 161 71q88 0 134 -79l15 70h150l-133 -541h-149l13 54q-65 -62 -128 -62zM267 116q34 0 66 30q29 29 46 77t17 98q0 48 -23 76
t-59 28q-35 0 -67 -32q-28 -28 -45.5 -74.5t-17.5 -97.5q0 -50 21 -77.5t62 -27.5z" />
    <glyph glyph-name="agrave.alt" horiz-adv-x="581" 
d="M195 -8q-70 0 -117 57.5t-47 160.5q0 77 26.5 149t74.5 120q71 71 161 71q88 0 134 -79l15 70h150l-133 -541h-149l13 54q-65 -62 -128 -62zM267 116q34 0 66 30q29 29 46 77t17 98q0 48 -23 76t-59 28q-35 0 -67 -32q-28 -28 -45.5 -74.5t-17.5 -97.5q0 -50 21 -77.5
t62 -27.5zM322 590l-95 118l127 56l70 -174h-102z" />
    <glyph glyph-name="amacron.alt" horiz-adv-x="581" 
d="M195 -8q-70 0 -117 57.5t-47 160.5q0 77 26.5 149t74.5 120q71 71 161 71q88 0 134 -79l15 70h150l-133 -541h-149l13 54q-65 -62 -128 -62zM267 116q34 0 66 30q29 29 46 77t17 98q0 48 -23 76t-59 28q-35 0 -67 -32q-28 -28 -45.5 -74.5t-17.5 -97.5q0 -50 21 -77.5
t62 -27.5zM217 590l27 102h318l-26 -102h-319z" />
    <glyph glyph-name="aogonek.alt" horiz-adv-x="581" 
d="M455 -83l-17 -66q-25 -4 -53 -4q-43 -1 -68.5 15t-25.5 45q0 43 55 93h-36l13 54q-65 -62 -128 -62q-70 0 -117 57.5t-47 160.5q0 77 26.5 149t74.5 120q71 71 161 71q88 0 134 -79l15 70h150l-133 -541h-20q-34 -43 -34 -60q0 -26 50 -23zM267 116q34 0 66 30
q29 29 46 77t17 98q0 48 -23 76t-59 28q-35 0 -67 -32q-28 -28 -45.5 -74.5t-17.5 -97.5q0 -50 21 -77.5t62 -27.5z" />
    <glyph glyph-name="aring.alt" horiz-adv-x="581" 
d="M513 713q0 -50 -33 -87t-85 -37q-45 0 -72.5 27t-27.5 68q0 49 33.5 87t84.5 38q45 0 72.5 -27.5t27.5 -68.5zM350 689q0 -24 13.5 -38t34.5 -14q27 0 43.5 22t16.5 49q0 24 -13 38t-34 14q-27 0 -44 -22t-17 -49zM195 -8q-70 0 -117 57.5t-47 160.5q0 77 26.5 149
t74.5 120q71 71 161 71q88 0 134 -79l15 70h150l-133 -541h-149l13 54q-65 -62 -128 -62zM267 116q34 0 66 30q29 29 46 77t17 98q0 48 -23 76t-59 28q-35 0 -67 -32q-28 -28 -45.5 -74.5t-17.5 -97.5q0 -50 21 -77.5t62 -27.5z" />
    <glyph glyph-name="aring.alt2" horiz-adv-x="513" 
d="M251 0l13 56q-57 -65 -129 -65q-63 0 -99 40t-36 102q0 86 55 141q57 57 155 57q56 0 117 -23l2 9q7 30 7 49q0 53 -77 53q-52 0 -117 -29l-33 119q64 29 138 35q-15 20 -15 54q0 48 33.5 84t84.5 36q45 0 73 -27t28 -68q0 -63 -49 -98q80 -36 80 -126q0 -41 -16 -105
l-70 -294h-145zM334 548q27 0 44 21.5t17 48.5q0 24 -13 38t-34 14q-27 0 -44 -22t-17 -49q0 -23 13.5 -37t33.5 -14zM201 92q37 0 63 29.5t35 70.5l8 35q-34 15 -68 15q-40 0 -65 -25q-26 -26 -26 -69q0 -25 14.5 -40.5t38.5 -15.5z" />
    <glyph glyph-name="aringacute.alt" horiz-adv-x="581" 
d="M382 843l147 141l122 -55l-150 -86h-119zM513 712q0 -50 -33 -87t-85 -37q-45 0 -72.5 27t-27.5 68q0 49 33.5 87t84.5 38q45 0 72.5 -27.5t27.5 -68.5zM350 688q0 -24 13.5 -38t34.5 -14q27 0 43.5 22t16.5 49q0 24 -13 38t-34 14q-27 0 -44 -22t-17 -49zM195 -8
q-70 0 -117 57.5t-47 160.5q0 77 26.5 149t74.5 120q71 71 161 71q88 0 134 -79l15 70h150l-133 -541h-149l13 54q-65 -62 -128 -62zM267 116q34 0 66 30q29 29 46 77t17 98q0 48 -23 76t-59 28q-35 0 -67 -32q-28 -28 -45.5 -74.5t-17.5 -97.5q0 -50 21 -77.5t62 -27.5z
" />
    <glyph glyph-name="aringacute.alt2" horiz-adv-x="513" 
d="M316 750l147 141l121 -55l-149 -86h-119zM251 0l13 56q-57 -65 -129 -65q-63 0 -99 40t-36 102q0 86 55 141q57 57 155 57q56 0 117 -23l2 9q7 30 7 49q0 53 -77 53q-52 0 -117 -29l-33 119q64 29 138 35q-15 20 -15 54q0 48 33.5 84t84.5 36q45 0 73 -27t28 -68
q0 -63 -49 -98q80 -36 80 -126q0 -41 -16 -105l-70 -294h-145zM334 548q27 0 44 21.5t17 48.5q0 24 -13 38t-34 14q-27 0 -44 -22t-17 -49q0 -23 13.5 -37t33.5 -14zM201 92q37 0 63 29.5t35 70.5l8 35q-34 15 -68 15q-40 0 -65 -25q-26 -26 -26 -69q0 -25 14.5 -40.5
t38.5 -15.5z" />
    <glyph glyph-name="atilde.alt" horiz-adv-x="581" 
d="M195 -8q-70 0 -117 57.5t-47 160.5q0 77 26.5 149t74.5 120q71 71 161 71q88 0 134 -79l15 70h150l-133 -541h-149l13 54q-65 -62 -128 -62zM267 116q34 0 66 30q29 29 46 77t17 98q0 48 -23 76t-59 28q-35 0 -67 -32q-28 -28 -45.5 -74.5t-17.5 -97.5q0 -50 21 -77.5
t62 -27.5zM512 747l79 -27q-28 -65 -57 -97.5t-75 -32.5q-39 0 -81 24q-33 18 -47 18q-32 0 -58 -48l-79 27q27 65 56.5 97.5t75.5 32.5q35 0 81 -23q30 -18 47 -18q19 0 31.5 11t26.5 36z" />
    <glyph glyph-name="three.alt" horiz-adv-x="532" 
d="M219 -11q-154 0 -240 118l116 93q56 -75 128 -75q48 0 73 28t25 66q0 34 -24.5 55t-73.5 21h-56l30 124h66q44 0 77.5 26t33.5 69q0 27 -18.5 44.5t-49.5 17.5q-57 0 -124 -61l-83 98q97 99 226 99q98 0 150.5 -51.5t52.5 -124.5q0 -63 -34.5 -113t-105.5 -75
q37 -18 60.5 -53.5t23.5 -85.5q0 -95 -70.5 -157.5t-182.5 -62.5z" />
    <glyph glyph-name="registered.alt" horiz-adv-x="736" 
d="M425 712q130 0 208.5 -86.5t78.5 -216.5q0 -89 -32 -174t-91 -145q-102 -102 -242 -102q-130 0 -208.5 86.5t-78.5 216.5q0 89 32 174.5t91 144.5q102 102 242 102zM347 28q125 0 211 86q56 56 84.5 134.5t28.5 159.5q1 113 -65 188.5t-182 75.5q-126 0 -210 -86
q-56 -55 -84.5 -133t-29.5 -159q0 -114 66 -190t181 -76zM324 289l-29 -125h-83l96 391h101q82 0 118 -37q31 -30 31 -81q0 -61 -36 -97q-26 -26 -68 -39l43 -137h-85l-34 125h-54zM343 359h42q48 0 72 24q18 18 18 47q0 23 -13 36q-16 16 -54 16h-37z" />
    <glyph glyph-name="R_p" horiz-adv-x="1049" 
d="M484 -151l169 692h140l-12 -53q48 61 110 61q61 0 98 -51.5t37 -146.5q0 -88 -28.5 -170t-78.5 -132q-56 -58 -124 -58q-84 0 -119 78l-52 -220h-140zM769 112q28 0 53 26q27 28 43.5 82.5t16.5 112.5q0 95 -62 95q-28 0 -51 -23q-28 -29 -44.5 -82.5t-16.5 -109.5
q0 -48 16 -74.5t45 -26.5zM305 0l-60 228h-52l-55 -228h-141l171 700h158q122 0 181 -58t59 -150q0 -99 -51.5 -161t-130.5 -89l74 -242h-153zM223 353h57q68 0 103 35.5t35 92.5q0 41 -25.5 65t-77.5 24h-39z" />
    <glyph glyph-name="onehalf.alt" horiz-adv-x="794" 
d="M44 322l19 76h92l50 210l-89 -35l-6 76l140 55h64l-74 -306h79l-19 -76h-256zM406 0l19 72l174 134q46 38 46 65q0 15 -11.5 24.5t-30.5 9.5q-38 0 -85 -42l-51 60q62 62 139 62q59 0 94 -30t35 -77q0 -36 -17.5 -64.5t-75.5 -68.5l-98 -70h147l-19 -75h-266zM77 0
l312 367l273 333h86l-312 -367l-273 -333h-86z" />
    <glyph glyph-name="onethird.alt" horiz-adv-x="794" 
d="M44 322l19 76h92l50 210l-89 -35l-6 76l140 55h64l-74 -306h79l-19 -76h-256zM553 -8q-86 0 -140 56l54 61q2 -2 10 -8t11 -8t10 -7t12 -7t12.5 -4.5t15.5 -3.5t17 -1q26 0 43 16t17 35q0 42 -76 44h-22v53l109 83h-132l19 77h247l-16 -64l-126 -93q86 -17 86 -94
q0 -59 -42 -97t-109 -38zM68 0l312 367l273 333h86l-312 -367l-273 -333h-86z" />
    <glyph glyph-name="onequarter.alt" horiz-adv-x="794" 
d="M46 322l19 76h92l50 210l-89 -35l-6 76l140 55h64l-74 -306h79l-19 -76h-256zM83 0l312 367l273 333h86l-312 -367l-273 -333h-86zM559 0l19 77h-172l18 79l218 226h90l-58 -238h46l-18 -67h-46l-19 -77h-78zM498 143h98l31 138h-2z" />
    <glyph glyph-name="onefifth.alt" horiz-adv-x="794" 
d="M44 322l19 76h92l50 210l-89 -35l-6 76l140 55h64l-74 -306h79l-19 -76h-256zM550 -8q-38 0 -80.5 16t-65.5 44l54 61q51 -41 93 -41q31 0 49.5 16.5t18.5 40.5q0 20 -16 32.5t-45 12.5q-13 0 -43 -10l-48 34l58 180h222l-18 -78h-150l-19 -61q10 2 37 2q51 0 83 -28.5
t32 -78.5q0 -57 -44 -99.5t-118 -42.5zM73 0l312 367l273 333h86l-312 -367l-273 -333h-86z" />
    <glyph glyph-name="onesixth.alt" horiz-adv-x="794" 
d="M570 -9q-63 0 -95 36.5t-32 97.5q0 47 21.5 107.5t60.5 99.5q52 54 129 54q42 0 94 -31l-43 -66q-28 18 -59 18q-42 0 -70 -31q-20 -20 -32 -53q32 23 82 23q39 0 67.5 -25.5t28.5 -73.5q0 -63 -42 -109.5t-110 -46.5zM75 0l312 367l273 333h86l-312 -367l-273 -333h-86z
M44 322l19 76h92l50 210l-89 -35l-6 76l140 55h64l-74 -306h79l-19 -76h-256zM573 64q29 0 47.5 20.5t18.5 49.5q0 22 -13 33.5t-35 11.5q-30 0 -47 -17q-18 -18 -18 -49q0 -24 13 -36.5t34 -12.5z" />
    <glyph glyph-name="oneeighth.alt" horiz-adv-x="794" 
d="M44 322l19 76h92l50 210l-89 -35l-6 76l140 55h64l-74 -306h79l-19 -76h-256zM564 -8q-55 0 -94 29t-39 78q0 40 23.5 67t63.5 38q-44 27 -44 74q0 43 35.5 75.5t100.5 32.5q56 0 91.5 -29t35.5 -73q0 -36 -19.5 -61.5t-56.5 -34.5q50 -30 50 -79q0 -47 -39.5 -82
t-107.5 -35zM569 59q26 0 44 14.5t18 37.5q1 20 -15 33.5t-43 13.5q-26 0 -43.5 -15t-18.5 -37q0 -21 15.5 -34t42.5 -13zM606 226q21 0 37 13.5t16 35.5q0 18 -12.5 30t-38.5 12q-24 0 -40.5 -13t-16.5 -34q-1 -18 14 -31t41 -13zM75 0l312 367l273 333h86l-312 -367
l-273 -333h-86z" />
    <glyph glyph-name="one.sup_alt" 
d="M98 432l19 75h92l50 210l-89 -35l-6 76l139 55h64l-73 -306h79l-19 -75h-256z" />
    <glyph glyph-name="one.inf_alt" 
d="M-38 -132l19 75h92l50 210l-89 -35l-6 76l139 55h64l-73 -306h79l-19 -75h-256z" />
    <glyph glyph-name="zero.tab" horiz-adv-x="530" 
d="M510 488q0 -114 -41.5 -239.5t-107.5 -191.5q-67 -67 -154 -67q-90 0 -139.5 58.5t-49.5 163.5q0 114 41.5 239.5t107.5 191.5q67 67 155 67q90 0 139 -58.5t49 -163.5zM159 209q0 -91 56 -91q25 0 45 20q42 42 75.5 163t33.5 191q0 90 -56 90q-25 0 -45 -20
q-42 -42 -75.5 -162.5t-33.5 -190.5z" />
    <glyph glyph-name="one.tab" horiz-adv-x="530" 
d="M-22 0l31 122h150l98 420l-151 -62l-2 132l237 92h102l-141 -582h133l-31 -122h-426z" />
    <glyph glyph-name="two.tab" horiz-adv-x="530" 
d="M-40 0l32 117l282 250q45 40 65.5 71.5t20.5 66.5q0 31 -20 50t-48 19q-58 0 -136 -72l-83 101q98 107 225 107q99 0 157 -51.5t58 -133.5q0 -63 -28 -112.5t-91 -104.5l-204 -178h241l-35 -130h-436z" />
    <glyph glyph-name="three.tab" horiz-adv-x="530" 
d="M192 -11q-142 0 -227 100l99 100q62 -65 136 -65q47 0 77.5 28.5t30.5 68.5q0 82 -124 88h-38v92l173 170h-222l35 129h418l-30 -113l-198 -182q69 -23 103 -63.5t34 -107.5q0 -101 -75 -173t-192 -72z" />
    <glyph glyph-name="three.tab_alt" horiz-adv-x="530" 
d="M193 -11q-77 0 -136 34t-91 83l106 91q32 -39 60.5 -57t69.5 -18q47 0 73 26.5t26 65.5q0 42 -31 63t-85 21h-39l32 120h63q55 0 87.5 26.5t32.5 69.5q0 28 -18.5 46.5t-50.5 18.5q-63 0 -135 -65l-76 102q99 96 227 96q99 0 153 -51t54 -124q0 -142 -151 -190
q38 -17 62.5 -52.5t24.5 -85.5q0 -94 -69 -157t-189 -63z" />
    <glyph glyph-name="four.tab" horiz-adv-x="530" 
d="M219 0l35 144h-264l15 138l356 422h167l-107 -443h70l-31 -117h-68l-34 -144h-139zM129 259h155l66 268h-1z" />
    <glyph glyph-name="five.tab" horiz-adv-x="530" 
d="M189 -10q-142 0 -231 99l95 104q68 -70 142 -70q48 0 81 33.5t33 78.5q0 41 -27 64.5t-71 23.5q-37 0 -78 -16l-79 60l101 333h375l-35 -132h-244l-40 -131q25 4 54 4q83 0 141 -51t58 -134q0 -107 -76 -186.5t-199 -79.5z" />
    <glyph glyph-name="six.tab" horiz-adv-x="530" 
d="M231 -11q-94 0 -149 55q-59 59 -59 176q0 97 38 213.5t112 190.5q86 86 206 86q97 0 162 -51l-79 -118q-50 37 -100 37q-54 0 -101 -47q-45 -45 -70 -122q56 42 122 42q65 0 115 -47.5t50 -136.5q0 -107 -69 -192.5t-178 -85.5zM234 111q46 0 72.5 44t26.5 94
q0 43 -21.5 65t-53.5 22q-33 0 -59 -26q-39 -39 -39 -114q0 -36 18 -60.5t56 -24.5z" />
    <glyph glyph-name="seven.tab" horiz-adv-x="530" 
d="M-13 0l373 566h-275l35 134h442l-32 -118l-373 -582h-170z" />
    <glyph glyph-name="eight.tab" horiz-adv-x="530" 
d="M216 -10q-101 0 -159 51.5t-58 133.5q0 74 40.5 126t108.5 73q-70 42 -70 135q0 77 64 139t164 62q91 0 149 -48.5t58 -128.5q0 -69 -36 -116t-99 -67q86 -53 86 -147q0 -84 -68 -148.5t-180 -64.5zM223 108q41 0 69 30t29 74q1 40 -21 62.5t-61 22.5q-41 0 -68.5 -30
t-28.5 -74q-1 -39 22 -62t59 -23zM286 415q37 0 63.5 27.5t27.5 68.5q1 35 -18 57t-57 22t-63.5 -28.5t-26.5 -66.5q-1 -34 18.5 -57t55.5 -23z" />
    <glyph glyph-name="nine.tab" horiz-adv-x="530" 
d="M164 -11q-102 0 -179 67l79 114q58 -49 112 -49q50 0 87 37q45 44 71 124q-55 -39 -116 -39q-68 0 -119.5 48.5t-51.5 140.5q0 109 70.5 194t181.5 85q91 0 144 -53q60 -60 60 -184q0 -103 -37.5 -218t-108.5 -186q-81 -81 -193 -81zM266 358q36 0 62 28q37 37 37 112
q0 41 -18.5 65.5t-55.5 24.5q-48 0 -74.5 -44t-26.5 -96q0 -45 21.5 -67.5t54.5 -22.5z" />
    <glyph glyph-name="period.tab" horiz-adv-x="265" 
d="M-34 0l41 162h163l-41 -162h-163z" />
    <glyph glyph-name="comma.tab" horiz-adv-x="265" 
d="M-86 -161l-11 64q59 6 88.5 29.5t37.5 67.5h-64l41 162h164l-35 -137q-24 -96 -77 -139t-144 -47z" />
    <glyph glyph-name="colon.tab" horiz-adv-x="265" 
d="M-34 0l40 158h159l-40 -158h-159zM58 382l40 158h160l-40 -158h-160z" />
    <glyph glyph-name="semicolon.tab" horiz-adv-x="265" 
d="M-86 -161l-11 64q59 6 88.5 29.5t37.5 67.5h-62l40 158h160l-34 -133q-24 -96 -76.5 -139t-142.5 -47zM59 382l40 158h160l-40 -158h-160z" />
    <glyph glyph-name="twodotleader.tab" horiz-adv-x="530" 
d="M-30 0l39 155h156l-40 -155h-155zM233 0l39 155h156l-40 -155h-155z" />
    <glyph glyph-name="periodcentered.tab" horiz-adv-x="265" 
d="M21 229l41 162h164l-42 -162h-163z" />
    <glyph glyph-name="slash.tab" horiz-adv-x="530" 
d="M-126 -119l621 908h138l-620 -908h-139z" />
    <glyph glyph-name="bar.tab" horiz-adv-x="265" 
d="M-42 -119l223 908h117l-223 -908h-117z" />
    <glyph glyph-name="underscore.tab" horiz-adv-x="530" 
d="M-125 -160l29 114h531l-30 -114h-530z" />
    <glyph glyph-name="dollar.tab" horiz-adv-x="530" 
d="M353 788h95l-28 -99q74 -21 129 -84l-88 -99q-39 42 -78 61l-49 -167q62 -35 94.5 -76t32.5 -102q0 -96 -69 -159.5t-175 -64.5l-30 -101h-95l34 114q-93 28 -157 105l92 96q54 -61 102 -81l51 174q-61 35 -93 75t-32 99q0 92 69 156.5t169 65.5zM312 202q0 31 -23 54
l-40 -136q29 7 46 29t17 53zM239 499q0 -28 20 -49l36 127q-56 -15 -56 -78z" />
    <glyph glyph-name="sterling.tab" horiz-adv-x="530" 
d="M-39 0l26 99l68 23l36 152h-67l31 122h65l24 107q23 96 73 146q61 61 160 61q60 0 108.5 -29.5t76.5 -77.5l-116 -86q-32 54 -77 54q-29 0 -49 -20q-24 -23 -34 -73l-18 -82h175l-31 -122h-174l-33 -145h243l-32 -129h-455z" />
    <glyph glyph-name="Euro.tab" horiz-adv-x="530" 
d="M30 388l24 94h65q36 94 93 152q76 76 180 76q60 0 106.5 -28t74.5 -73l-98 -90q-46 59 -90 59q-39 0 -69 -30q-25 -25 -43 -66h140l-24 -94h-148q-7 -31 -13 -72h146l-25 -94h-124q7 -100 74 -100q39 0 91 43l70 -103q-83 -72 -173 -72q-86 0 -145.5 59t-65.5 173h-86
l24 94h66q3 33 11 72h-61z" />
    <glyph glyph-name="yen.tab" horiz-adv-x="530" 
d="M45 264l25 96h109l-86 340h149l42 -255l157 255h164l-250 -340h112l-25 -96h-126l-17 -69h127l-24 -96h-127l-24 -99h-142l24 99h-128l24 96h128l18 69h-130z" />
    <glyph glyph-name="cent.tab" horiz-adv-x="530" 
d="M483 705l-37 -104q55 -28 94 -83l-98 -75q-20 25 -40 41l-93 -284q45 5 96 47l67 -91q-76 -73 -185 -73h-14l-30 -89h-99l39 112q-56 27 -88 81.5t-32 129.5q0 143 88 231q77 77 191 77q2 0 7 -0.5t7 -0.5l28 81h99zM195 323q0 -65 34 -97l91 281q-39 -5 -71 -37
q-26 -26 -40 -67.5t-14 -79.5z" />
    <glyph glyph-name="numbersign.tab" horiz-adv-x="530" 
d="M1 0l41 149h-63l32 126h67l43 152h-70l32 126h73l41 147h112l-41 -147h94l41 147h112l-41 -147h65l-32 -126h-69l-42 -152h71l-32 -126h-73l-42 -149h-112l41 149h-94l-42 -149h-112zM189 275h97l42 152h-97z" />
    <glyph glyph-name="paragraph.tab" horiz-adv-x="530" 
d="M223 0l50 211q-116 7 -174 66q-54 54 -54 147q0 118 75 192q82 84 248 84h176l-171 -700h-150z" />
    <glyph glyph-name="section.tab" horiz-adv-x="530" 
d="M502 363q0 -55 -36 -87t-86 -43q30 -36 30 -88q0 -64 -53.5 -108.5t-145.5 -44.5q-131 0 -204 83l86 88q59 -59 121 -59q26 0 40.5 10.5t14.5 25.5q0 17 -15 26.5t-66 29.5q-41 15 -64 25.5t-49 28t-37.5 39.5t-11.5 51q0 55 36 87t86 43q-30 36 -30 88q0 64 53.5 108.5
t145.5 44.5q131 0 204 -83l-86 -88q-59 59 -121 59q-26 0 -40.5 -10.5t-14.5 -25.5q0 -17 15 -26.5t66 -29.5q41 -15 64 -25.5t49 -28t37.5 -39.5t11.5 -51zM165 366q0 -13 8 -23t17 -15.5t28 -14.5q66 -25 93 -25q20 0 36 13.5t16 35.5q0 13 -8 23t-17 15.5t-29 14.5
q-65 25 -93 25q-19 0 -35 -13.5t-16 -35.5z" />
    <glyph glyph-name="degree.tab" horiz-adv-x="530" 
d="M323 710q78 0 125 -48t47 -126q0 -104 -70 -174q-62 -60 -139 -60q-78 0 -125 48t-47 126q0 104 70 174q62 60 139 60zM290 383q43 0 72 31q45 45 45 118q0 45 -23.5 71t-64.5 26q-43 0 -72 -31q-45 -44 -45 -118q0 -44 23.5 -70.5t64.5 -26.5z" />
    <glyph glyph-name="percent.tab" horiz-adv-x="530" 
d="M204 705q40 0 64 -27.5t24 -81.5q0 -56 -21.5 -121.5t-55.5 -99.5q-37 -37 -81 -37q-40 0 -64 27.5t-24 81.5q0 56 21.5 121.5t55.5 99.5q37 37 81 37zM399 362q40 0 64 -27.5t24 -81.5q0 -56 -21.5 -121.5t-55.5 -99.5q-37 -37 -81 -37q-40 0 -64 27.5t-24 81.5
q0 56 21.5 121.5t55.5 99.5q37 37 81 37zM474 700h77l-265 -362l-227 -338h-78l266 362zM195 630q-8 0 -16 -8q-19 -19 -36 -77.5t-17 -96.5q0 -35 17 -35q8 0 16 8q19 19 36 77.5t17 96.5q0 35 -17 35zM390 287q-8 0 -16 -8q-19 -19 -36 -77.5t-17 -96.5q0 -35 17 -35
q8 0 16 8q19 19 36 77.5t17 96.5q0 35 -17 35z" />
    <glyph glyph-name="quotedbl.tab" horiz-adv-x="530" 
d="M84 384l86 316h166l-3 -6l-173 -310h-76zM312 384l85 316h167l-3 -6l-173 -310h-76z" />
    <glyph glyph-name="quotesingle.tab" horiz-adv-x="265" 
d="M67 384l86 316h166l-2 -6l-174 -310h-76z" />
    <glyph glyph-name="plus.tab" horiz-adv-x="530" 
d="M145 137l38 151l-150 -1l33 130l150 -1l35 151h133l-37 -151l149 1l-33 -130l-146 1l-36 -151h-136z" />
    <glyph glyph-name="minus.tab" horiz-adv-x="530" 
d="M32 283l35 138h431l-36 -138h-430z" />
    <glyph glyph-name="divide.tab" horiz-adv-x="530" 
d="M124 87l35 138h148l-34 -138h-149zM33 289l33 126h431l-34 -126h-430zM222 479l35 138h148l-34 -138h-149z" />
    <glyph glyph-name="equal.tab" horiz-adv-x="530" 
d="M16 172l34 131h406l-33 -131h-407zM73 401l34 131h406l-34 -131h-406z" />
    <glyph glyph-name="multiply.tab" horiz-adv-x="530" 
d="M101 134l-78 102l153 123l-89 118l112 88l84 -121l151 126l78 -102l-152 -122l88 -117l-113 -90l-83 120z" />
    <glyph glyph-name="less.tab" horiz-adv-x="530" 
d="M393 104l-353 179l36 138l447 193l-40 -147l-291 -119l236 -107z" />
    <glyph glyph-name="greater.tab" horiz-adv-x="530" 
d="M137 600l353 -179l-36 -138l-447 -193l40 147l290 119l-235 107z" />
    <glyph glyph-name="plusminus.tab" horiz-adv-x="530" 
d="M170 229l36 144l-149 -1l33 129l149 -1l35 144h133l-37 -144l149 1l-33 -129l-149 1l-34 -144h-133zM-28 28l31 124h429l-32 -124h-428z" />
    <glyph glyph-name="space.tab" horiz-adv-x="265" 
 />
    <glyph glyph-name="NUL" horiz-adv-x="0" 
 />
    <glyph glyph-name="hfjslug" horiz-adv-x="694" 
d="M255 276h8l11 34h1l11 -34h8l14 47h-8l-10 -35h-1l-11 35h-7l-11 -35h-1l-10 35h-8zM321 388q19 0 29 24h1l12 -24l12 6l-17 32q6 14 13 39l-13 3q-4 -18 -8 -30h-1l-16 31q23 21 23 42q0 31 -27 31q-12 0 -20 -9t-8 -22t14 -39q-23 -18 -23 -47q0 -16 8 -26.5t21 -10.5z
M50 -200v303q14 0 23 9.5t9 22.5t-9.5 22.5t-22.5 9.5v554h100l30 79h334l29 -79h101v-921h-208l-8 14h-163l-8 -14h-207zM523 277h8v12l8 8l15 -20h10l-20 26l18 20h-10l-20 -24h-1v24h-8v-46zM193 277h34v7h-26v13h23v7h-23v12h26v7h-34v-46zM184 391h15v79h47v-79h15v172
h-15v-79h-47v79h-15v-172zM132 277h8v32l25 -32h7v46h-8v-32l-25 32h-7v-46zM400 391h15v78h38v14h-38v66h43v14h-58v-172zM468 277h8v15h12l10 -15h9l-12 17q10 4 10 14q0 15 -17 15h-20v-46zM366 277h8v17l18 29h-9l-13 -22l-13 22h-9l18 -29v-17zM481 390q31 0 31 36v137
h-16v-137q0 -22 -16 -22q-8 0 -20 5v-15q10 -4 21 -4zM476 299v17h11q10 0 10 -8q0 -9 -10 -9h-11zM322 402q-16 0 -16 25q0 19 16 35l20 -39q-8 -21 -20 -21zM327 479q-12 22 -12 32q0 19 14 19q13 0 13 -19q0 -15 -15 -32zM426 283q-16 0 -16 17q0 6 4.5 11.5t11.5 5.5
t11.5 -5.5t4.5 -11.5q0 -17 -16 -17zM426 276q10 0 17 7t7 17q0 9 -7 16.5t-17 7.5t-17 -7.5t-7 -16.5q0 -10 7 -17t17 -7z" />
    <glyph glyph-name="i.dot" horiz-adv-x="272" 
d="M-5 0l133 541h149l-132 -541h-150zM136 593l36 136h155l-36 -136h-155z" />
    <glyph glyph-name="zero.num" 
d="M374 568q0 -59 -19 -115t-55 -91q-46 -48 -109 -48q-60 0 -97 38t-37 103q0 58 19.5 114.5t54.5 91.5q47 47 110 47q60 0 96.5 -37.5t36.5 -102.5zM149 458q0 -62 49 -62q21 0 35 16q25 24 37.5 70t12.5 82q0 31 -13.5 47t-35.5 16q-19 0 -36 -17q-24 -24 -36.5 -70
t-12.5 -82z" />
    <glyph glyph-name="one.num" horiz-adv-x="287" 
d="M115 322l68 285l-73 -29l-6 75l124 50h64l-92 -381h-85z" />
    <glyph glyph-name="one.num_alt" 
d="M50 322l19 76h92l50 210l-89 -35l-6 76l140 55h64l-74 -306h79l-19 -76h-256z" />
    <glyph glyph-name="two.num" 
d="M33 322l19 72l174 134q46 38 46 65q0 15 -11.5 24.5t-30.5 9.5q-38 0 -85 -42l-50 60q61 63 138 63q60 0 94.5 -30t34.5 -78q0 -35 -17.5 -63.5t-75.5 -69.5l-97 -70h147l-19 -75h-267z" />
    <glyph glyph-name="three.num" 
d="M179 314q-84 0 -140 56l54 61q2 -1 9 -7t9.5 -7.5t9 -6t10 -6l10.5 -4.5t12.5 -4t13 -2t15.5 -1q26 0 43 15.5t17 34.5q0 44 -77 44h-22v53l109 83h-132l20 77h247l-17 -64l-126 -92q86 -19 86 -95q0 -59 -42 -97t-109 -38z" />
    <glyph glyph-name="four.num" 
d="M197 321l18 76h-171l18 80l218 226h90l-58 -238h46l-18 -68h-46l-19 -76h-78zM136 464h97l32 137h-2z" />
    <glyph glyph-name="five.num" 
d="M177 314q-38 0 -80 16.5t-66 44.5l54 60q50 -40 93 -40q30 0 48.5 16.5t18.5 39.5q0 20 -15.5 32.5t-44.5 12.5q-20 0 -43 -10l-49 34l58 180h223l-18 -78h-150l-20 -61q17 3 38 3q51 0 82.5 -28.5t31.5 -79.5q0 -57 -43.5 -99.5t-117.5 -42.5z" />
    <glyph glyph-name="six.num" 
d="M197 314q-62 0 -94 36t-32 97q0 47 21 107.5t60 99.5q54 54 130 54q48 0 94 -31l-43 -66q-33 19 -59 19q-40 0 -71 -31q-21 -24 -31 -54q31 23 81 23q40 0 68.5 -25.5t28.5 -73.5q0 -62 -42.5 -108.5t-110.5 -46.5zM201 387q29 0 47.5 20.5t18.5 48.5q0 22 -13 34t-35 12
q-29 0 -47 -18q-18 -17 -18 -49q0 -48 47 -48z" />
    <glyph glyph-name="seven.num" 
d="M57 321l215 299h-153l21 80h247l-18 -69l-220 -310h-92z" />
    <glyph glyph-name="eight.num" 
d="M191 314q-55 0 -94 29t-39 78q0 40 23.5 67.5t63.5 38.5q-44 27 -44 73q0 43 36 75.5t100 32.5q57 0 92.5 -28.5t35.5 -73.5q0 -35 -20 -60.5t-57 -34.5q50 -30 50 -80q0 -47 -39.5 -82t-107.5 -35zM196 382q26 0 44 14t18 37q1 20 -15 33.5t-43 13.5q-26 0 -43 -14.5
t-18 -37.5q0 -20 15.5 -33t41.5 -13zM234 548q21 0 37 13.5t16 35.5q0 18 -13 30.5t-39 12.5q-24 0 -40.5 -13.5t-16.5 -34.5q-1 -17 14 -30.5t42 -13.5z" />
    <glyph glyph-name="nine.num" 
d="M152 314q-54 0 -102 35l43 66q31 -22 67 -22q43 0 67 26q19 19 33 55q-31 -24 -82 -24q-40 0 -68.5 26t-28.5 75q0 62 43 110t110 48q63 0 95 -37t32 -98q0 -48 -20 -108t-59 -98q-54 -54 -130 -54zM214 517q27 0 46 17q18 18 18 51q0 25 -13 38t-34 13
q-29 -1 -47.5 -22.5t-18.5 -51.5q0 -45 49 -45z" />
    <glyph glyph-name="zero.den" 
d="M297 245q0 -58 -19.5 -114.5t-54.5 -91.5q-47 -47 -110 -47q-60 0 -96.5 37.5t-36.5 102.5q0 59 19 114.5t55 91.5q46 48 110 48q59 0 96 -38t37 -103zM71 136q0 -31 13.5 -47t35.5 -16q19 0 36 17q24 24 37 70.5t13 81.5q0 31 -13.5 46.5t-35.5 15.5q-20 0 -36 -16
q-24 -24 -37 -70.5t-13 -81.5z" />
    <glyph glyph-name="one.den" horiz-adv-x="287" 
d="M36 0l69 284l-73 -28l-7 75l125 49h64l-93 -380h-85z" />
    <glyph glyph-name="one.den_alt" 
d="M-28 0l19 75h92l50 210l-89 -35l-6 76l139 55h64l-73 -306h79l-19 -75h-256z" />
    <glyph glyph-name="two.den" 
d="M-45 0l19 72l174 134q46 38 46 65q0 15 -11.5 24.5t-30.5 9.5q-38 0 -85 -42l-51 60q62 62 139 62q59 0 94 -30t35 -77q0 -36 -17.5 -64.5t-75.5 -68.5l-98 -70h147l-19 -75h-266z" />
    <glyph glyph-name="three.den" 
d="M102 -8q-86 0 -140 56l54 61q2 -2 10 -8t11 -8t10 -7t12 -7t12.5 -4.5t15.5 -3.5t17 -1q26 0 43 16t17 35q0 42 -76 44h-22v53l109 83h-132l19 77h247l-16 -64l-126 -93q86 -17 86 -94q0 -59 -42 -97t-109 -38z" />
    <glyph glyph-name="four.den" 
d="M119 0l19 77h-172l18 79l218 226h90l-58 -238h46l-18 -67h-46l-19 -77h-78zM58 143h98l31 138h-2z" />
    <glyph glyph-name="five.den" 
d="M99 -8q-38 0 -80.5 16t-65.5 44l54 61q51 -41 93 -41q31 0 49.5 16.5t18.5 40.5q0 20 -16 32.5t-45 12.5q-13 0 -43 -10l-48 34l58 180h222l-18 -78h-150l-19 -61q10 2 37 2q51 0 83 -28.5t32 -78.5q0 -57 -44 -99.5t-118 -42.5z" />
    <glyph glyph-name="six.den" 
d="M119 -9q-63 0 -95 36.5t-32 97.5q0 47 21.5 107.5t60.5 99.5q52 54 129 54q42 0 94 -31l-43 -66q-28 18 -59 18q-42 0 -70 -31q-20 -20 -32 -53q32 23 82 23q39 0 67.5 -25.5t28.5 -73.5q0 -63 -42 -109.5t-110 -46.5zM122 64q29 0 47.5 20.5t18.5 49.5q0 22 -13 33.5
t-35 11.5q-30 0 -47 -17q-18 -18 -18 -49q0 -24 13 -36.5t34 -12.5z" />
    <glyph glyph-name="seven.den" 
d="M-22 -2l216 300h-153l21 80h247l-19 -69l-220 -311h-92z" />
    <glyph glyph-name="eight.den" 
d="M113 -8q-55 0 -94 29t-39 78q0 40 23.5 67t63.5 38q-44 27 -44 74q0 43 35.5 75.5t100.5 32.5q56 0 91.5 -29t35.5 -73q0 -36 -19.5 -61.5t-56.5 -34.5q50 -30 50 -79q0 -47 -39.5 -82t-107.5 -35zM118 59q26 0 44 14.5t18 37.5q1 20 -15 33.5t-43 13.5q-26 0 -43.5 -15
t-18.5 -37q0 -21 15.5 -34t42.5 -13zM155 226q21 0 37 13.5t16 35.5q0 18 -12.5 30t-38.5 12q-24 0 -40.5 -13t-16.5 -34q-1 -18 14 -31t41 -13z" />
    <glyph glyph-name="nine.den" 
d="M74 -8q-51 0 -102 35l44 66q33 -23 66 -23q42 0 68 26q21 22 32 56q-29 -24 -82 -24q-39 0 -67.5 26t-28.5 75q0 62 43 109.5t110 47.5q63 0 95 -36.5t32 -97.5q0 -47 -20.5 -107.5t-58.5 -99.5q-55 -53 -131 -53zM136 194q30 0 46 18q18 18 18 51q0 50 -46 50
q-29 -1 -47.5 -22t-18.5 -51q0 -46 48 -46z" />
    <glyph glyph-name="caron.alt" horiz-adv-x="500" 
d="M277 584l49 208h112v-3l-103 -205h-58z" />
    <glyph glyph-name="acute.cap" horiz-adv-x="500" 
d="M255 747l151 153l123 -55l-151 -98h-123z" />
    <glyph glyph-name="hungarumlaut.cap" horiz-adv-x="500" 
d="M188 747l150 153l117 -55l-151 -98h-116zM368 747l151 153l116 -55l-150 -98h-117z" />
    <glyph glyph-name="grave.cap" horiz-adv-x="500" 
d="M368 747l-109 98l131 55l81 -153h-103z" />
    <glyph glyph-name="circumflex.cap" horiz-adv-x="500" 
d="M180 749l154 144h142l83 -144h-109l-59 55l-86 -55h-125z" />
    <glyph glyph-name="caron.cap" horiz-adv-x="500" 
d="M595 893l-154 -144h-142l-82 144h108l60 -56l85 56h125z" />
    <glyph glyph-name="breve.cap" horiz-adv-x="500" 
d="M372 747q-75 0 -115 37t-30 105h95q9 -45 69 -45q56 0 84 45h108q-24 -68 -80 -105t-131 -37z" />
    <glyph glyph-name="tilde.cap" horiz-adv-x="500" 
d="M257 742l-79 28q28 64 57.5 95.5t76.5 31.5q36 0 87 -22q31 -17 50 -17q33 0 60 45l80 -28q-29 -64 -58.5 -95.5t-76.5 -31.5q-36 0 -87 22q-32 17 -50 17q-33 0 -60 -45z" />
    <glyph glyph-name="macron.cap" horiz-adv-x="500" 
d="M197 748l28 104h343l-27 -104h-344z" />
    <glyph glyph-name="dieresis.cap" horiz-adv-x="500" 
d="M204 750l31 123h139l-32 -123h-138zM399 750l32 123h139l-32 -123h-139z" />
    <glyph glyph-name="dotaccent.cap" horiz-adv-x="500" 
d="M299 750l31 123h143l-32 -123h-142z" />
    <glyph glyph-name="ring.cap" horiz-adv-x="500" 
d="M242 953q46 0 76.5 -27t30.5 -65q0 -48 -32.5 -82t-92.5 -34q-45 0 -76 27.5t-31 65.5q0 48 32.5 81.5t92.5 33.5zM227 797q30 0 47 18t17 40q0 21 -14.5 34t-37.5 13q-30 0 -47 -18t-17 -40q0 -20 14.5 -33.5t37.5 -13.5z" />
    </font>
</defs>
</svg>
